<?xml version="1.0" encoding="UTF-8" standalone="no"?>
<!DOCTYPE svg PUBLIC "-//W3C//DTD SVG 1.1//EN"
 "http://www.w3.org/Graphics/SVG/1.1/DTD/svg11.dtd">
<!-- Generated by graphviz version 2.43.0 (0)
 -->
<!-- Title: Tree Pages: 1 -->
<svg width="2017pt" height="909pt"
 viewBox="0.00 0.00 2017.00 909.00" xmlns="http://www.w3.org/2000/svg" xmlns:xlink="http://www.w3.org/1999/xlink">
<g id="graph0" class="graph" transform="scale(1 1) rotate(0) translate(4 905)">
<title>Tree</title>
<polygon fill="white" stroke="transparent" points="-4,4 -4,-905 2013,-905 2013,4 -4,4"/>
<!-- 0 -->
<g id="node1" class="node">
<title>0</title>
<path fill="#fbfefb" stroke="black" d="M1395,-901C1395,-901 1198,-901 1198,-901 1192,-901 1186,-895 1186,-889 1186,-889 1186,-830 1186,-830 1186,-824 1192,-818 1198,-818 1198,-818 1395,-818 1395,-818 1401,-818 1407,-824 1407,-830 1407,-830 1407,-889 1407,-889 1407,-895 1401,-901 1395,-901"/>
<text text-anchor="start" x="1227" y="-885.8" font-family="Helvetica,sans-Serif" font-size="14.00">expert_12_1 ≤ 0.39</text>
<text text-anchor="start" x="1239" y="-870.8" font-family="Helvetica,sans-Serif" font-size="14.00">entropy = 1.994</text>
<text text-anchor="start" x="1243.5" y="-855.8" font-family="Helvetica,sans-Serif" font-size="14.00">samples = 530</text>
<text text-anchor="start" x="1194" y="-840.8" font-family="Helvetica,sans-Serif" font-size="14.00">value = [121, 148, 121, 140]</text>
<text text-anchor="start" x="1264" y="-825.8" font-family="Helvetica,sans-Serif" font-size="14.00">class = 1</text>
</g>
<!-- 1 -->
<g id="node2" class="node">
<title>1</title>
<path fill="#f9e4fb" stroke="black" d="M1118,-782C1118,-782 957,-782 957,-782 951,-782 945,-776 945,-770 945,-770 945,-711 945,-711 945,-705 951,-699 957,-699 957,-699 1118,-699 1118,-699 1124,-699 1130,-705 1130,-711 1130,-711 1130,-770 1130,-770 1130,-776 1124,-782 1118,-782"/>
<text text-anchor="start" x="968" y="-766.8" font-family="Helvetica,sans-Serif" font-size="14.00">expert_0_0 ≤ 0.028</text>
<text text-anchor="start" x="980" y="-751.8" font-family="Helvetica,sans-Serif" font-size="14.00">entropy = 1.287</text>
<text text-anchor="start" x="984.5" y="-736.8" font-family="Helvetica,sans-Serif" font-size="14.00">samples = 269</text>
<text text-anchor="start" x="953" y="-721.8" font-family="Helvetica,sans-Serif" font-size="14.00">value = [117, 5, 9, 138]</text>
<text text-anchor="start" x="1005" y="-706.8" font-family="Helvetica,sans-Serif" font-size="14.00">class = 4</text>
</g>
<!-- 0&#45;&gt;1 -->
<g id="edge1" class="edge">
<title>0&#45;&gt;1</title>
<path fill="none" stroke="black" d="M1206.64,-817.91C1183.94,-807.65 1159.44,-796.59 1136.32,-786.14"/>
<polygon fill="black" stroke="black" points="1137.75,-782.95 1127.2,-782.02 1134.87,-789.33 1137.75,-782.95"/>
<text text-anchor="middle" x="1136.03" y="-801.71" font-family="Helvetica,sans-Serif" font-size="14.00">True</text>
</g>
<!-- 20 -->
<g id="node21" class="node">
<title>20</title>
<path fill="#d9fad6" stroke="black" d="M1560,-782C1560,-782 1399,-782 1399,-782 1393,-782 1387,-776 1387,-770 1387,-770 1387,-711 1387,-711 1387,-705 1393,-699 1399,-699 1399,-699 1560,-699 1560,-699 1566,-699 1572,-705 1572,-711 1572,-711 1572,-770 1572,-770 1572,-776 1566,-782 1560,-782"/>
<text text-anchor="start" x="1405.5" y="-766.8" font-family="Helvetica,sans-Serif" font-size="14.00">expert_19_1 ≤ 2.245</text>
<text text-anchor="start" x="1422" y="-751.8" font-family="Helvetica,sans-Serif" font-size="14.00">entropy = 1.146</text>
<text text-anchor="start" x="1426.5" y="-736.8" font-family="Helvetica,sans-Serif" font-size="14.00">samples = 261</text>
<text text-anchor="start" x="1395" y="-721.8" font-family="Helvetica,sans-Serif" font-size="14.00">value = [4, 143, 112, 2]</text>
<text text-anchor="start" x="1447" y="-706.8" font-family="Helvetica,sans-Serif" font-size="14.00">class = 1</text>
</g>
<!-- 0&#45;&gt;20 -->
<g id="edge20" class="edge">
<title>0&#45;&gt;20</title>
<path fill="none" stroke="black" d="M1359.99,-817.91C1375.32,-808.11 1391.81,-797.56 1407.5,-787.53"/>
<polygon fill="black" stroke="black" points="1409.58,-790.36 1416.12,-782.02 1405.81,-784.46 1409.58,-790.36"/>
<text text-anchor="middle" x="1410.75" y="-802.74" font-family="Helvetica,sans-Serif" font-size="14.00">False</text>
</g>
<!-- 2 -->
<g id="node3" class="node">
<title>2</title>
<path fill="#e99558" stroke="black" d="M841,-663C841,-663 698,-663 698,-663 692,-663 686,-657 686,-651 686,-651 686,-592 686,-592 686,-586 692,-580 698,-580 698,-580 841,-580 841,-580 847,-580 853,-586 853,-592 853,-592 853,-651 853,-651 853,-657 847,-663 841,-663"/>
<text text-anchor="start" x="700" y="-647.8" font-family="Helvetica,sans-Serif" font-size="14.00">expert_29_0 ≤ 0.48</text>
<text text-anchor="start" x="712" y="-632.8" font-family="Helvetica,sans-Serif" font-size="14.00">entropy = 0.817</text>
<text text-anchor="start" x="716.5" y="-617.8" font-family="Helvetica,sans-Serif" font-size="14.00">samples = 136</text>
<text text-anchor="start" x="694" y="-602.8" font-family="Helvetica,sans-Serif" font-size="14.00">value = [116, 3, 9, 8]</text>
<text text-anchor="start" x="737" y="-587.8" font-family="Helvetica,sans-Serif" font-size="14.00">class = 0</text>
</g>
<!-- 1&#45;&gt;2 -->
<g id="edge2" class="edge">
<title>1&#45;&gt;2</title>
<path fill="none" stroke="black" d="M944.89,-699.07C918.23,-687.43 889.15,-674.73 862.46,-663.08"/>
<polygon fill="black" stroke="black" points="863.7,-659.8 853.13,-659.01 860.9,-666.22 863.7,-659.8"/>
</g>
<!-- 15 -->
<g id="node16" class="node">
<title>15</title>
<path fill="#d83ee6" stroke="black" d="M1109,-663C1109,-663 966,-663 966,-663 960,-663 954,-657 954,-651 954,-651 954,-592 954,-592 954,-586 960,-580 966,-580 966,-580 1109,-580 1109,-580 1115,-580 1121,-586 1121,-592 1121,-592 1121,-651 1121,-651 1121,-657 1115,-663 1109,-663"/>
<text text-anchor="start" x="963.5" y="-647.8" font-family="Helvetica,sans-Serif" font-size="14.00">expert_31_1 ≤ 0.134</text>
<text text-anchor="start" x="980" y="-632.8" font-family="Helvetica,sans-Serif" font-size="14.00">entropy = 0.176</text>
<text text-anchor="start" x="984.5" y="-617.8" font-family="Helvetica,sans-Serif" font-size="14.00">samples = 133</text>
<text text-anchor="start" x="962" y="-602.8" font-family="Helvetica,sans-Serif" font-size="14.00">value = [1, 2, 0, 130]</text>
<text text-anchor="start" x="1005" y="-587.8" font-family="Helvetica,sans-Serif" font-size="14.00">class = 4</text>
</g>
<!-- 1&#45;&gt;15 -->
<g id="edge15" class="edge">
<title>1&#45;&gt;15</title>
<path fill="none" stroke="black" d="M1037.5,-698.91C1037.5,-690.65 1037.5,-681.86 1037.5,-673.3"/>
<polygon fill="black" stroke="black" points="1041,-673.02 1037.5,-663.02 1034,-673.02 1041,-673.02"/>
</g>
<!-- 3 -->
<g id="node4" class="node">
<title>3</title>
<path fill="#ffffff" stroke="black" d="M573,-544C573,-544 442,-544 442,-544 436,-544 430,-538 430,-532 430,-532 430,-473 430,-473 430,-467 436,-461 442,-461 442,-461 573,-461 573,-461 579,-461 585,-467 585,-473 585,-473 585,-532 585,-532 585,-538 579,-544 573,-544"/>
<text text-anchor="start" x="438" y="-528.8" font-family="Helvetica,sans-Serif" font-size="14.00">expert_19_1 ≤ 1.04</text>
<text text-anchor="start" x="450" y="-513.8" font-family="Helvetica,sans-Serif" font-size="14.00">entropy = 1.684</text>
<text text-anchor="start" x="459" y="-498.8" font-family="Helvetica,sans-Serif" font-size="14.00">samples = 20</text>
<text text-anchor="start" x="441" y="-483.8" font-family="Helvetica,sans-Serif" font-size="14.00">value = [1, 3, 8, 8]</text>
<text text-anchor="start" x="475" y="-468.8" font-family="Helvetica,sans-Serif" font-size="14.00">class = 2</text>
</g>
<!-- 2&#45;&gt;3 -->
<g id="edge3" class="edge">
<title>2&#45;&gt;3</title>
<path fill="none" stroke="black" d="M685.88,-583.16C656.83,-570.18 624.18,-555.61 594.83,-542.5"/>
<polygon fill="black" stroke="black" points="595.99,-539.18 585.43,-538.3 593.13,-545.57 595.99,-539.18"/>
</g>
<!-- 12 -->
<g id="node13" class="node">
<title>12</title>
<path fill="#e5823b" stroke="black" d="M841,-544C841,-544 698,-544 698,-544 692,-544 686,-538 686,-532 686,-532 686,-473 686,-473 686,-467 692,-461 698,-461 698,-461 841,-461 841,-461 847,-461 853,-467 853,-473 853,-473 853,-532 853,-532 853,-538 847,-544 841,-544"/>
<text text-anchor="start" x="695.5" y="-528.8" font-family="Helvetica,sans-Serif" font-size="14.00">expert_12_1 ≤ 0.255</text>
<text text-anchor="start" x="712" y="-513.8" font-family="Helvetica,sans-Serif" font-size="14.00">entropy = 0.072</text>
<text text-anchor="start" x="716.5" y="-498.8" font-family="Helvetica,sans-Serif" font-size="14.00">samples = 116</text>
<text text-anchor="start" x="694" y="-483.8" font-family="Helvetica,sans-Serif" font-size="14.00">value = [115, 0, 1, 0]</text>
<text text-anchor="start" x="737" y="-468.8" font-family="Helvetica,sans-Serif" font-size="14.00">class = 0</text>
</g>
<!-- 2&#45;&gt;12 -->
<g id="edge12" class="edge">
<title>2&#45;&gt;12</title>
<path fill="none" stroke="black" d="M769.5,-579.91C769.5,-571.65 769.5,-562.86 769.5,-554.3"/>
<polygon fill="black" stroke="black" points="773,-554.02 769.5,-544.02 766,-554.02 773,-554.02"/>
</g>
<!-- 4 -->
<g id="node5" class="node">
<title>4</title>
<path fill="#e065eb" stroke="black" d="M399.5,-425C399.5,-425 259.5,-425 259.5,-425 253.5,-425 247.5,-419 247.5,-413 247.5,-413 247.5,-354 247.5,-354 247.5,-348 253.5,-342 259.5,-342 259.5,-342 399.5,-342 399.5,-342 405.5,-342 411.5,-348 411.5,-354 411.5,-354 411.5,-413 411.5,-413 411.5,-419 405.5,-425 399.5,-425"/>
<text text-anchor="start" x="255.5" y="-409.8" font-family="Helvetica,sans-Serif" font-size="14.00">expert_10_0 ≤ 0.469</text>
<text text-anchor="start" x="272" y="-394.8" font-family="Helvetica,sans-Serif" font-size="14.00">entropy = 0.922</text>
<text text-anchor="start" x="281" y="-379.8" font-family="Helvetica,sans-Serif" font-size="14.00">samples = 10</text>
<text text-anchor="start" x="263" y="-364.8" font-family="Helvetica,sans-Serif" font-size="14.00">value = [1, 1, 0, 8]</text>
<text text-anchor="start" x="297" y="-349.8" font-family="Helvetica,sans-Serif" font-size="14.00">class = 4</text>
</g>
<!-- 3&#45;&gt;4 -->
<g id="edge4" class="edge">
<title>3&#45;&gt;4</title>
<path fill="none" stroke="black" d="M445.74,-460.91C430.83,-451.11 414.79,-440.56 399.53,-430.53"/>
<polygon fill="black" stroke="black" points="401.43,-427.59 391.15,-425.02 397.58,-433.44 401.43,-427.59"/>
</g>
<!-- 9 -->
<g id="node10" class="node">
<title>9</title>
<path fill="#6ab6ec" stroke="black" d="M573,-425C573,-425 442,-425 442,-425 436,-425 430,-419 430,-413 430,-413 430,-354 430,-354 430,-348 436,-342 442,-342 442,-342 573,-342 573,-342 579,-342 585,-348 585,-354 585,-354 585,-413 585,-413 585,-419 579,-425 573,-425"/>
<text text-anchor="start" x="438" y="-409.8" font-family="Helvetica,sans-Serif" font-size="14.00">expert_16_0 ≤ 0.24</text>
<text text-anchor="start" x="450" y="-394.8" font-family="Helvetica,sans-Serif" font-size="14.00">entropy = 0.722</text>
<text text-anchor="start" x="459" y="-379.8" font-family="Helvetica,sans-Serif" font-size="14.00">samples = 10</text>
<text text-anchor="start" x="441" y="-364.8" font-family="Helvetica,sans-Serif" font-size="14.00">value = [0, 2, 8, 0]</text>
<text text-anchor="start" x="475" y="-349.8" font-family="Helvetica,sans-Serif" font-size="14.00">class = 2</text>
</g>
<!-- 3&#45;&gt;9 -->
<g id="edge9" class="edge">
<title>3&#45;&gt;9</title>
<path fill="none" stroke="black" d="M507.5,-460.91C507.5,-452.65 507.5,-443.86 507.5,-435.3"/>
<polygon fill="black" stroke="black" points="511,-435.02 507.5,-425.02 504,-435.02 511,-435.02"/>
</g>
<!-- 5 -->
<g id="node6" class="node">
<title>5</title>
<path fill="#f2bdf6" stroke="black" d="M227.5,-306C227.5,-306 87.5,-306 87.5,-306 81.5,-306 75.5,-300 75.5,-294 75.5,-294 75.5,-235 75.5,-235 75.5,-229 81.5,-223 87.5,-223 87.5,-223 227.5,-223 227.5,-223 233.5,-223 239.5,-229 239.5,-235 239.5,-235 239.5,-294 239.5,-294 239.5,-300 233.5,-306 227.5,-306"/>
<text text-anchor="start" x="83.5" y="-290.8" font-family="Helvetica,sans-Serif" font-size="14.00">expert_17_1 ≤ 0.084</text>
<text text-anchor="start" x="109" y="-275.8" font-family="Helvetica,sans-Serif" font-size="14.00">entropy = 1.5</text>
<text text-anchor="start" x="113.5" y="-260.8" font-family="Helvetica,sans-Serif" font-size="14.00">samples = 4</text>
<text text-anchor="start" x="91" y="-245.8" font-family="Helvetica,sans-Serif" font-size="14.00">value = [1, 1, 0, 2]</text>
<text text-anchor="start" x="125" y="-230.8" font-family="Helvetica,sans-Serif" font-size="14.00">class = 4</text>
</g>
<!-- 4&#45;&gt;5 -->
<g id="edge5" class="edge">
<title>4&#45;&gt;5</title>
<path fill="none" stroke="black" d="M269.83,-341.91C255.55,-332.2 240.2,-321.76 225.58,-311.81"/>
<polygon fill="black" stroke="black" points="227.31,-308.75 217.07,-306.02 223.37,-314.54 227.31,-308.75"/>
</g>
<!-- 8 -->
<g id="node9" class="node">
<title>8</title>
<path fill="#d739e5" stroke="black" d="M395,-298.5C395,-298.5 270,-298.5 270,-298.5 264,-298.5 258,-292.5 258,-286.5 258,-286.5 258,-242.5 258,-242.5 258,-236.5 264,-230.5 270,-230.5 270,-230.5 395,-230.5 395,-230.5 401,-230.5 407,-236.5 407,-242.5 407,-242.5 407,-286.5 407,-286.5 407,-292.5 401,-298.5 395,-298.5"/>
<text text-anchor="start" x="284" y="-283.3" font-family="Helvetica,sans-Serif" font-size="14.00">entropy = 0.0</text>
<text text-anchor="start" x="288.5" y="-268.3" font-family="Helvetica,sans-Serif" font-size="14.00">samples = 6</text>
<text text-anchor="start" x="266" y="-253.3" font-family="Helvetica,sans-Serif" font-size="14.00">value = [0, 0, 0, 6]</text>
<text text-anchor="start" x="300" y="-238.3" font-family="Helvetica,sans-Serif" font-size="14.00">class = 4</text>
</g>
<!-- 4&#45;&gt;8 -->
<g id="edge8" class="edge">
<title>4&#45;&gt;8</title>
<path fill="none" stroke="black" d="M330.54,-341.91C330.82,-331.2 331.11,-319.62 331.39,-308.78"/>
<polygon fill="black" stroke="black" points="334.89,-308.75 331.65,-298.67 327.89,-308.57 334.89,-308.75"/>
</g>
<!-- 6 -->
<g id="node7" class="node">
<title>6</title>
<path fill="#d739e5" stroke="black" d="M137,-179.5C137,-179.5 12,-179.5 12,-179.5 6,-179.5 0,-173.5 0,-167.5 0,-167.5 0,-123.5 0,-123.5 0,-117.5 6,-111.5 12,-111.5 12,-111.5 137,-111.5 137,-111.5 143,-111.5 149,-117.5 149,-123.5 149,-123.5 149,-167.5 149,-167.5 149,-173.5 143,-179.5 137,-179.5"/>
<text text-anchor="start" x="26" y="-164.3" font-family="Helvetica,sans-Serif" font-size="14.00">entropy = 0.0</text>
<text text-anchor="start" x="30.5" y="-149.3" font-family="Helvetica,sans-Serif" font-size="14.00">samples = 2</text>
<text text-anchor="start" x="8" y="-134.3" font-family="Helvetica,sans-Serif" font-size="14.00">value = [0, 0, 0, 2]</text>
<text text-anchor="start" x="42" y="-119.3" font-family="Helvetica,sans-Serif" font-size="14.00">class = 4</text>
</g>
<!-- 5&#45;&gt;6 -->
<g id="edge6" class="edge">
<title>5&#45;&gt;6</title>
<path fill="none" stroke="black" d="M128.7,-222.91C120.72,-211.65 112.04,-199.42 104.02,-188.11"/>
<polygon fill="black" stroke="black" points="106.67,-185.8 98.03,-179.67 100.96,-189.85 106.67,-185.8"/>
</g>
<!-- 7 -->
<g id="node8" class="node">
<title>7</title>
<path fill="#ffffff" stroke="black" d="M304,-179.5C304,-179.5 179,-179.5 179,-179.5 173,-179.5 167,-173.5 167,-167.5 167,-167.5 167,-123.5 167,-123.5 167,-117.5 173,-111.5 179,-111.5 179,-111.5 304,-111.5 304,-111.5 310,-111.5 316,-117.5 316,-123.5 316,-123.5 316,-167.5 316,-167.5 316,-173.5 310,-179.5 304,-179.5"/>
<text text-anchor="start" x="193" y="-164.3" font-family="Helvetica,sans-Serif" font-size="14.00">entropy = 1.0</text>
<text text-anchor="start" x="197.5" y="-149.3" font-family="Helvetica,sans-Serif" font-size="14.00">samples = 2</text>
<text text-anchor="start" x="175" y="-134.3" font-family="Helvetica,sans-Serif" font-size="14.00">value = [1, 1, 0, 0]</text>
<text text-anchor="start" x="209" y="-119.3" font-family="Helvetica,sans-Serif" font-size="14.00">class = 0</text>
</g>
<!-- 5&#45;&gt;7 -->
<g id="edge7" class="edge">
<title>5&#45;&gt;7</title>
<path fill="none" stroke="black" d="M186.64,-222.91C194.72,-211.65 203.51,-199.42 211.63,-188.11"/>
<polygon fill="black" stroke="black" points="214.7,-189.83 217.69,-179.67 209.01,-185.75 214.7,-189.83"/>
</g>
<!-- 10 -->
<g id="node11" class="node">
<title>10</title>
<path fill="#399de5" stroke="black" d="M567,-298.5C567,-298.5 442,-298.5 442,-298.5 436,-298.5 430,-292.5 430,-286.5 430,-286.5 430,-242.5 430,-242.5 430,-236.5 436,-230.5 442,-230.5 442,-230.5 567,-230.5 567,-230.5 573,-230.5 579,-236.5 579,-242.5 579,-242.5 579,-286.5 579,-286.5 579,-292.5 573,-298.5 567,-298.5"/>
<text text-anchor="start" x="456" y="-283.3" font-family="Helvetica,sans-Serif" font-size="14.00">entropy = 0.0</text>
<text text-anchor="start" x="460.5" y="-268.3" font-family="Helvetica,sans-Serif" font-size="14.00">samples = 8</text>
<text text-anchor="start" x="438" y="-253.3" font-family="Helvetica,sans-Serif" font-size="14.00">value = [0, 0, 8, 0]</text>
<text text-anchor="start" x="472" y="-238.3" font-family="Helvetica,sans-Serif" font-size="14.00">class = 2</text>
</g>
<!-- 9&#45;&gt;10 -->
<g id="edge10" class="edge">
<title>9&#45;&gt;10</title>
<path fill="none" stroke="black" d="M506.46,-341.91C506.18,-331.2 505.89,-319.62 505.61,-308.78"/>
<polygon fill="black" stroke="black" points="509.11,-308.57 505.35,-298.67 502.11,-308.75 509.11,-308.57"/>
</g>
<!-- 11 -->
<g id="node12" class="node">
<title>11</title>
<path fill="#47e539" stroke="black" d="M734,-298.5C734,-298.5 609,-298.5 609,-298.5 603,-298.5 597,-292.5 597,-286.5 597,-286.5 597,-242.5 597,-242.5 597,-236.5 603,-230.5 609,-230.5 609,-230.5 734,-230.5 734,-230.5 740,-230.5 746,-236.5 746,-242.5 746,-242.5 746,-286.5 746,-286.5 746,-292.5 740,-298.5 734,-298.5"/>
<text text-anchor="start" x="623" y="-283.3" font-family="Helvetica,sans-Serif" font-size="14.00">entropy = 0.0</text>
<text text-anchor="start" x="627.5" y="-268.3" font-family="Helvetica,sans-Serif" font-size="14.00">samples = 2</text>
<text text-anchor="start" x="605" y="-253.3" font-family="Helvetica,sans-Serif" font-size="14.00">value = [0, 2, 0, 0]</text>
<text text-anchor="start" x="639" y="-238.3" font-family="Helvetica,sans-Serif" font-size="14.00">class = 1</text>
</g>
<!-- 9&#45;&gt;11 -->
<g id="edge11" class="edge">
<title>9&#45;&gt;11</title>
<path fill="none" stroke="black" d="M564.4,-341.91C581.26,-329.88 599.68,-316.73 616.43,-304.79"/>
<polygon fill="black" stroke="black" points="618.9,-307.32 625.01,-298.67 614.84,-301.63 618.9,-307.32"/>
</g>
<!-- 13 -->
<g id="node14" class="node">
<title>13</title>
<path fill="#e58139" stroke="black" d="M758,-417.5C758,-417.5 615,-417.5 615,-417.5 609,-417.5 603,-411.5 603,-405.5 603,-405.5 603,-361.5 603,-361.5 603,-355.5 609,-349.5 615,-349.5 615,-349.5 758,-349.5 758,-349.5 764,-349.5 770,-355.5 770,-361.5 770,-361.5 770,-405.5 770,-405.5 770,-411.5 764,-417.5 758,-417.5"/>
<text text-anchor="start" x="638" y="-402.3" font-family="Helvetica,sans-Serif" font-size="14.00">entropy = 0.0</text>
<text text-anchor="start" x="633.5" y="-387.3" font-family="Helvetica,sans-Serif" font-size="14.00">samples = 114</text>
<text text-anchor="start" x="611" y="-372.3" font-family="Helvetica,sans-Serif" font-size="14.00">value = [114, 0, 0, 0]</text>
<text text-anchor="start" x="654" y="-357.3" font-family="Helvetica,sans-Serif" font-size="14.00">class = 0</text>
</g>
<!-- 12&#45;&gt;13 -->
<g id="edge13" class="edge">
<title>12&#45;&gt;13</title>
<path fill="none" stroke="black" d="M740.7,-460.91C732.72,-449.65 724.04,-437.42 716.02,-426.11"/>
<polygon fill="black" stroke="black" points="718.67,-423.8 710.03,-417.67 712.96,-427.85 718.67,-423.8"/>
</g>
<!-- 14 -->
<g id="node15" class="node">
<title>14</title>
<path fill="#ffffff" stroke="black" d="M925,-417.5C925,-417.5 800,-417.5 800,-417.5 794,-417.5 788,-411.5 788,-405.5 788,-405.5 788,-361.5 788,-361.5 788,-355.5 794,-349.5 800,-349.5 800,-349.5 925,-349.5 925,-349.5 931,-349.5 937,-355.5 937,-361.5 937,-361.5 937,-405.5 937,-405.5 937,-411.5 931,-417.5 925,-417.5"/>
<text text-anchor="start" x="814" y="-402.3" font-family="Helvetica,sans-Serif" font-size="14.00">entropy = 1.0</text>
<text text-anchor="start" x="818.5" y="-387.3" font-family="Helvetica,sans-Serif" font-size="14.00">samples = 2</text>
<text text-anchor="start" x="796" y="-372.3" font-family="Helvetica,sans-Serif" font-size="14.00">value = [1, 0, 1, 0]</text>
<text text-anchor="start" x="830" y="-357.3" font-family="Helvetica,sans-Serif" font-size="14.00">class = 0</text>
</g>
<!-- 12&#45;&gt;14 -->
<g id="edge14" class="edge">
<title>12&#45;&gt;14</title>
<path fill="none" stroke="black" d="M801.77,-460.91C810.8,-449.54 820.63,-437.18 829.69,-425.77"/>
<polygon fill="black" stroke="black" points="832.65,-427.67 836.14,-417.67 827.17,-423.32 832.65,-427.67"/>
</g>
<!-- 16 -->
<g id="node17" class="node">
<title>16</title>
<path fill="#47e539" stroke="black" d="M1008,-536.5C1008,-536.5 883,-536.5 883,-536.5 877,-536.5 871,-530.5 871,-524.5 871,-524.5 871,-480.5 871,-480.5 871,-474.5 877,-468.5 883,-468.5 883,-468.5 1008,-468.5 1008,-468.5 1014,-468.5 1020,-474.5 1020,-480.5 1020,-480.5 1020,-524.5 1020,-524.5 1020,-530.5 1014,-536.5 1008,-536.5"/>
<text text-anchor="start" x="897" y="-521.3" font-family="Helvetica,sans-Serif" font-size="14.00">entropy = 0.0</text>
<text text-anchor="start" x="901.5" y="-506.3" font-family="Helvetica,sans-Serif" font-size="14.00">samples = 2</text>
<text text-anchor="start" x="879" y="-491.3" font-family="Helvetica,sans-Serif" font-size="14.00">value = [0, 2, 0, 0]</text>
<text text-anchor="start" x="913" y="-476.3" font-family="Helvetica,sans-Serif" font-size="14.00">class = 1</text>
</g>
<!-- 15&#45;&gt;16 -->
<g id="edge16" class="edge">
<title>15&#45;&gt;16</title>
<path fill="none" stroke="black" d="M1005.58,-579.91C996.64,-568.54 986.92,-556.18 977.95,-544.77"/>
<polygon fill="black" stroke="black" points="980.51,-542.36 971.58,-536.67 975.01,-546.69 980.51,-542.36"/>
</g>
<!-- 17 -->
<g id="node18" class="node">
<title>17</title>
<path fill="#d73be5" stroke="black" d="M1193,-544C1193,-544 1050,-544 1050,-544 1044,-544 1038,-538 1038,-532 1038,-532 1038,-473 1038,-473 1038,-467 1044,-461 1050,-461 1050,-461 1193,-461 1193,-461 1199,-461 1205,-467 1205,-473 1205,-473 1205,-532 1205,-532 1205,-538 1199,-544 1193,-544"/>
<text text-anchor="start" x="1047.5" y="-528.8" font-family="Helvetica,sans-Serif" font-size="14.00">expert_29_1 ≤ 0.906</text>
<text text-anchor="start" x="1064" y="-513.8" font-family="Helvetica,sans-Serif" font-size="14.00">entropy = 0.065</text>
<text text-anchor="start" x="1068.5" y="-498.8" font-family="Helvetica,sans-Serif" font-size="14.00">samples = 131</text>
<text text-anchor="start" x="1046" y="-483.8" font-family="Helvetica,sans-Serif" font-size="14.00">value = [1, 0, 0, 130]</text>
<text text-anchor="start" x="1089" y="-468.8" font-family="Helvetica,sans-Serif" font-size="14.00">class = 4</text>
</g>
<!-- 15&#45;&gt;17 -->
<g id="edge17" class="edge">
<title>15&#45;&gt;17</title>
<path fill="none" stroke="black" d="M1066.64,-579.91C1073.03,-571.01 1079.85,-561.51 1086.44,-552.33"/>
<polygon fill="black" stroke="black" points="1089.42,-554.19 1092.41,-544.02 1083.73,-550.1 1089.42,-554.19"/>
</g>
<!-- 18 -->
<g id="node19" class="node">
<title>18</title>
<path fill="#d739e5" stroke="black" d="M1110,-417.5C1110,-417.5 967,-417.5 967,-417.5 961,-417.5 955,-411.5 955,-405.5 955,-405.5 955,-361.5 955,-361.5 955,-355.5 961,-349.5 967,-349.5 967,-349.5 1110,-349.5 1110,-349.5 1116,-349.5 1122,-355.5 1122,-361.5 1122,-361.5 1122,-405.5 1122,-405.5 1122,-411.5 1116,-417.5 1110,-417.5"/>
<text text-anchor="start" x="990" y="-402.3" font-family="Helvetica,sans-Serif" font-size="14.00">entropy = 0.0</text>
<text text-anchor="start" x="985.5" y="-387.3" font-family="Helvetica,sans-Serif" font-size="14.00">samples = 129</text>
<text text-anchor="start" x="963" y="-372.3" font-family="Helvetica,sans-Serif" font-size="14.00">value = [0, 0, 0, 129]</text>
<text text-anchor="start" x="1006" y="-357.3" font-family="Helvetica,sans-Serif" font-size="14.00">class = 4</text>
</g>
<!-- 17&#45;&gt;18 -->
<g id="edge18" class="edge">
<title>17&#45;&gt;18</title>
<path fill="none" stroke="black" d="M1092.7,-460.91C1084.72,-449.65 1076.04,-437.42 1068.02,-426.11"/>
<polygon fill="black" stroke="black" points="1070.67,-423.8 1062.03,-417.67 1064.96,-427.85 1070.67,-423.8"/>
</g>
<!-- 19 -->
<g id="node20" class="node">
<title>19</title>
<path fill="#ffffff" stroke="black" d="M1277,-417.5C1277,-417.5 1152,-417.5 1152,-417.5 1146,-417.5 1140,-411.5 1140,-405.5 1140,-405.5 1140,-361.5 1140,-361.5 1140,-355.5 1146,-349.5 1152,-349.5 1152,-349.5 1277,-349.5 1277,-349.5 1283,-349.5 1289,-355.5 1289,-361.5 1289,-361.5 1289,-405.5 1289,-405.5 1289,-411.5 1283,-417.5 1277,-417.5"/>
<text text-anchor="start" x="1166" y="-402.3" font-family="Helvetica,sans-Serif" font-size="14.00">entropy = 1.0</text>
<text text-anchor="start" x="1170.5" y="-387.3" font-family="Helvetica,sans-Serif" font-size="14.00">samples = 2</text>
<text text-anchor="start" x="1148" y="-372.3" font-family="Helvetica,sans-Serif" font-size="14.00">value = [1, 0, 0, 1]</text>
<text text-anchor="start" x="1182" y="-357.3" font-family="Helvetica,sans-Serif" font-size="14.00">class = 0</text>
</g>
<!-- 17&#45;&gt;19 -->
<g id="edge19" class="edge">
<title>17&#45;&gt;19</title>
<path fill="none" stroke="black" d="M1153.77,-460.91C1162.8,-449.54 1172.63,-437.18 1181.69,-425.77"/>
<polygon fill="black" stroke="black" points="1184.65,-427.67 1188.14,-417.67 1179.17,-423.32 1184.65,-427.67"/>
</g>
<!-- 21 -->
<g id="node22" class="node">
<title>21</title>
<path fill="#5ee852" stroke="black" d="M1555.5,-663C1555.5,-663 1403.5,-663 1403.5,-663 1397.5,-663 1391.5,-657 1391.5,-651 1391.5,-651 1391.5,-592 1391.5,-592 1391.5,-586 1397.5,-580 1403.5,-580 1403.5,-580 1555.5,-580 1555.5,-580 1561.5,-580 1567.5,-586 1567.5,-592 1567.5,-592 1567.5,-651 1567.5,-651 1567.5,-657 1561.5,-663 1555.5,-663"/>
<text text-anchor="start" x="1405.5" y="-647.8" font-family="Helvetica,sans-Serif" font-size="14.00">expert_10_0 ≤ 0.668</text>
<text text-anchor="start" x="1422" y="-632.8" font-family="Helvetica,sans-Serif" font-size="14.00">entropy = 0.657</text>
<text text-anchor="start" x="1426.5" y="-617.8" font-family="Helvetica,sans-Serif" font-size="14.00">samples = 156</text>
<text text-anchor="start" x="1399.5" y="-602.8" font-family="Helvetica,sans-Serif" font-size="14.00">value = [4, 138, 12, 2]</text>
<text text-anchor="start" x="1447" y="-587.8" font-family="Helvetica,sans-Serif" font-size="14.00">class = 1</text>
</g>
<!-- 20&#45;&gt;21 -->
<g id="edge21" class="edge">
<title>20&#45;&gt;21</title>
<path fill="none" stroke="black" d="M1479.5,-698.91C1479.5,-690.65 1479.5,-681.86 1479.5,-673.3"/>
<polygon fill="black" stroke="black" points="1483,-673.02 1479.5,-663.02 1476,-673.02 1483,-673.02"/>
</g>
<!-- 34 -->
<g id="node35" class="node">
<title>34</title>
<path fill="#43a2e6" stroke="black" d="M1830,-663C1830,-663 1687,-663 1687,-663 1681,-663 1675,-657 1675,-651 1675,-651 1675,-592 1675,-592 1675,-586 1681,-580 1687,-580 1687,-580 1830,-580 1830,-580 1836,-580 1842,-586 1842,-592 1842,-592 1842,-651 1842,-651 1842,-657 1836,-663 1830,-663"/>
<text text-anchor="start" x="1684.5" y="-647.8" font-family="Helvetica,sans-Serif" font-size="14.00">expert_22_0 ≤ 1.517</text>
<text text-anchor="start" x="1701" y="-632.8" font-family="Helvetica,sans-Serif" font-size="14.00">entropy = 0.276</text>
<text text-anchor="start" x="1705.5" y="-617.8" font-family="Helvetica,sans-Serif" font-size="14.00">samples = 105</text>
<text text-anchor="start" x="1683" y="-602.8" font-family="Helvetica,sans-Serif" font-size="14.00">value = [0, 5, 100, 0]</text>
<text text-anchor="start" x="1726" y="-587.8" font-family="Helvetica,sans-Serif" font-size="14.00">class = 2</text>
</g>
<!-- 20&#45;&gt;34 -->
<g id="edge34" class="edge">
<title>20&#45;&gt;34</title>
<path fill="none" stroke="black" d="M1572.02,-700.7C1602.06,-688.1 1635.4,-674.12 1665.48,-661.51"/>
<polygon fill="black" stroke="black" points="1666.83,-664.74 1674.7,-657.64 1664.12,-658.28 1666.83,-664.74"/>
</g>
<!-- 22 -->
<g id="node23" class="node">
<title>22</title>
<path fill="#deeffb" stroke="black" d="M1459.5,-544C1459.5,-544 1319.5,-544 1319.5,-544 1313.5,-544 1307.5,-538 1307.5,-532 1307.5,-532 1307.5,-473 1307.5,-473 1307.5,-467 1313.5,-461 1319.5,-461 1319.5,-461 1459.5,-461 1459.5,-461 1465.5,-461 1471.5,-467 1471.5,-473 1471.5,-473 1471.5,-532 1471.5,-532 1471.5,-538 1465.5,-544 1459.5,-544"/>
<text text-anchor="start" x="1315.5" y="-528.8" font-family="Helvetica,sans-Serif" font-size="14.00">expert_29_0 ≤ 0.774</text>
<text text-anchor="start" x="1332" y="-513.8" font-family="Helvetica,sans-Serif" font-size="14.00">entropy = 1.735</text>
<text text-anchor="start" x="1341" y="-498.8" font-family="Helvetica,sans-Serif" font-size="14.00">samples = 27</text>
<text text-anchor="start" x="1318.5" y="-483.8" font-family="Helvetica,sans-Serif" font-size="14.00">value = [4, 9, 12, 2]</text>
<text text-anchor="start" x="1357" y="-468.8" font-family="Helvetica,sans-Serif" font-size="14.00">class = 2</text>
</g>
<!-- 21&#45;&gt;22 -->
<g id="edge22" class="edge">
<title>21&#45;&gt;22</title>
<path fill="none" stroke="black" d="M1448.27,-579.91C1441.36,-570.92 1433.97,-561.32 1426.85,-552.05"/>
<polygon fill="black" stroke="black" points="1429.54,-549.81 1420.67,-544.02 1423.99,-554.08 1429.54,-549.81"/>
</g>
<!-- 33 -->
<g id="node34" class="node">
<title>33</title>
<path fill="#47e539" stroke="black" d="M1645,-536.5C1645,-536.5 1502,-536.5 1502,-536.5 1496,-536.5 1490,-530.5 1490,-524.5 1490,-524.5 1490,-480.5 1490,-480.5 1490,-474.5 1496,-468.5 1502,-468.5 1502,-468.5 1645,-468.5 1645,-468.5 1651,-468.5 1657,-474.5 1657,-480.5 1657,-480.5 1657,-524.5 1657,-524.5 1657,-530.5 1651,-536.5 1645,-536.5"/>
<text text-anchor="start" x="1525" y="-521.3" font-family="Helvetica,sans-Serif" font-size="14.00">entropy = 0.0</text>
<text text-anchor="start" x="1520.5" y="-506.3" font-family="Helvetica,sans-Serif" font-size="14.00">samples = 129</text>
<text text-anchor="start" x="1498" y="-491.3" font-family="Helvetica,sans-Serif" font-size="14.00">value = [0, 129, 0, 0]</text>
<text text-anchor="start" x="1541" y="-476.3" font-family="Helvetica,sans-Serif" font-size="14.00">class = 1</text>
</g>
<!-- 21&#45;&gt;33 -->
<g id="edge33" class="edge">
<title>21&#45;&gt;33</title>
<path fill="none" stroke="black" d="M1512.11,-579.91C1521.24,-568.54 1531.18,-556.18 1540.34,-544.77"/>
<polygon fill="black" stroke="black" points="1543.32,-546.65 1546.85,-536.67 1537.86,-542.27 1543.32,-546.65"/>
</g>
<!-- 23 -->
<g id="node24" class="node">
<title>23</title>
<path fill="#d5eaf9" stroke="black" d="M1459.5,-425C1459.5,-425 1319.5,-425 1319.5,-425 1313.5,-425 1307.5,-419 1307.5,-413 1307.5,-413 1307.5,-354 1307.5,-354 1307.5,-348 1313.5,-342 1319.5,-342 1319.5,-342 1459.5,-342 1459.5,-342 1465.5,-342 1471.5,-348 1471.5,-354 1471.5,-354 1471.5,-413 1471.5,-413 1471.5,-419 1465.5,-425 1459.5,-425"/>
<text text-anchor="start" x="1315.5" y="-409.8" font-family="Helvetica,sans-Serif" font-size="14.00">expert_29_1 ≤ 0.069</text>
<text text-anchor="start" x="1332" y="-394.8" font-family="Helvetica,sans-Serif" font-size="14.00">entropy = 1.326</text>
<text text-anchor="start" x="1341" y="-379.8" font-family="Helvetica,sans-Serif" font-size="14.00">samples = 23</text>
<text text-anchor="start" x="1318.5" y="-364.8" font-family="Helvetica,sans-Serif" font-size="14.00">value = [0, 9, 12, 2]</text>
<text text-anchor="start" x="1357" y="-349.8" font-family="Helvetica,sans-Serif" font-size="14.00">class = 2</text>
</g>
<!-- 22&#45;&gt;23 -->
<g id="edge23" class="edge">
<title>22&#45;&gt;23</title>
<path fill="none" stroke="black" d="M1389.5,-460.91C1389.5,-452.65 1389.5,-443.86 1389.5,-435.3"/>
<polygon fill="black" stroke="black" points="1393,-435.02 1389.5,-425.02 1386,-435.02 1393,-435.02"/>
</g>
<!-- 32 -->
<g id="node33" class="node">
<title>32</title>
<path fill="#e58139" stroke="black" d="M1627,-417.5C1627,-417.5 1502,-417.5 1502,-417.5 1496,-417.5 1490,-411.5 1490,-405.5 1490,-405.5 1490,-361.5 1490,-361.5 1490,-355.5 1496,-349.5 1502,-349.5 1502,-349.5 1627,-349.5 1627,-349.5 1633,-349.5 1639,-355.5 1639,-361.5 1639,-361.5 1639,-405.5 1639,-405.5 1639,-411.5 1633,-417.5 1627,-417.5"/>
<text text-anchor="start" x="1516" y="-402.3" font-family="Helvetica,sans-Serif" font-size="14.00">entropy = 0.0</text>
<text text-anchor="start" x="1520.5" y="-387.3" font-family="Helvetica,sans-Serif" font-size="14.00">samples = 4</text>
<text text-anchor="start" x="1498" y="-372.3" font-family="Helvetica,sans-Serif" font-size="14.00">value = [4, 0, 0, 0]</text>
<text text-anchor="start" x="1532" y="-357.3" font-family="Helvetica,sans-Serif" font-size="14.00">class = 0</text>
</g>
<!-- 22&#45;&gt;32 -->
<g id="edge32" class="edge">
<title>22&#45;&gt;32</title>
<path fill="none" stroke="black" d="M1450.22,-460.91C1468.37,-448.77 1488.23,-435.49 1506.22,-423.46"/>
<polygon fill="black" stroke="black" points="1508.52,-426.13 1514.89,-417.67 1504.63,-420.32 1508.52,-426.13"/>
</g>
<!-- 24 -->
<g id="node25" class="node">
<title>24</title>
<path fill="#d6f9d3" stroke="black" d="M1368.5,-306C1368.5,-306 1228.5,-306 1228.5,-306 1222.5,-306 1216.5,-300 1216.5,-294 1216.5,-294 1216.5,-235 1216.5,-235 1216.5,-229 1222.5,-223 1228.5,-223 1228.5,-223 1368.5,-223 1368.5,-223 1374.5,-223 1380.5,-229 1380.5,-235 1380.5,-235 1380.5,-294 1380.5,-294 1380.5,-300 1374.5,-306 1368.5,-306"/>
<text text-anchor="start" x="1224.5" y="-290.8" font-family="Helvetica,sans-Serif" font-size="14.00">expert_19_1 ≤ 1.354</text>
<text text-anchor="start" x="1241" y="-275.8" font-family="Helvetica,sans-Serif" font-size="14.00">entropy = 0.989</text>
<text text-anchor="start" x="1250" y="-260.8" font-family="Helvetica,sans-Serif" font-size="14.00">samples = 16</text>
<text text-anchor="start" x="1232" y="-245.8" font-family="Helvetica,sans-Serif" font-size="14.00">value = [0, 9, 7, 0]</text>
<text text-anchor="start" x="1266" y="-230.8" font-family="Helvetica,sans-Serif" font-size="14.00">class = 1</text>
</g>
<!-- 23&#45;&gt;24 -->
<g id="edge24" class="edge">
<title>23&#45;&gt;24</title>
<path fill="none" stroke="black" d="M1357.93,-341.91C1350.94,-332.92 1343.47,-323.32 1336.26,-314.05"/>
<polygon fill="black" stroke="black" points="1338.92,-311.77 1330.02,-306.02 1333.39,-316.06 1338.92,-311.77"/>
</g>
<!-- 29 -->
<g id="node30" class="node">
<title>29</title>
<path fill="#88c4ef" stroke="black" d="M1550.5,-306C1550.5,-306 1410.5,-306 1410.5,-306 1404.5,-306 1398.5,-300 1398.5,-294 1398.5,-294 1398.5,-235 1398.5,-235 1398.5,-229 1404.5,-223 1410.5,-223 1410.5,-223 1550.5,-223 1550.5,-223 1556.5,-223 1562.5,-229 1562.5,-235 1562.5,-235 1562.5,-294 1562.5,-294 1562.5,-300 1556.5,-306 1550.5,-306"/>
<text text-anchor="start" x="1406.5" y="-290.8" font-family="Helvetica,sans-Serif" font-size="14.00">expert_12_1 ≤ 0.604</text>
<text text-anchor="start" x="1423" y="-275.8" font-family="Helvetica,sans-Serif" font-size="14.00">entropy = 0.863</text>
<text text-anchor="start" x="1436.5" y="-260.8" font-family="Helvetica,sans-Serif" font-size="14.00">samples = 7</text>
<text text-anchor="start" x="1414" y="-245.8" font-family="Helvetica,sans-Serif" font-size="14.00">value = [0, 0, 5, 2]</text>
<text text-anchor="start" x="1448" y="-230.8" font-family="Helvetica,sans-Serif" font-size="14.00">class = 2</text>
</g>
<!-- 23&#45;&gt;29 -->
<g id="edge29" class="edge">
<title>23&#45;&gt;29</title>
<path fill="none" stroke="black" d="M1421.07,-341.91C1428.06,-332.92 1435.53,-323.32 1442.74,-314.05"/>
<polygon fill="black" stroke="black" points="1445.61,-316.06 1448.98,-306.02 1440.08,-311.77 1445.61,-316.06"/>
</g>
<!-- 25 -->
<g id="node26" class="node">
<title>25</title>
<path fill="#47e539" stroke="black" d="M1188,-179.5C1188,-179.5 1063,-179.5 1063,-179.5 1057,-179.5 1051,-173.5 1051,-167.5 1051,-167.5 1051,-123.5 1051,-123.5 1051,-117.5 1057,-111.5 1063,-111.5 1063,-111.5 1188,-111.5 1188,-111.5 1194,-111.5 1200,-117.5 1200,-123.5 1200,-123.5 1200,-167.5 1200,-167.5 1200,-173.5 1194,-179.5 1188,-179.5"/>
<text text-anchor="start" x="1077" y="-164.3" font-family="Helvetica,sans-Serif" font-size="14.00">entropy = 0.0</text>
<text text-anchor="start" x="1081.5" y="-149.3" font-family="Helvetica,sans-Serif" font-size="14.00">samples = 8</text>
<text text-anchor="start" x="1059" y="-134.3" font-family="Helvetica,sans-Serif" font-size="14.00">value = [0, 8, 0, 0]</text>
<text text-anchor="start" x="1093" y="-119.3" font-family="Helvetica,sans-Serif" font-size="14.00">class = 1</text>
</g>
<!-- 24&#45;&gt;25 -->
<g id="edge25" class="edge">
<title>24&#45;&gt;25</title>
<path fill="none" stroke="black" d="M1238.48,-222.91C1220.53,-210.77 1200.9,-197.49 1183.11,-185.46"/>
<polygon fill="black" stroke="black" points="1184.79,-182.37 1174.54,-179.67 1180.86,-188.17 1184.79,-182.37"/>
</g>
<!-- 26 -->
<g id="node27" class="node">
<title>26</title>
<path fill="#55abe9" stroke="black" d="M1370.5,-187C1370.5,-187 1230.5,-187 1230.5,-187 1224.5,-187 1218.5,-181 1218.5,-175 1218.5,-175 1218.5,-116 1218.5,-116 1218.5,-110 1224.5,-104 1230.5,-104 1230.5,-104 1370.5,-104 1370.5,-104 1376.5,-104 1382.5,-110 1382.5,-116 1382.5,-116 1382.5,-175 1382.5,-175 1382.5,-181 1376.5,-187 1370.5,-187"/>
<text text-anchor="start" x="1226.5" y="-171.8" font-family="Helvetica,sans-Serif" font-size="14.00">expert_29_0 ≤ 0.127</text>
<text text-anchor="start" x="1243" y="-156.8" font-family="Helvetica,sans-Serif" font-size="14.00">entropy = 0.544</text>
<text text-anchor="start" x="1256.5" y="-141.8" font-family="Helvetica,sans-Serif" font-size="14.00">samples = 8</text>
<text text-anchor="start" x="1234" y="-126.8" font-family="Helvetica,sans-Serif" font-size="14.00">value = [0, 1, 7, 0]</text>
<text text-anchor="start" x="1268" y="-111.8" font-family="Helvetica,sans-Serif" font-size="14.00">class = 2</text>
</g>
<!-- 24&#45;&gt;26 -->
<g id="edge26" class="edge">
<title>24&#45;&gt;26</title>
<path fill="none" stroke="black" d="M1299.19,-222.91C1299.34,-214.56 1299.49,-205.67 1299.64,-197.02"/>
<polygon fill="black" stroke="black" points="1303.14,-197.08 1299.81,-187.02 1296.14,-196.96 1303.14,-197.08"/>
</g>
<!-- 27 -->
<g id="node28" class="node">
<title>27</title>
<path fill="#399de5" stroke="black" d="M1280,-68C1280,-68 1155,-68 1155,-68 1149,-68 1143,-62 1143,-56 1143,-56 1143,-12 1143,-12 1143,-6 1149,0 1155,0 1155,0 1280,0 1280,0 1286,0 1292,-6 1292,-12 1292,-12 1292,-56 1292,-56 1292,-62 1286,-68 1280,-68"/>
<text text-anchor="start" x="1169" y="-52.8" font-family="Helvetica,sans-Serif" font-size="14.00">entropy = 0.0</text>
<text text-anchor="start" x="1173.5" y="-37.8" font-family="Helvetica,sans-Serif" font-size="14.00">samples = 6</text>
<text text-anchor="start" x="1151" y="-22.8" font-family="Helvetica,sans-Serif" font-size="14.00">value = [0, 0, 6, 0]</text>
<text text-anchor="start" x="1185" y="-7.8" font-family="Helvetica,sans-Serif" font-size="14.00">class = 2</text>
</g>
<!-- 26&#45;&gt;27 -->
<g id="edge27" class="edge">
<title>26&#45;&gt;27</title>
<path fill="none" stroke="black" d="M1269.59,-103.73C1262.82,-94.79 1255.64,-85.32 1248.85,-76.36"/>
<polygon fill="black" stroke="black" points="1251.57,-74.15 1242.74,-68.3 1245.99,-78.38 1251.57,-74.15"/>
</g>
<!-- 28 -->
<g id="node29" class="node">
<title>28</title>
<path fill="#ffffff" stroke="black" d="M1447,-68C1447,-68 1322,-68 1322,-68 1316,-68 1310,-62 1310,-56 1310,-56 1310,-12 1310,-12 1310,-6 1316,0 1322,0 1322,0 1447,0 1447,0 1453,0 1459,-6 1459,-12 1459,-12 1459,-56 1459,-56 1459,-62 1453,-68 1447,-68"/>
<text text-anchor="start" x="1336" y="-52.8" font-family="Helvetica,sans-Serif" font-size="14.00">entropy = 1.0</text>
<text text-anchor="start" x="1340.5" y="-37.8" font-family="Helvetica,sans-Serif" font-size="14.00">samples = 2</text>
<text text-anchor="start" x="1318" y="-22.8" font-family="Helvetica,sans-Serif" font-size="14.00">value = [0, 1, 1, 0]</text>
<text text-anchor="start" x="1352" y="-7.8" font-family="Helvetica,sans-Serif" font-size="14.00">class = 1</text>
</g>
<!-- 26&#45;&gt;28 -->
<g id="edge28" class="edge">
<title>26&#45;&gt;28</title>
<path fill="none" stroke="black" d="M1331.78,-103.73C1338.64,-94.79 1345.9,-85.32 1352.78,-76.36"/>
<polygon fill="black" stroke="black" points="1355.65,-78.36 1358.96,-68.3 1350.09,-74.1 1355.65,-78.36"/>
</g>
<!-- 30 -->
<g id="node31" class="node">
<title>30</title>
<path fill="#d739e5" stroke="black" d="M1541,-179.5C1541,-179.5 1416,-179.5 1416,-179.5 1410,-179.5 1404,-173.5 1404,-167.5 1404,-167.5 1404,-123.5 1404,-123.5 1404,-117.5 1410,-111.5 1416,-111.5 1416,-111.5 1541,-111.5 1541,-111.5 1547,-111.5 1553,-117.5 1553,-123.5 1553,-123.5 1553,-167.5 1553,-167.5 1553,-173.5 1547,-179.5 1541,-179.5"/>
<text text-anchor="start" x="1430" y="-164.3" font-family="Helvetica,sans-Serif" font-size="14.00">entropy = 0.0</text>
<text text-anchor="start" x="1434.5" y="-149.3" font-family="Helvetica,sans-Serif" font-size="14.00">samples = 2</text>
<text text-anchor="start" x="1412" y="-134.3" font-family="Helvetica,sans-Serif" font-size="14.00">value = [0, 0, 0, 2]</text>
<text text-anchor="start" x="1446" y="-119.3" font-family="Helvetica,sans-Serif" font-size="14.00">class = 4</text>
</g>
<!-- 29&#45;&gt;30 -->
<g id="edge30" class="edge">
<title>29&#45;&gt;30</title>
<path fill="none" stroke="black" d="M1479.81,-222.91C1479.62,-212.2 1479.43,-200.62 1479.24,-189.78"/>
<polygon fill="black" stroke="black" points="1482.74,-189.61 1479.07,-179.67 1475.74,-189.73 1482.74,-189.61"/>
</g>
<!-- 31 -->
<g id="node32" class="node">
<title>31</title>
<path fill="#399de5" stroke="black" d="M1708,-179.5C1708,-179.5 1583,-179.5 1583,-179.5 1577,-179.5 1571,-173.5 1571,-167.5 1571,-167.5 1571,-123.5 1571,-123.5 1571,-117.5 1577,-111.5 1583,-111.5 1583,-111.5 1708,-111.5 1708,-111.5 1714,-111.5 1720,-117.5 1720,-123.5 1720,-123.5 1720,-167.5 1720,-167.5 1720,-173.5 1714,-179.5 1708,-179.5"/>
<text text-anchor="start" x="1597" y="-164.3" font-family="Helvetica,sans-Serif" font-size="14.00">entropy = 0.0</text>
<text text-anchor="start" x="1601.5" y="-149.3" font-family="Helvetica,sans-Serif" font-size="14.00">samples = 5</text>
<text text-anchor="start" x="1579" y="-134.3" font-family="Helvetica,sans-Serif" font-size="14.00">value = [0, 0, 5, 0]</text>
<text text-anchor="start" x="1613" y="-119.3" font-family="Helvetica,sans-Serif" font-size="14.00">class = 2</text>
</g>
<!-- 29&#45;&gt;31 -->
<g id="edge31" class="edge">
<title>29&#45;&gt;31</title>
<path fill="none" stroke="black" d="M1537.75,-222.91C1554.86,-210.77 1573.59,-197.49 1590.55,-185.46"/>
<polygon fill="black" stroke="black" points="1592.59,-188.31 1598.73,-179.67 1588.54,-182.6 1592.59,-188.31"/>
</g>
<!-- 35 -->
<g id="node36" class="node">
<title>35</title>
<path fill="#399de5" stroke="black" d="M1830,-536.5C1830,-536.5 1687,-536.5 1687,-536.5 1681,-536.5 1675,-530.5 1675,-524.5 1675,-524.5 1675,-480.5 1675,-480.5 1675,-474.5 1681,-468.5 1687,-468.5 1687,-468.5 1830,-468.5 1830,-468.5 1836,-468.5 1842,-474.5 1842,-480.5 1842,-480.5 1842,-524.5 1842,-524.5 1842,-530.5 1836,-536.5 1830,-536.5"/>
<text text-anchor="start" x="1710" y="-521.3" font-family="Helvetica,sans-Serif" font-size="14.00">entropy = 0.0</text>
<text text-anchor="start" x="1705.5" y="-506.3" font-family="Helvetica,sans-Serif" font-size="14.00">samples = 100</text>
<text text-anchor="start" x="1683" y="-491.3" font-family="Helvetica,sans-Serif" font-size="14.00">value = [0, 0, 100, 0]</text>
<text text-anchor="start" x="1726" y="-476.3" font-family="Helvetica,sans-Serif" font-size="14.00">class = 2</text>
</g>
<!-- 34&#45;&gt;35 -->
<g id="edge35" class="edge">
<title>34&#45;&gt;35</title>
<path fill="none" stroke="black" d="M1758.5,-579.91C1758.5,-569.2 1758.5,-557.62 1758.5,-546.78"/>
<polygon fill="black" stroke="black" points="1762,-546.67 1758.5,-536.67 1755,-546.67 1762,-546.67"/>
</g>
<!-- 36 -->
<g id="node37" class="node">
<title>36</title>
<path fill="#47e539" stroke="black" d="M1997,-536.5C1997,-536.5 1872,-536.5 1872,-536.5 1866,-536.5 1860,-530.5 1860,-524.5 1860,-524.5 1860,-480.5 1860,-480.5 1860,-474.5 1866,-468.5 1872,-468.5 1872,-468.5 1997,-468.5 1997,-468.5 2003,-468.5 2009,-474.5 2009,-480.5 2009,-480.5 2009,-524.5 2009,-524.5 2009,-530.5 2003,-536.5 1997,-536.5"/>
<text text-anchor="start" x="1886" y="-521.3" font-family="Helvetica,sans-Serif" font-size="14.00">entropy = 0.0</text>
<text text-anchor="start" x="1890.5" y="-506.3" font-family="Helvetica,sans-Serif" font-size="14.00">samples = 5</text>
<text text-anchor="start" x="1868" y="-491.3" font-family="Helvetica,sans-Serif" font-size="14.00">value = [0, 5, 0, 0]</text>
<text text-anchor="start" x="1902" y="-476.3" font-family="Helvetica,sans-Serif" font-size="14.00">class = 1</text>
</g>
<!-- 34&#45;&gt;36 -->
<g id="edge36" class="edge">
<title>34&#45;&gt;36</title>
<path fill="none" stroke="black" d="M1819.56,-579.91C1837.82,-567.77 1857.79,-554.49 1875.89,-542.46"/>
<polygon fill="black" stroke="black" points="1878.22,-545.12 1884.61,-536.67 1874.34,-539.29 1878.22,-545.12"/>
</g>
</g>
</svg>
