<?xml version="1.0" encoding="UTF-8" standalone="no"?>
<!DOCTYPE svg PUBLIC "-//W3C//DTD SVG 1.1//EN"
 "http://www.w3.org/Graphics/SVG/1.1/DTD/svg11.dtd">
<!-- Generated by graphviz version 2.43.0 (0)
 -->
<!-- Title: Tree Pages: 1 -->
<svg width="1213pt" height="790pt"
 viewBox="0.00 0.00 1213.00 790.00" xmlns="http://www.w3.org/2000/svg" xmlns:xlink="http://www.w3.org/1999/xlink">
<g id="graph0" class="graph" transform="scale(1 1) rotate(0) translate(4 786)">
<title>Tree</title>
<polygon fill="white" stroke="transparent" points="-4,4 -4,-786 1209,-786 1209,4 -4,4"/>
<!-- 0 -->
<g id="node1" class="node">
<title>0</title>
<path fill="#fffffe" stroke="black" d="M930,-782C930,-782 733,-782 733,-782 727,-782 721,-776 721,-770 721,-770 721,-711 721,-711 721,-705 727,-699 733,-699 733,-699 930,-699 930,-699 936,-699 942,-705 942,-711 942,-711 942,-770 942,-770 942,-776 936,-782 930,-782"/>
<text text-anchor="start" x="757.5" y="-766.8" font-family="Helvetica,sans-Serif" font-size="14.00">expert_18_1 ≤ 1.406</text>
<text text-anchor="start" x="787.5" y="-751.8" font-family="Helvetica,sans-Serif" font-size="14.00">gini = 0.749</text>
<text text-anchor="start" x="778.5" y="-736.8" font-family="Helvetica,sans-Serif" font-size="14.00">samples = 520</text>
<text text-anchor="start" x="729" y="-721.8" font-family="Helvetica,sans-Serif" font-size="14.00">value = [136, 137, 117, 130]</text>
<text text-anchor="start" x="799" y="-706.8" font-family="Helvetica,sans-Serif" font-size="14.00">class = 1</text>
</g>
<!-- 1 -->
<g id="node2" class="node">
<title>1</title>
<path fill="#fbfefa" stroke="black" d="M822.5,-663C822.5,-663 634.5,-663 634.5,-663 628.5,-663 622.5,-657 622.5,-651 622.5,-651 622.5,-592 622.5,-592 622.5,-586 628.5,-580 634.5,-580 634.5,-580 822.5,-580 822.5,-580 828.5,-580 834.5,-586 834.5,-592 834.5,-592 834.5,-651 834.5,-651 834.5,-657 828.5,-663 822.5,-663"/>
<text text-anchor="start" x="659" y="-647.8" font-family="Helvetica,sans-Serif" font-size="14.00">expert_4_1 ≤ 1.336</text>
<text text-anchor="start" x="684.5" y="-632.8" font-family="Helvetica,sans-Serif" font-size="14.00">gini = 0.688</text>
<text text-anchor="start" x="675.5" y="-617.8" font-family="Helvetica,sans-Serif" font-size="14.00">samples = 391</text>
<text text-anchor="start" x="630.5" y="-602.8" font-family="Helvetica,sans-Serif" font-size="14.00">value = [14, 133, 117, 127]</text>
<text text-anchor="start" x="696" y="-587.8" font-family="Helvetica,sans-Serif" font-size="14.00">class = 1</text>
</g>
<!-- 0&#45;&gt;1 -->
<g id="edge1" class="edge">
<title>0&#45;&gt;1</title>
<path fill="none" stroke="black" d="M795.76,-698.91C787.78,-689.83 779.23,-680.12 770.99,-670.77"/>
<polygon fill="black" stroke="black" points="773.41,-668.21 764.17,-663.02 768.15,-672.84 773.41,-668.21"/>
<text text-anchor="middle" x="762.58" y="-684.27" font-family="Helvetica,sans-Serif" font-size="14.00">True</text>
</g>
<!-- 22 -->
<g id="node23" class="node">
<title>22</title>
<path fill="#e68844" stroke="black" d="M1007,-663C1007,-663 864,-663 864,-663 858,-663 852,-657 852,-651 852,-651 852,-592 852,-592 852,-586 858,-580 864,-580 864,-580 1007,-580 1007,-580 1013,-580 1019,-586 1019,-592 1019,-592 1019,-651 1019,-651 1019,-657 1013,-663 1007,-663"/>
<text text-anchor="start" x="866" y="-647.8" font-family="Helvetica,sans-Serif" font-size="14.00">expert_4_2 ≤ 12.17</text>
<text text-anchor="start" x="891.5" y="-632.8" font-family="Helvetica,sans-Serif" font-size="14.00">gini = 0.104</text>
<text text-anchor="start" x="882.5" y="-617.8" font-family="Helvetica,sans-Serif" font-size="14.00">samples = 129</text>
<text text-anchor="start" x="860" y="-602.8" font-family="Helvetica,sans-Serif" font-size="14.00">value = [122, 4, 0, 3]</text>
<text text-anchor="start" x="903" y="-587.8" font-family="Helvetica,sans-Serif" font-size="14.00">class = 0</text>
</g>
<!-- 0&#45;&gt;22 -->
<g id="edge22" class="edge">
<title>0&#45;&gt;22</title>
<path fill="none" stroke="black" d="M867.58,-698.91C875.65,-689.83 884.28,-680.12 892.59,-670.77"/>
<polygon fill="black" stroke="black" points="895.45,-672.82 899.48,-663.02 890.22,-668.17 895.45,-672.82"/>
<text text-anchor="middle" x="900.95" y="-684.28" font-family="Helvetica,sans-Serif" font-size="14.00">False</text>
</g>
<!-- 2 -->
<g id="node3" class="node">
<title>2</title>
<path fill="#4da7e8" stroke="black" d="M572,-544C572,-544 429,-544 429,-544 423,-544 417,-538 417,-532 417,-532 417,-473 417,-473 417,-467 423,-461 429,-461 429,-461 572,-461 572,-461 578,-461 584,-467 584,-473 584,-473 584,-532 584,-532 584,-538 578,-544 572,-544"/>
<text text-anchor="start" x="426.5" y="-528.8" font-family="Helvetica,sans-Serif" font-size="14.00">expert_12_1 ≤ 8.914</text>
<text text-anchor="start" x="456.5" y="-513.8" font-family="Helvetica,sans-Serif" font-size="14.00">gini = 0.181</text>
<text text-anchor="start" x="447.5" y="-498.8" font-family="Helvetica,sans-Serif" font-size="14.00">samples = 123</text>
<text text-anchor="start" x="425" y="-483.8" font-family="Helvetica,sans-Serif" font-size="14.00">value = [5, 7, 111, 0]</text>
<text text-anchor="start" x="468" y="-468.8" font-family="Helvetica,sans-Serif" font-size="14.00">class = 2</text>
</g>
<!-- 1&#45;&gt;2 -->
<g id="edge2" class="edge">
<title>1&#45;&gt;2</title>
<path fill="none" stroke="black" d="M649.4,-579.91C629.77,-569.83 608.61,-558.98 588.58,-548.7"/>
<polygon fill="black" stroke="black" points="589.96,-545.47 579.46,-544.02 586.76,-551.7 589.96,-545.47"/>
</g>
<!-- 11 -->
<g id="node12" class="node">
<title>11</title>
<path fill="#fffeff" stroke="black" d="M813,-544C813,-544 652,-544 652,-544 646,-544 640,-538 640,-532 640,-532 640,-473 640,-473 640,-467 646,-461 652,-461 652,-461 813,-461 813,-461 819,-461 825,-467 825,-473 825,-473 825,-532 825,-532 825,-538 819,-544 813,-544"/>
<text text-anchor="start" x="658.5" y="-528.8" font-family="Helvetica,sans-Serif" font-size="14.00">expert_0_2 ≤ 18.049</text>
<text text-anchor="start" x="688.5" y="-513.8" font-family="Helvetica,sans-Serif" font-size="14.00">gini = 0.553</text>
<text text-anchor="start" x="679.5" y="-498.8" font-family="Helvetica,sans-Serif" font-size="14.00">samples = 268</text>
<text text-anchor="start" x="648" y="-483.8" font-family="Helvetica,sans-Serif" font-size="14.00">value = [9, 126, 6, 127]</text>
<text text-anchor="start" x="700" y="-468.8" font-family="Helvetica,sans-Serif" font-size="14.00">class = 3</text>
</g>
<!-- 1&#45;&gt;11 -->
<g id="edge11" class="edge">
<title>1&#45;&gt;11</title>
<path fill="none" stroke="black" d="M729.89,-579.91C730.17,-571.56 730.48,-562.67 730.77,-554.02"/>
<polygon fill="black" stroke="black" points="734.27,-554.13 731.11,-544.02 727.27,-553.9 734.27,-554.13"/>
</g>
<!-- 3 -->
<g id="node4" class="node">
<title>3</title>
<path fill="#47a4e7" stroke="black" d="M322,-425C322,-425 179,-425 179,-425 173,-425 167,-419 167,-413 167,-413 167,-354 167,-354 167,-348 173,-342 179,-342 179,-342 322,-342 322,-342 328,-342 334,-348 334,-354 334,-354 334,-413 334,-413 334,-419 328,-425 322,-425"/>
<text text-anchor="start" x="176.5" y="-409.8" font-family="Helvetica,sans-Serif" font-size="14.00">expert_10_2 ≤ 0.481</text>
<text text-anchor="start" x="206.5" y="-394.8" font-family="Helvetica,sans-Serif" font-size="14.00">gini = 0.128</text>
<text text-anchor="start" x="197.5" y="-379.8" font-family="Helvetica,sans-Serif" font-size="14.00">samples = 119</text>
<text text-anchor="start" x="175" y="-364.8" font-family="Helvetica,sans-Serif" font-size="14.00">value = [5, 3, 111, 0]</text>
<text text-anchor="start" x="218" y="-349.8" font-family="Helvetica,sans-Serif" font-size="14.00">class = 2</text>
</g>
<!-- 2&#45;&gt;3 -->
<g id="edge3" class="edge">
<title>2&#45;&gt;3</title>
<path fill="none" stroke="black" d="M416.91,-462.38C393.24,-451.3 367.35,-439.19 343.18,-427.88"/>
<polygon fill="black" stroke="black" points="344.56,-424.65 334.02,-423.59 341.59,-430.99 344.56,-424.65"/>
</g>
<!-- 10 -->
<g id="node11" class="node">
<title>10</title>
<path fill="#47e539" stroke="black" d="M563,-417.5C563,-417.5 438,-417.5 438,-417.5 432,-417.5 426,-411.5 426,-405.5 426,-405.5 426,-361.5 426,-361.5 426,-355.5 432,-349.5 438,-349.5 438,-349.5 563,-349.5 563,-349.5 569,-349.5 575,-355.5 575,-361.5 575,-361.5 575,-405.5 575,-405.5 575,-411.5 569,-417.5 563,-417.5"/>
<text text-anchor="start" x="465.5" y="-402.3" font-family="Helvetica,sans-Serif" font-size="14.00">gini = 0.0</text>
<text text-anchor="start" x="456.5" y="-387.3" font-family="Helvetica,sans-Serif" font-size="14.00">samples = 4</text>
<text text-anchor="start" x="434" y="-372.3" font-family="Helvetica,sans-Serif" font-size="14.00">value = [0, 4, 0, 0]</text>
<text text-anchor="start" x="468" y="-357.3" font-family="Helvetica,sans-Serif" font-size="14.00">class = 1</text>
</g>
<!-- 2&#45;&gt;10 -->
<g id="edge10" class="edge">
<title>2&#45;&gt;10</title>
<path fill="none" stroke="black" d="M500.5,-460.91C500.5,-450.2 500.5,-438.62 500.5,-427.78"/>
<polygon fill="black" stroke="black" points="504,-427.67 500.5,-417.67 497,-427.67 504,-427.67"/>
</g>
<!-- 4 -->
<g id="node5" class="node">
<title>4</title>
<path fill="#eeab7b" stroke="black" d="M137,-298.5C137,-298.5 12,-298.5 12,-298.5 6,-298.5 0,-292.5 0,-286.5 0,-286.5 0,-242.5 0,-242.5 0,-236.5 6,-230.5 12,-230.5 12,-230.5 137,-230.5 137,-230.5 143,-230.5 149,-236.5 149,-242.5 149,-242.5 149,-286.5 149,-286.5 149,-292.5 143,-298.5 137,-298.5"/>
<text text-anchor="start" x="30.5" y="-283.3" font-family="Helvetica,sans-Serif" font-size="14.00">gini = 0.375</text>
<text text-anchor="start" x="30.5" y="-268.3" font-family="Helvetica,sans-Serif" font-size="14.00">samples = 4</text>
<text text-anchor="start" x="8" y="-253.3" font-family="Helvetica,sans-Serif" font-size="14.00">value = [3, 1, 0, 0]</text>
<text text-anchor="start" x="42" y="-238.3" font-family="Helvetica,sans-Serif" font-size="14.00">class = 0</text>
</g>
<!-- 3&#45;&gt;4 -->
<g id="edge4" class="edge">
<title>3&#45;&gt;4</title>
<path fill="none" stroke="black" d="M189.44,-341.91C171.18,-329.77 151.21,-316.49 133.11,-304.46"/>
<polygon fill="black" stroke="black" points="134.66,-301.29 124.39,-298.67 130.78,-307.12 134.66,-301.29"/>
</g>
<!-- 5 -->
<g id="node6" class="node">
<title>5</title>
<path fill="#40a0e6" stroke="black" d="M322,-306C322,-306 179,-306 179,-306 173,-306 167,-300 167,-294 167,-294 167,-235 167,-235 167,-229 173,-223 179,-223 179,-223 322,-223 322,-223 328,-223 334,-229 334,-235 334,-235 334,-294 334,-294 334,-300 328,-306 322,-306"/>
<text text-anchor="start" x="181" y="-290.8" font-family="Helvetica,sans-Serif" font-size="14.00">expert_2_0 ≤ 0.181</text>
<text text-anchor="start" x="206.5" y="-275.8" font-family="Helvetica,sans-Serif" font-size="14.00">gini = 0.068</text>
<text text-anchor="start" x="197.5" y="-260.8" font-family="Helvetica,sans-Serif" font-size="14.00">samples = 115</text>
<text text-anchor="start" x="175" y="-245.8" font-family="Helvetica,sans-Serif" font-size="14.00">value = [2, 2, 111, 0]</text>
<text text-anchor="start" x="218" y="-230.8" font-family="Helvetica,sans-Serif" font-size="14.00">class = 2</text>
</g>
<!-- 3&#45;&gt;5 -->
<g id="edge5" class="edge">
<title>3&#45;&gt;5</title>
<path fill="none" stroke="black" d="M250.5,-341.91C250.5,-333.65 250.5,-324.86 250.5,-316.3"/>
<polygon fill="black" stroke="black" points="254,-316.02 250.5,-306.02 247,-316.02 254,-316.02"/>
</g>
<!-- 6 -->
<g id="node7" class="node">
<title>6</title>
<path fill="#f2c09c" stroke="black" d="M137,-179.5C137,-179.5 12,-179.5 12,-179.5 6,-179.5 0,-173.5 0,-167.5 0,-167.5 0,-123.5 0,-123.5 0,-117.5 6,-111.5 12,-111.5 12,-111.5 137,-111.5 137,-111.5 143,-111.5 149,-117.5 149,-123.5 149,-123.5 149,-167.5 149,-167.5 149,-173.5 143,-179.5 137,-179.5"/>
<text text-anchor="start" x="30.5" y="-164.3" font-family="Helvetica,sans-Serif" font-size="14.00">gini = 0.444</text>
<text text-anchor="start" x="30.5" y="-149.3" font-family="Helvetica,sans-Serif" font-size="14.00">samples = 3</text>
<text text-anchor="start" x="8" y="-134.3" font-family="Helvetica,sans-Serif" font-size="14.00">value = [2, 0, 1, 0]</text>
<text text-anchor="start" x="42" y="-119.3" font-family="Helvetica,sans-Serif" font-size="14.00">class = 0</text>
</g>
<!-- 5&#45;&gt;6 -->
<g id="edge6" class="edge">
<title>5&#45;&gt;6</title>
<path fill="none" stroke="black" d="M189.44,-222.91C171.18,-210.77 151.21,-197.49 133.11,-185.46"/>
<polygon fill="black" stroke="black" points="134.66,-182.29 124.39,-179.67 130.78,-188.12 134.66,-182.29"/>
</g>
<!-- 7 -->
<g id="node8" class="node">
<title>7</title>
<path fill="#3d9fe5" stroke="black" d="M322,-187C322,-187 179,-187 179,-187 173,-187 167,-181 167,-175 167,-175 167,-116 167,-116 167,-110 173,-104 179,-104 179,-104 322,-104 322,-104 328,-104 334,-110 334,-116 334,-116 334,-175 334,-175 334,-181 328,-187 322,-187"/>
<text text-anchor="start" x="181" y="-171.8" font-family="Helvetica,sans-Serif" font-size="14.00">expert_22_2 ≤ 1.54</text>
<text text-anchor="start" x="206.5" y="-156.8" font-family="Helvetica,sans-Serif" font-size="14.00">gini = 0.035</text>
<text text-anchor="start" x="197.5" y="-141.8" font-family="Helvetica,sans-Serif" font-size="14.00">samples = 112</text>
<text text-anchor="start" x="175" y="-126.8" font-family="Helvetica,sans-Serif" font-size="14.00">value = [0, 2, 110, 0]</text>
<text text-anchor="start" x="218" y="-111.8" font-family="Helvetica,sans-Serif" font-size="14.00">class = 2</text>
</g>
<!-- 5&#45;&gt;7 -->
<g id="edge7" class="edge">
<title>5&#45;&gt;7</title>
<path fill="none" stroke="black" d="M250.5,-222.91C250.5,-214.65 250.5,-205.86 250.5,-197.3"/>
<polygon fill="black" stroke="black" points="254,-197.02 250.5,-187.02 247,-197.02 254,-197.02"/>
</g>
<!-- 8 -->
<g id="node9" class="node">
<title>8</title>
<path fill="#399de5" stroke="black" d="M234,-68C234,-68 91,-68 91,-68 85,-68 79,-62 79,-56 79,-56 79,-12 79,-12 79,-6 85,0 91,0 91,0 234,0 234,0 240,0 246,-6 246,-12 246,-12 246,-56 246,-56 246,-62 240,-68 234,-68"/>
<text text-anchor="start" x="127.5" y="-52.8" font-family="Helvetica,sans-Serif" font-size="14.00">gini = 0.0</text>
<text text-anchor="start" x="109.5" y="-37.8" font-family="Helvetica,sans-Serif" font-size="14.00">samples = 108</text>
<text text-anchor="start" x="87" y="-22.8" font-family="Helvetica,sans-Serif" font-size="14.00">value = [0, 0, 108, 0]</text>
<text text-anchor="start" x="130" y="-7.8" font-family="Helvetica,sans-Serif" font-size="14.00">class = 2</text>
</g>
<!-- 7&#45;&gt;8 -->
<g id="edge8" class="edge">
<title>7&#45;&gt;8</title>
<path fill="none" stroke="black" d="M217.73,-103.73C210.55,-94.79 202.94,-85.32 195.74,-76.36"/>
<polygon fill="black" stroke="black" points="198.25,-73.9 189.26,-68.3 192.8,-78.29 198.25,-73.9"/>
</g>
<!-- 9 -->
<g id="node10" class="node">
<title>9</title>
<path fill="#ffffff" stroke="black" d="M401,-68C401,-68 276,-68 276,-68 270,-68 264,-62 264,-56 264,-56 264,-12 264,-12 264,-6 270,0 276,0 276,0 401,0 401,0 407,0 413,-6 413,-12 413,-12 413,-56 413,-56 413,-62 407,-68 401,-68"/>
<text text-anchor="start" x="303.5" y="-52.8" font-family="Helvetica,sans-Serif" font-size="14.00">gini = 0.5</text>
<text text-anchor="start" x="294.5" y="-37.8" font-family="Helvetica,sans-Serif" font-size="14.00">samples = 4</text>
<text text-anchor="start" x="272" y="-22.8" font-family="Helvetica,sans-Serif" font-size="14.00">value = [0, 2, 2, 0]</text>
<text text-anchor="start" x="306" y="-7.8" font-family="Helvetica,sans-Serif" font-size="14.00">class = 1</text>
</g>
<!-- 7&#45;&gt;9 -->
<g id="edge9" class="edge">
<title>7&#45;&gt;9</title>
<path fill="none" stroke="black" d="M283.27,-103.73C290.45,-94.79 298.06,-85.32 305.26,-76.36"/>
<polygon fill="black" stroke="black" points="308.2,-78.29 311.74,-68.3 302.75,-73.9 308.2,-78.29"/>
</g>
<!-- 12 -->
<g id="node13" class="node">
<title>12</title>
<path fill="#de5be9" stroke="black" d="M804,-425C804,-425 661,-425 661,-425 655,-425 649,-419 649,-413 649,-413 649,-354 649,-354 649,-348 655,-342 661,-342 661,-342 804,-342 804,-342 810,-342 816,-348 816,-354 816,-354 816,-413 816,-413 816,-419 810,-425 804,-425"/>
<text text-anchor="start" x="663" y="-409.8" font-family="Helvetica,sans-Serif" font-size="14.00">expert_4_2 ≤ 9.334</text>
<text text-anchor="start" x="688.5" y="-394.8" font-family="Helvetica,sans-Serif" font-size="14.00">gini = 0.286</text>
<text text-anchor="start" x="679.5" y="-379.8" font-family="Helvetica,sans-Serif" font-size="14.00">samples = 150</text>
<text text-anchor="start" x="657" y="-364.8" font-family="Helvetica,sans-Serif" font-size="14.00">value = [9, 9, 6, 126]</text>
<text text-anchor="start" x="700" y="-349.8" font-family="Helvetica,sans-Serif" font-size="14.00">class = 3</text>
</g>
<!-- 11&#45;&gt;12 -->
<g id="edge12" class="edge">
<title>11&#45;&gt;12</title>
<path fill="none" stroke="black" d="M732.5,-460.91C732.5,-452.65 732.5,-443.86 732.5,-435.3"/>
<polygon fill="black" stroke="black" points="736,-435.02 732.5,-425.02 729,-435.02 736,-435.02"/>
</g>
<!-- 19 -->
<g id="node20" class="node">
<title>19</title>
<path fill="#49e53b" stroke="black" d="M1026,-425C1026,-425 883,-425 883,-425 877,-425 871,-419 871,-413 871,-413 871,-354 871,-354 871,-348 877,-342 883,-342 883,-342 1026,-342 1026,-342 1032,-342 1038,-348 1038,-354 1038,-354 1038,-413 1038,-413 1038,-419 1032,-425 1026,-425"/>
<text text-anchor="start" x="889.5" y="-409.8" font-family="Helvetica,sans-Serif" font-size="14.00">expert_4_1 ≤ 10.2</text>
<text text-anchor="start" x="910.5" y="-394.8" font-family="Helvetica,sans-Serif" font-size="14.00">gini = 0.017</text>
<text text-anchor="start" x="901.5" y="-379.8" font-family="Helvetica,sans-Serif" font-size="14.00">samples = 118</text>
<text text-anchor="start" x="879" y="-364.8" font-family="Helvetica,sans-Serif" font-size="14.00">value = [0, 117, 0, 1]</text>
<text text-anchor="start" x="922" y="-349.8" font-family="Helvetica,sans-Serif" font-size="14.00">class = 1</text>
</g>
<!-- 11&#45;&gt;19 -->
<g id="edge19" class="edge">
<title>11&#45;&gt;19</title>
<path fill="none" stroke="black" d="M809.52,-460.91C828.64,-450.83 849.24,-439.98 868.74,-429.7"/>
<polygon fill="black" stroke="black" points="870.4,-432.78 877.61,-425.02 867.14,-426.59 870.4,-432.78"/>
</g>
<!-- 13 -->
<g id="node14" class="node">
<title>13</title>
<path fill="#f5fef5" stroke="black" d="M655.5,-306C655.5,-306 515.5,-306 515.5,-306 509.5,-306 503.5,-300 503.5,-294 503.5,-294 503.5,-235 503.5,-235 503.5,-229 509.5,-223 515.5,-223 515.5,-223 655.5,-223 655.5,-223 661.5,-223 667.5,-229 667.5,-235 667.5,-235 667.5,-294 667.5,-294 667.5,-300 661.5,-306 655.5,-306"/>
<text text-anchor="start" x="511.5" y="-290.8" font-family="Helvetica,sans-Serif" font-size="14.00">expert_12_0 ≤ 4.487</text>
<text text-anchor="start" x="546" y="-275.8" font-family="Helvetica,sans-Serif" font-size="14.00">gini = 0.73</text>
<text text-anchor="start" x="537" y="-260.8" font-family="Helvetica,sans-Serif" font-size="14.00">samples = 27</text>
<text text-anchor="start" x="519" y="-245.8" font-family="Helvetica,sans-Serif" font-size="14.00">value = [8, 9, 6, 4]</text>
<text text-anchor="start" x="553" y="-230.8" font-family="Helvetica,sans-Serif" font-size="14.00">class = 1</text>
</g>
<!-- 12&#45;&gt;13 -->
<g id="edge13" class="edge">
<title>12&#45;&gt;13</title>
<path fill="none" stroke="black" d="M681.5,-341.91C669.53,-332.38 656.67,-322.15 644.39,-312.37"/>
<polygon fill="black" stroke="black" points="646.41,-309.51 636.41,-306.02 642.06,-314.99 646.41,-309.51"/>
</g>
<!-- 16 -->
<g id="node17" class="node">
<title>16</title>
<path fill="#d73be5" stroke="black" d="M841,-306C841,-306 698,-306 698,-306 692,-306 686,-300 686,-294 686,-294 686,-235 686,-235 686,-229 692,-223 698,-223 698,-223 841,-223 841,-223 847,-223 853,-229 853,-235 853,-235 853,-294 853,-294 853,-300 847,-306 841,-306"/>
<text text-anchor="start" x="700" y="-290.8" font-family="Helvetica,sans-Serif" font-size="14.00">expert_15_1 ≤ 0.35</text>
<text text-anchor="start" x="725.5" y="-275.8" font-family="Helvetica,sans-Serif" font-size="14.00">gini = 0.016</text>
<text text-anchor="start" x="716.5" y="-260.8" font-family="Helvetica,sans-Serif" font-size="14.00">samples = 123</text>
<text text-anchor="start" x="694" y="-245.8" font-family="Helvetica,sans-Serif" font-size="14.00">value = [1, 0, 0, 122]</text>
<text text-anchor="start" x="737" y="-230.8" font-family="Helvetica,sans-Serif" font-size="14.00">class = 3</text>
</g>
<!-- 12&#45;&gt;16 -->
<g id="edge16" class="edge">
<title>12&#45;&gt;16</title>
<path fill="none" stroke="black" d="M745.34,-341.91C748.01,-333.47 750.85,-324.48 753.61,-315.74"/>
<polygon fill="black" stroke="black" points="757.01,-316.61 756.69,-306.02 750.33,-314.5 757.01,-316.61"/>
</g>
<!-- 14 -->
<g id="node15" class="node">
<title>14</title>
<path fill="#fdf4ee" stroke="black" d="M489,-179.5C489,-179.5 364,-179.5 364,-179.5 358,-179.5 352,-173.5 352,-167.5 352,-167.5 352,-123.5 352,-123.5 352,-117.5 358,-111.5 364,-111.5 364,-111.5 489,-111.5 489,-111.5 495,-111.5 501,-117.5 501,-123.5 501,-123.5 501,-167.5 501,-167.5 501,-173.5 495,-179.5 489,-179.5"/>
<text text-anchor="start" x="382.5" y="-164.3" font-family="Helvetica,sans-Serif" font-size="14.00">gini = 0.685</text>
<text text-anchor="start" x="378" y="-149.3" font-family="Helvetica,sans-Serif" font-size="14.00">samples = 18</text>
<text text-anchor="start" x="360" y="-134.3" font-family="Helvetica,sans-Serif" font-size="14.00">value = [7, 1, 6, 4]</text>
<text text-anchor="start" x="394" y="-119.3" font-family="Helvetica,sans-Serif" font-size="14.00">class = 0</text>
</g>
<!-- 13&#45;&gt;14 -->
<g id="edge14" class="edge">
<title>13&#45;&gt;14</title>
<path fill="none" stroke="black" d="M530.34,-222.91C513.99,-210.88 496.13,-197.73 479.9,-185.79"/>
<polygon fill="black" stroke="black" points="481.7,-182.77 471.57,-179.67 477.55,-188.41 481.7,-182.77"/>
</g>
<!-- 15 -->
<g id="node16" class="node">
<title>15</title>
<path fill="#5ee852" stroke="black" d="M656,-179.5C656,-179.5 531,-179.5 531,-179.5 525,-179.5 519,-173.5 519,-167.5 519,-167.5 519,-123.5 519,-123.5 519,-117.5 525,-111.5 531,-111.5 531,-111.5 656,-111.5 656,-111.5 662,-111.5 668,-117.5 668,-123.5 668,-123.5 668,-167.5 668,-167.5 668,-173.5 662,-179.5 656,-179.5"/>
<text text-anchor="start" x="549.5" y="-164.3" font-family="Helvetica,sans-Serif" font-size="14.00">gini = 0.198</text>
<text text-anchor="start" x="549.5" y="-149.3" font-family="Helvetica,sans-Serif" font-size="14.00">samples = 9</text>
<text text-anchor="start" x="527" y="-134.3" font-family="Helvetica,sans-Serif" font-size="14.00">value = [1, 8, 0, 0]</text>
<text text-anchor="start" x="561" y="-119.3" font-family="Helvetica,sans-Serif" font-size="14.00">class = 1</text>
</g>
<!-- 13&#45;&gt;15 -->
<g id="edge15" class="edge">
<title>13&#45;&gt;15</title>
<path fill="none" stroke="black" d="M588.28,-222.91C589.01,-212.2 589.8,-200.62 590.54,-189.78"/>
<polygon fill="black" stroke="black" points="594.04,-189.88 591.23,-179.67 587.06,-189.4 594.04,-189.88"/>
</g>
<!-- 17 -->
<g id="node18" class="node">
<title>17</title>
<path fill="#d739e5" stroke="black" d="M841,-179.5C841,-179.5 698,-179.5 698,-179.5 692,-179.5 686,-173.5 686,-167.5 686,-167.5 686,-123.5 686,-123.5 686,-117.5 692,-111.5 698,-111.5 698,-111.5 841,-111.5 841,-111.5 847,-111.5 853,-117.5 853,-123.5 853,-123.5 853,-167.5 853,-167.5 853,-173.5 847,-179.5 841,-179.5"/>
<text text-anchor="start" x="734.5" y="-164.3" font-family="Helvetica,sans-Serif" font-size="14.00">gini = 0.0</text>
<text text-anchor="start" x="716.5" y="-149.3" font-family="Helvetica,sans-Serif" font-size="14.00">samples = 117</text>
<text text-anchor="start" x="694" y="-134.3" font-family="Helvetica,sans-Serif" font-size="14.00">value = [0, 0, 0, 117]</text>
<text text-anchor="start" x="737" y="-119.3" font-family="Helvetica,sans-Serif" font-size="14.00">class = 3</text>
</g>
<!-- 16&#45;&gt;17 -->
<g id="edge17" class="edge">
<title>16&#45;&gt;17</title>
<path fill="none" stroke="black" d="M769.5,-222.91C769.5,-212.2 769.5,-200.62 769.5,-189.78"/>
<polygon fill="black" stroke="black" points="773,-189.67 769.5,-179.67 766,-189.67 773,-189.67"/>
</g>
<!-- 18 -->
<g id="node19" class="node">
<title>18</title>
<path fill="#df61ea" stroke="black" d="M1008,-179.5C1008,-179.5 883,-179.5 883,-179.5 877,-179.5 871,-173.5 871,-167.5 871,-167.5 871,-123.5 871,-123.5 871,-117.5 877,-111.5 883,-111.5 883,-111.5 1008,-111.5 1008,-111.5 1014,-111.5 1020,-117.5 1020,-123.5 1020,-123.5 1020,-167.5 1020,-167.5 1020,-173.5 1014,-179.5 1008,-179.5"/>
<text text-anchor="start" x="901.5" y="-164.3" font-family="Helvetica,sans-Serif" font-size="14.00">gini = 0.278</text>
<text text-anchor="start" x="901.5" y="-149.3" font-family="Helvetica,sans-Serif" font-size="14.00">samples = 6</text>
<text text-anchor="start" x="879" y="-134.3" font-family="Helvetica,sans-Serif" font-size="14.00">value = [1, 0, 0, 5]</text>
<text text-anchor="start" x="913" y="-119.3" font-family="Helvetica,sans-Serif" font-size="14.00">class = 3</text>
</g>
<!-- 16&#45;&gt;18 -->
<g id="edge18" class="edge">
<title>16&#45;&gt;18</title>
<path fill="none" stroke="black" d="M830.56,-222.91C848.82,-210.77 868.79,-197.49 886.89,-185.46"/>
<polygon fill="black" stroke="black" points="889.22,-188.12 895.61,-179.67 885.34,-182.29 889.22,-188.12"/>
</g>
<!-- 20 -->
<g id="node21" class="node">
<title>20</title>
<path fill="#47e539" stroke="black" d="M1026,-298.5C1026,-298.5 883,-298.5 883,-298.5 877,-298.5 871,-292.5 871,-286.5 871,-286.5 871,-242.5 871,-242.5 871,-236.5 877,-230.5 883,-230.5 883,-230.5 1026,-230.5 1026,-230.5 1032,-230.5 1038,-236.5 1038,-242.5 1038,-242.5 1038,-286.5 1038,-286.5 1038,-292.5 1032,-298.5 1026,-298.5"/>
<text text-anchor="start" x="919.5" y="-283.3" font-family="Helvetica,sans-Serif" font-size="14.00">gini = 0.0</text>
<text text-anchor="start" x="901.5" y="-268.3" font-family="Helvetica,sans-Serif" font-size="14.00">samples = 115</text>
<text text-anchor="start" x="879" y="-253.3" font-family="Helvetica,sans-Serif" font-size="14.00">value = [0, 115, 0, 0]</text>
<text text-anchor="start" x="922" y="-238.3" font-family="Helvetica,sans-Serif" font-size="14.00">class = 1</text>
</g>
<!-- 19&#45;&gt;20 -->
<g id="edge20" class="edge">
<title>19&#45;&gt;20</title>
<path fill="none" stroke="black" d="M954.5,-341.91C954.5,-331.2 954.5,-319.62 954.5,-308.78"/>
<polygon fill="black" stroke="black" points="958,-308.67 954.5,-298.67 951,-308.67 958,-308.67"/>
</g>
<!-- 21 -->
<g id="node22" class="node">
<title>21</title>
<path fill="#a3f29c" stroke="black" d="M1193,-298.5C1193,-298.5 1068,-298.5 1068,-298.5 1062,-298.5 1056,-292.5 1056,-286.5 1056,-286.5 1056,-242.5 1056,-242.5 1056,-236.5 1062,-230.5 1068,-230.5 1068,-230.5 1193,-230.5 1193,-230.5 1199,-230.5 1205,-236.5 1205,-242.5 1205,-242.5 1205,-286.5 1205,-286.5 1205,-292.5 1199,-298.5 1193,-298.5"/>
<text text-anchor="start" x="1086.5" y="-283.3" font-family="Helvetica,sans-Serif" font-size="14.00">gini = 0.444</text>
<text text-anchor="start" x="1086.5" y="-268.3" font-family="Helvetica,sans-Serif" font-size="14.00">samples = 3</text>
<text text-anchor="start" x="1064" y="-253.3" font-family="Helvetica,sans-Serif" font-size="14.00">value = [0, 2, 0, 1]</text>
<text text-anchor="start" x="1098" y="-238.3" font-family="Helvetica,sans-Serif" font-size="14.00">class = 1</text>
</g>
<!-- 19&#45;&gt;21 -->
<g id="edge21" class="edge">
<title>19&#45;&gt;21</title>
<path fill="none" stroke="black" d="M1015.56,-341.91C1033.82,-329.77 1053.79,-316.49 1071.89,-304.46"/>
<polygon fill="black" stroke="black" points="1074.22,-307.12 1080.61,-298.67 1070.34,-301.29 1074.22,-307.12"/>
</g>
<!-- 23 -->
<g id="node24" class="node">
<title>23</title>
<path fill="#e58139" stroke="black" d="M1004,-536.5C1004,-536.5 861,-536.5 861,-536.5 855,-536.5 849,-530.5 849,-524.5 849,-524.5 849,-480.5 849,-480.5 849,-474.5 855,-468.5 861,-468.5 861,-468.5 1004,-468.5 1004,-468.5 1010,-468.5 1016,-474.5 1016,-480.5 1016,-480.5 1016,-524.5 1016,-524.5 1016,-530.5 1010,-536.5 1004,-536.5"/>
<text text-anchor="start" x="897.5" y="-521.3" font-family="Helvetica,sans-Serif" font-size="14.00">gini = 0.0</text>
<text text-anchor="start" x="879.5" y="-506.3" font-family="Helvetica,sans-Serif" font-size="14.00">samples = 121</text>
<text text-anchor="start" x="857" y="-491.3" font-family="Helvetica,sans-Serif" font-size="14.00">value = [121, 0, 0, 0]</text>
<text text-anchor="start" x="900" y="-476.3" font-family="Helvetica,sans-Serif" font-size="14.00">class = 0</text>
</g>
<!-- 22&#45;&gt;23 -->
<g id="edge23" class="edge">
<title>22&#45;&gt;23</title>
<path fill="none" stroke="black" d="M934.46,-579.91C934.18,-569.2 933.89,-557.62 933.61,-546.78"/>
<polygon fill="black" stroke="black" points="937.11,-546.57 933.35,-536.67 930.11,-546.75 937.11,-546.57"/>
</g>
<!-- 24 -->
<g id="node25" class="node">
<title>24</title>
<path fill="#dafad7" stroke="black" d="M1171,-536.5C1171,-536.5 1046,-536.5 1046,-536.5 1040,-536.5 1034,-530.5 1034,-524.5 1034,-524.5 1034,-480.5 1034,-480.5 1034,-474.5 1040,-468.5 1046,-468.5 1046,-468.5 1171,-468.5 1171,-468.5 1177,-468.5 1183,-474.5 1183,-480.5 1183,-480.5 1183,-524.5 1183,-524.5 1183,-530.5 1177,-536.5 1171,-536.5"/>
<text text-anchor="start" x="1064.5" y="-521.3" font-family="Helvetica,sans-Serif" font-size="14.00">gini = 0.594</text>
<text text-anchor="start" x="1064.5" y="-506.3" font-family="Helvetica,sans-Serif" font-size="14.00">samples = 8</text>
<text text-anchor="start" x="1042" y="-491.3" font-family="Helvetica,sans-Serif" font-size="14.00">value = [1, 4, 0, 3]</text>
<text text-anchor="start" x="1076" y="-476.3" font-family="Helvetica,sans-Serif" font-size="14.00">class = 1</text>
</g>
<!-- 22&#45;&gt;24 -->
<g id="edge24" class="edge">
<title>22&#45;&gt;24</title>
<path fill="none" stroke="black" d="M995.52,-579.91C1013.47,-567.77 1033.1,-554.49 1050.89,-542.46"/>
<polygon fill="black" stroke="black" points="1053.14,-545.17 1059.46,-536.67 1049.21,-539.37 1053.14,-545.17"/>
</g>
</g>
</svg>
