<?xml version="1.0" encoding="UTF-8" standalone="no"?>
<!DOCTYPE svg PUBLIC "-//W3C//DTD SVG 1.1//EN"
 "http://www.w3.org/Graphics/SVG/1.1/DTD/svg11.dtd">
<!-- Generated by graphviz version 2.43.0 (0)
 -->
<!-- Title: Tree Pages: 1 -->
<svg width="1216pt" height="790pt"
 viewBox="0.00 0.00 1216.00 790.00" xmlns="http://www.w3.org/2000/svg" xmlns:xlink="http://www.w3.org/1999/xlink">
<g id="graph0" class="graph" transform="scale(1 1) rotate(0) translate(4 786)">
<title>Tree</title>
<polygon fill="white" stroke="transparent" points="-4,4 -4,-786 1212,-786 1212,4 -4,4"/>
<!-- 0 -->
<g id="node1" class="node">
<title>0</title>
<path fill="#fffffe" stroke="black" d="M934,-782C934,-782 737,-782 737,-782 731,-782 725,-776 725,-770 725,-770 725,-711 725,-711 725,-705 731,-699 737,-699 737,-699 934,-699 934,-699 940,-699 946,-705 946,-711 946,-711 946,-770 946,-770 946,-776 940,-782 934,-782"/>
<text text-anchor="start" x="761.5" y="-766.8" font-family="Helvetica,sans-Serif" font-size="14.00">expert_18_1 ≤ 1.406</text>
<text text-anchor="start" x="791.5" y="-751.8" font-family="Helvetica,sans-Serif" font-size="14.00">gini = 0.749</text>
<text text-anchor="start" x="782.5" y="-736.8" font-family="Helvetica,sans-Serif" font-size="14.00">samples = 520</text>
<text text-anchor="start" x="733" y="-721.8" font-family="Helvetica,sans-Serif" font-size="14.00">value = [136, 137, 117, 130]</text>
<text text-anchor="start" x="803" y="-706.8" font-family="Helvetica,sans-Serif" font-size="14.00">class = 1</text>
</g>
<!-- 1 -->
<g id="node2" class="node">
<title>1</title>
<path fill="#fbfefa" stroke="black" d="M826.5,-663C826.5,-663 638.5,-663 638.5,-663 632.5,-663 626.5,-657 626.5,-651 626.5,-651 626.5,-592 626.5,-592 626.5,-586 632.5,-580 638.5,-580 638.5,-580 826.5,-580 826.5,-580 832.5,-580 838.5,-586 838.5,-592 838.5,-592 838.5,-651 838.5,-651 838.5,-657 832.5,-663 826.5,-663"/>
<text text-anchor="start" x="663" y="-647.8" font-family="Helvetica,sans-Serif" font-size="14.00">expert_4_1 ≤ 1.336</text>
<text text-anchor="start" x="688.5" y="-632.8" font-family="Helvetica,sans-Serif" font-size="14.00">gini = 0.688</text>
<text text-anchor="start" x="679.5" y="-617.8" font-family="Helvetica,sans-Serif" font-size="14.00">samples = 391</text>
<text text-anchor="start" x="634.5" y="-602.8" font-family="Helvetica,sans-Serif" font-size="14.00">value = [14, 133, 117, 127]</text>
<text text-anchor="start" x="700" y="-587.8" font-family="Helvetica,sans-Serif" font-size="14.00">class = 1</text>
</g>
<!-- 0&#45;&gt;1 -->
<g id="edge1" class="edge">
<title>0&#45;&gt;1</title>
<path fill="none" stroke="black" d="M799.76,-698.91C791.78,-689.83 783.23,-680.12 774.99,-670.77"/>
<polygon fill="black" stroke="black" points="777.41,-668.21 768.17,-663.02 772.15,-672.84 777.41,-668.21"/>
<text text-anchor="middle" x="766.58" y="-684.27" font-family="Helvetica,sans-Serif" font-size="14.00">True</text>
</g>
<!-- 24 -->
<g id="node25" class="node">
<title>24</title>
<path fill="#e68844" stroke="black" d="M1011,-663C1011,-663 868,-663 868,-663 862,-663 856,-657 856,-651 856,-651 856,-592 856,-592 856,-586 862,-580 868,-580 868,-580 1011,-580 1011,-580 1017,-580 1023,-586 1023,-592 1023,-592 1023,-651 1023,-651 1023,-657 1017,-663 1011,-663"/>
<text text-anchor="start" x="870" y="-647.8" font-family="Helvetica,sans-Serif" font-size="14.00">expert_4_1 ≤ 6.565</text>
<text text-anchor="start" x="895.5" y="-632.8" font-family="Helvetica,sans-Serif" font-size="14.00">gini = 0.104</text>
<text text-anchor="start" x="886.5" y="-617.8" font-family="Helvetica,sans-Serif" font-size="14.00">samples = 129</text>
<text text-anchor="start" x="864" y="-602.8" font-family="Helvetica,sans-Serif" font-size="14.00">value = [122, 4, 0, 3]</text>
<text text-anchor="start" x="907" y="-587.8" font-family="Helvetica,sans-Serif" font-size="14.00">class = 0</text>
</g>
<!-- 0&#45;&gt;24 -->
<g id="edge24" class="edge">
<title>0&#45;&gt;24</title>
<path fill="none" stroke="black" d="M871.58,-698.91C879.65,-689.83 888.28,-680.12 896.59,-670.77"/>
<polygon fill="black" stroke="black" points="899.45,-672.82 903.48,-663.02 894.22,-668.17 899.45,-672.82"/>
<text text-anchor="middle" x="904.95" y="-684.28" font-family="Helvetica,sans-Serif" font-size="14.00">False</text>
</g>
<!-- 2 -->
<g id="node3" class="node">
<title>2</title>
<path fill="#4da7e8" stroke="black" d="M577,-544C577,-544 434,-544 434,-544 428,-544 422,-538 422,-532 422,-532 422,-473 422,-473 422,-467 428,-461 434,-461 434,-461 577,-461 577,-461 583,-461 589,-467 589,-473 589,-473 589,-532 589,-532 589,-538 583,-544 577,-544"/>
<text text-anchor="start" x="431.5" y="-528.8" font-family="Helvetica,sans-Serif" font-size="14.00">expert_12_1 ≤ 8.914</text>
<text text-anchor="start" x="461.5" y="-513.8" font-family="Helvetica,sans-Serif" font-size="14.00">gini = 0.181</text>
<text text-anchor="start" x="452.5" y="-498.8" font-family="Helvetica,sans-Serif" font-size="14.00">samples = 123</text>
<text text-anchor="start" x="430" y="-483.8" font-family="Helvetica,sans-Serif" font-size="14.00">value = [5, 7, 111, 0]</text>
<text text-anchor="start" x="473" y="-468.8" font-family="Helvetica,sans-Serif" font-size="14.00">class = 2</text>
</g>
<!-- 1&#45;&gt;2 -->
<g id="edge2" class="edge">
<title>1&#45;&gt;2</title>
<path fill="none" stroke="black" d="M653.74,-579.91C634.2,-569.83 613.13,-558.98 593.19,-548.7"/>
<polygon fill="black" stroke="black" points="594.61,-545.49 584.12,-544.02 591.4,-551.71 594.61,-545.49"/>
</g>
<!-- 11 -->
<g id="node12" class="node">
<title>11</title>
<path fill="#fffeff" stroke="black" d="M817,-544C817,-544 656,-544 656,-544 650,-544 644,-538 644,-532 644,-532 644,-473 644,-473 644,-467 650,-461 656,-461 656,-461 817,-461 817,-461 823,-461 829,-467 829,-473 829,-473 829,-532 829,-532 829,-538 823,-544 817,-544"/>
<text text-anchor="start" x="662.5" y="-528.8" font-family="Helvetica,sans-Serif" font-size="14.00">expert_0_2 ≤ 18.049</text>
<text text-anchor="start" x="692.5" y="-513.8" font-family="Helvetica,sans-Serif" font-size="14.00">gini = 0.553</text>
<text text-anchor="start" x="683.5" y="-498.8" font-family="Helvetica,sans-Serif" font-size="14.00">samples = 268</text>
<text text-anchor="start" x="652" y="-483.8" font-family="Helvetica,sans-Serif" font-size="14.00">value = [9, 126, 6, 127]</text>
<text text-anchor="start" x="704" y="-468.8" font-family="Helvetica,sans-Serif" font-size="14.00">class = 3</text>
</g>
<!-- 1&#45;&gt;11 -->
<g id="edge11" class="edge">
<title>1&#45;&gt;11</title>
<path fill="none" stroke="black" d="M733.89,-579.91C734.17,-571.56 734.48,-562.67 734.77,-554.02"/>
<polygon fill="black" stroke="black" points="738.27,-554.13 735.11,-544.02 731.27,-553.9 738.27,-554.13"/>
</g>
<!-- 3 -->
<g id="node4" class="node">
<title>3</title>
<path fill="#47a4e7" stroke="black" d="M328,-425C328,-425 185,-425 185,-425 179,-425 173,-419 173,-413 173,-413 173,-354 173,-354 173,-348 179,-342 185,-342 185,-342 328,-342 328,-342 334,-342 340,-348 340,-354 340,-354 340,-413 340,-413 340,-419 334,-425 328,-425"/>
<text text-anchor="start" x="182.5" y="-409.8" font-family="Helvetica,sans-Serif" font-size="14.00">expert_10_2 ≤ 0.481</text>
<text text-anchor="start" x="212.5" y="-394.8" font-family="Helvetica,sans-Serif" font-size="14.00">gini = 0.128</text>
<text text-anchor="start" x="203.5" y="-379.8" font-family="Helvetica,sans-Serif" font-size="14.00">samples = 119</text>
<text text-anchor="start" x="181" y="-364.8" font-family="Helvetica,sans-Serif" font-size="14.00">value = [5, 3, 111, 0]</text>
<text text-anchor="start" x="224" y="-349.8" font-family="Helvetica,sans-Serif" font-size="14.00">class = 2</text>
</g>
<!-- 2&#45;&gt;3 -->
<g id="edge3" class="edge">
<title>2&#45;&gt;3</title>
<path fill="none" stroke="black" d="M421.89,-462.22C398.69,-451.31 373.36,-439.41 349.66,-428.27"/>
<polygon fill="black" stroke="black" points="350.85,-424.97 340.31,-423.88 347.87,-431.3 350.85,-424.97"/>
</g>
<!-- 10 -->
<g id="node11" class="node">
<title>10</title>
<path fill="#47e539" stroke="black" d="M568,-417.5C568,-417.5 443,-417.5 443,-417.5 437,-417.5 431,-411.5 431,-405.5 431,-405.5 431,-361.5 431,-361.5 431,-355.5 437,-349.5 443,-349.5 443,-349.5 568,-349.5 568,-349.5 574,-349.5 580,-355.5 580,-361.5 580,-361.5 580,-405.5 580,-405.5 580,-411.5 574,-417.5 568,-417.5"/>
<text text-anchor="start" x="470.5" y="-402.3" font-family="Helvetica,sans-Serif" font-size="14.00">gini = 0.0</text>
<text text-anchor="start" x="461.5" y="-387.3" font-family="Helvetica,sans-Serif" font-size="14.00">samples = 4</text>
<text text-anchor="start" x="439" y="-372.3" font-family="Helvetica,sans-Serif" font-size="14.00">value = [0, 4, 0, 0]</text>
<text text-anchor="start" x="473" y="-357.3" font-family="Helvetica,sans-Serif" font-size="14.00">class = 1</text>
</g>
<!-- 2&#45;&gt;10 -->
<g id="edge10" class="edge">
<title>2&#45;&gt;10</title>
<path fill="none" stroke="black" d="M505.5,-460.91C505.5,-450.2 505.5,-438.62 505.5,-427.78"/>
<polygon fill="black" stroke="black" points="509,-427.67 505.5,-417.67 502,-427.67 509,-427.67"/>
</g>
<!-- 4 -->
<g id="node5" class="node">
<title>4</title>
<path fill="#eeab7b" stroke="black" d="M143,-298.5C143,-298.5 18,-298.5 18,-298.5 12,-298.5 6,-292.5 6,-286.5 6,-286.5 6,-242.5 6,-242.5 6,-236.5 12,-230.5 18,-230.5 18,-230.5 143,-230.5 143,-230.5 149,-230.5 155,-236.5 155,-242.5 155,-242.5 155,-286.5 155,-286.5 155,-292.5 149,-298.5 143,-298.5"/>
<text text-anchor="start" x="36.5" y="-283.3" font-family="Helvetica,sans-Serif" font-size="14.00">gini = 0.375</text>
<text text-anchor="start" x="36.5" y="-268.3" font-family="Helvetica,sans-Serif" font-size="14.00">samples = 4</text>
<text text-anchor="start" x="14" y="-253.3" font-family="Helvetica,sans-Serif" font-size="14.00">value = [3, 1, 0, 0]</text>
<text text-anchor="start" x="48" y="-238.3" font-family="Helvetica,sans-Serif" font-size="14.00">class = 0</text>
</g>
<!-- 3&#45;&gt;4 -->
<g id="edge4" class="edge">
<title>3&#45;&gt;4</title>
<path fill="none" stroke="black" d="M195.44,-341.91C177.18,-329.77 157.21,-316.49 139.11,-304.46"/>
<polygon fill="black" stroke="black" points="140.66,-301.29 130.39,-298.67 136.78,-307.12 140.66,-301.29"/>
</g>
<!-- 5 -->
<g id="node6" class="node">
<title>5</title>
<path fill="#40a0e6" stroke="black" d="M328,-306C328,-306 185,-306 185,-306 179,-306 173,-300 173,-294 173,-294 173,-235 173,-235 173,-229 179,-223 185,-223 185,-223 328,-223 328,-223 334,-223 340,-229 340,-235 340,-235 340,-294 340,-294 340,-300 334,-306 328,-306"/>
<text text-anchor="start" x="187" y="-290.8" font-family="Helvetica,sans-Serif" font-size="14.00">expert_2_0 ≤ 0.215</text>
<text text-anchor="start" x="212.5" y="-275.8" font-family="Helvetica,sans-Serif" font-size="14.00">gini = 0.068</text>
<text text-anchor="start" x="203.5" y="-260.8" font-family="Helvetica,sans-Serif" font-size="14.00">samples = 115</text>
<text text-anchor="start" x="181" y="-245.8" font-family="Helvetica,sans-Serif" font-size="14.00">value = [2, 2, 111, 0]</text>
<text text-anchor="start" x="224" y="-230.8" font-family="Helvetica,sans-Serif" font-size="14.00">class = 2</text>
</g>
<!-- 3&#45;&gt;5 -->
<g id="edge5" class="edge">
<title>3&#45;&gt;5</title>
<path fill="none" stroke="black" d="M256.5,-341.91C256.5,-333.65 256.5,-324.86 256.5,-316.3"/>
<polygon fill="black" stroke="black" points="260,-316.02 256.5,-306.02 253,-316.02 260,-316.02"/>
</g>
<!-- 6 -->
<g id="node7" class="node">
<title>6</title>
<path fill="#ffffff" stroke="black" d="M143,-179.5C143,-179.5 18,-179.5 18,-179.5 12,-179.5 6,-173.5 6,-167.5 6,-167.5 6,-123.5 6,-123.5 6,-117.5 12,-111.5 18,-111.5 18,-111.5 143,-111.5 143,-111.5 149,-111.5 155,-117.5 155,-123.5 155,-123.5 155,-167.5 155,-167.5 155,-173.5 149,-179.5 143,-179.5"/>
<text text-anchor="start" x="45.5" y="-164.3" font-family="Helvetica,sans-Serif" font-size="14.00">gini = 0.5</text>
<text text-anchor="start" x="36.5" y="-149.3" font-family="Helvetica,sans-Serif" font-size="14.00">samples = 4</text>
<text text-anchor="start" x="14" y="-134.3" font-family="Helvetica,sans-Serif" font-size="14.00">value = [2, 0, 2, 0]</text>
<text text-anchor="start" x="48" y="-119.3" font-family="Helvetica,sans-Serif" font-size="14.00">class = 0</text>
</g>
<!-- 5&#45;&gt;6 -->
<g id="edge6" class="edge">
<title>5&#45;&gt;6</title>
<path fill="none" stroke="black" d="M195.44,-222.91C177.18,-210.77 157.21,-197.49 139.11,-185.46"/>
<polygon fill="black" stroke="black" points="140.66,-182.29 130.39,-179.67 136.78,-188.12 140.66,-182.29"/>
</g>
<!-- 7 -->
<g id="node8" class="node">
<title>7</title>
<path fill="#3d9fe5" stroke="black" d="M328,-187C328,-187 185,-187 185,-187 179,-187 173,-181 173,-175 173,-175 173,-116 173,-116 173,-110 179,-104 185,-104 185,-104 328,-104 328,-104 334,-104 340,-110 340,-116 340,-116 340,-175 340,-175 340,-181 334,-187 328,-187"/>
<text text-anchor="start" x="187" y="-171.8" font-family="Helvetica,sans-Serif" font-size="14.00">expert_22_2 ≤ 1.54</text>
<text text-anchor="start" x="212.5" y="-156.8" font-family="Helvetica,sans-Serif" font-size="14.00">gini = 0.035</text>
<text text-anchor="start" x="203.5" y="-141.8" font-family="Helvetica,sans-Serif" font-size="14.00">samples = 111</text>
<text text-anchor="start" x="181" y="-126.8" font-family="Helvetica,sans-Serif" font-size="14.00">value = [0, 2, 109, 0]</text>
<text text-anchor="start" x="224" y="-111.8" font-family="Helvetica,sans-Serif" font-size="14.00">class = 2</text>
</g>
<!-- 5&#45;&gt;7 -->
<g id="edge7" class="edge">
<title>5&#45;&gt;7</title>
<path fill="none" stroke="black" d="M256.5,-222.91C256.5,-214.65 256.5,-205.86 256.5,-197.3"/>
<polygon fill="black" stroke="black" points="260,-197.02 256.5,-187.02 253,-197.02 260,-197.02"/>
</g>
<!-- 8 -->
<g id="node9" class="node">
<title>8</title>
<path fill="#399de5" stroke="black" d="M155,-68C155,-68 12,-68 12,-68 6,-68 0,-62 0,-56 0,-56 0,-12 0,-12 0,-6 6,0 12,0 12,0 155,0 155,0 161,0 167,-6 167,-12 167,-12 167,-56 167,-56 167,-62 161,-68 155,-68"/>
<text text-anchor="start" x="48.5" y="-52.8" font-family="Helvetica,sans-Serif" font-size="14.00">gini = 0.0</text>
<text text-anchor="start" x="30.5" y="-37.8" font-family="Helvetica,sans-Serif" font-size="14.00">samples = 107</text>
<text text-anchor="start" x="8" y="-22.8" font-family="Helvetica,sans-Serif" font-size="14.00">value = [0, 0, 107, 0]</text>
<text text-anchor="start" x="51" y="-7.8" font-family="Helvetica,sans-Serif" font-size="14.00">class = 2</text>
</g>
<!-- 7&#45;&gt;8 -->
<g id="edge8" class="edge">
<title>7&#45;&gt;8</title>
<path fill="none" stroke="black" d="M192.08,-103.73C176.44,-93.82 159.76,-83.27 144.29,-73.48"/>
<polygon fill="black" stroke="black" points="146.16,-70.52 135.83,-68.13 142.41,-76.43 146.16,-70.52"/>
</g>
<!-- 9 -->
<g id="node10" class="node">
<title>9</title>
<path fill="#ffffff" stroke="black" d="M322,-68C322,-68 197,-68 197,-68 191,-68 185,-62 185,-56 185,-56 185,-12 185,-12 185,-6 191,0 197,0 197,0 322,0 322,0 328,0 334,-6 334,-12 334,-12 334,-56 334,-56 334,-62 328,-68 322,-68"/>
<text text-anchor="start" x="224.5" y="-52.8" font-family="Helvetica,sans-Serif" font-size="14.00">gini = 0.5</text>
<text text-anchor="start" x="215.5" y="-37.8" font-family="Helvetica,sans-Serif" font-size="14.00">samples = 4</text>
<text text-anchor="start" x="193" y="-22.8" font-family="Helvetica,sans-Serif" font-size="14.00">value = [0, 2, 2, 0]</text>
<text text-anchor="start" x="227" y="-7.8" font-family="Helvetica,sans-Serif" font-size="14.00">class = 1</text>
</g>
<!-- 7&#45;&gt;9 -->
<g id="edge9" class="edge">
<title>7&#45;&gt;9</title>
<path fill="none" stroke="black" d="M257.62,-103.73C257.84,-95.52 258.08,-86.86 258.31,-78.56"/>
<polygon fill="black" stroke="black" points="261.81,-78.39 258.59,-68.3 254.82,-78.2 261.81,-78.39"/>
</g>
<!-- 12 -->
<g id="node13" class="node">
<title>12</title>
<path fill="#de5be9" stroke="black" d="M808,-425C808,-425 665,-425 665,-425 659,-425 653,-419 653,-413 653,-413 653,-354 653,-354 653,-348 659,-342 665,-342 665,-342 808,-342 808,-342 814,-342 820,-348 820,-354 820,-354 820,-413 820,-413 820,-419 814,-425 808,-425"/>
<text text-anchor="start" x="667" y="-409.8" font-family="Helvetica,sans-Serif" font-size="14.00">expert_4_2 ≤ 9.334</text>
<text text-anchor="start" x="692.5" y="-394.8" font-family="Helvetica,sans-Serif" font-size="14.00">gini = 0.286</text>
<text text-anchor="start" x="683.5" y="-379.8" font-family="Helvetica,sans-Serif" font-size="14.00">samples = 150</text>
<text text-anchor="start" x="661" y="-364.8" font-family="Helvetica,sans-Serif" font-size="14.00">value = [9, 9, 6, 126]</text>
<text text-anchor="start" x="704" y="-349.8" font-family="Helvetica,sans-Serif" font-size="14.00">class = 3</text>
</g>
<!-- 11&#45;&gt;12 -->
<g id="edge12" class="edge">
<title>11&#45;&gt;12</title>
<path fill="none" stroke="black" d="M736.5,-460.91C736.5,-452.65 736.5,-443.86 736.5,-435.3"/>
<polygon fill="black" stroke="black" points="740,-435.02 736.5,-425.02 733,-435.02 740,-435.02"/>
</g>
<!-- 21 -->
<g id="node22" class="node">
<title>21</title>
<path fill="#49e53b" stroke="black" d="M1029,-425C1029,-425 886,-425 886,-425 880,-425 874,-419 874,-413 874,-413 874,-354 874,-354 874,-348 880,-342 886,-342 886,-342 1029,-342 1029,-342 1035,-342 1041,-348 1041,-354 1041,-354 1041,-413 1041,-413 1041,-419 1035,-425 1029,-425"/>
<text text-anchor="start" x="883.5" y="-409.8" font-family="Helvetica,sans-Serif" font-size="14.00">expert_4_2 ≤ 18.713</text>
<text text-anchor="start" x="913.5" y="-394.8" font-family="Helvetica,sans-Serif" font-size="14.00">gini = 0.017</text>
<text text-anchor="start" x="904.5" y="-379.8" font-family="Helvetica,sans-Serif" font-size="14.00">samples = 118</text>
<text text-anchor="start" x="882" y="-364.8" font-family="Helvetica,sans-Serif" font-size="14.00">value = [0, 117, 0, 1]</text>
<text text-anchor="start" x="925" y="-349.8" font-family="Helvetica,sans-Serif" font-size="14.00">class = 1</text>
</g>
<!-- 11&#45;&gt;21 -->
<g id="edge21" class="edge">
<title>11&#45;&gt;21</title>
<path fill="none" stroke="black" d="M813.17,-460.91C832.12,-450.88 852.53,-440.07 871.86,-429.84"/>
<polygon fill="black" stroke="black" points="873.76,-432.79 880.96,-425.02 870.49,-426.61 873.76,-432.79"/>
</g>
<!-- 13 -->
<g id="node14" class="node">
<title>13</title>
<path fill="#f5fef5" stroke="black" d="M658.5,-306C658.5,-306 518.5,-306 518.5,-306 512.5,-306 506.5,-300 506.5,-294 506.5,-294 506.5,-235 506.5,-235 506.5,-229 512.5,-223 518.5,-223 518.5,-223 658.5,-223 658.5,-223 664.5,-223 670.5,-229 670.5,-235 670.5,-235 670.5,-294 670.5,-294 670.5,-300 664.5,-306 658.5,-306"/>
<text text-anchor="start" x="514.5" y="-290.8" font-family="Helvetica,sans-Serif" font-size="14.00">expert_12_0 ≤ 4.487</text>
<text text-anchor="start" x="549" y="-275.8" font-family="Helvetica,sans-Serif" font-size="14.00">gini = 0.73</text>
<text text-anchor="start" x="540" y="-260.8" font-family="Helvetica,sans-Serif" font-size="14.00">samples = 27</text>
<text text-anchor="start" x="522" y="-245.8" font-family="Helvetica,sans-Serif" font-size="14.00">value = [8, 9, 6, 4]</text>
<text text-anchor="start" x="556" y="-230.8" font-family="Helvetica,sans-Serif" font-size="14.00">class = 1</text>
</g>
<!-- 12&#45;&gt;13 -->
<g id="edge13" class="edge">
<title>12&#45;&gt;13</title>
<path fill="none" stroke="black" d="M685.15,-341.91C673.1,-332.38 660.16,-322.15 647.79,-312.37"/>
<polygon fill="black" stroke="black" points="649.77,-309.48 639.76,-306.02 645.43,-314.97 649.77,-309.48"/>
</g>
<!-- 18 -->
<g id="node19" class="node">
<title>18</title>
<path fill="#d73be5" stroke="black" d="M844,-306C844,-306 701,-306 701,-306 695,-306 689,-300 689,-294 689,-294 689,-235 689,-235 689,-229 695,-223 701,-223 701,-223 844,-223 844,-223 850,-223 856,-229 856,-235 856,-235 856,-294 856,-294 856,-300 850,-306 844,-306"/>
<text text-anchor="start" x="698.5" y="-290.8" font-family="Helvetica,sans-Serif" font-size="14.00">expert_4_2 ≤ 10.546</text>
<text text-anchor="start" x="728.5" y="-275.8" font-family="Helvetica,sans-Serif" font-size="14.00">gini = 0.016</text>
<text text-anchor="start" x="719.5" y="-260.8" font-family="Helvetica,sans-Serif" font-size="14.00">samples = 123</text>
<text text-anchor="start" x="697" y="-245.8" font-family="Helvetica,sans-Serif" font-size="14.00">value = [1, 0, 0, 122]</text>
<text text-anchor="start" x="740" y="-230.8" font-family="Helvetica,sans-Serif" font-size="14.00">class = 3</text>
</g>
<!-- 12&#45;&gt;18 -->
<g id="edge18" class="edge">
<title>12&#45;&gt;18</title>
<path fill="none" stroke="black" d="M748.99,-341.91C751.59,-333.47 754.35,-324.48 757.04,-315.74"/>
<polygon fill="black" stroke="black" points="760.44,-316.61 760.03,-306.02 753.75,-314.55 760.44,-316.61"/>
</g>
<!-- 14 -->
<g id="node15" class="node">
<title>14</title>
<path fill="#fdf4ee" stroke="black" d="M501,-187C501,-187 370,-187 370,-187 364,-187 358,-181 358,-175 358,-175 358,-116 358,-116 358,-110 364,-104 370,-104 370,-104 501,-104 501,-104 507,-104 513,-110 513,-116 513,-116 513,-175 513,-175 513,-181 507,-187 501,-187"/>
<text text-anchor="start" x="366" y="-171.8" font-family="Helvetica,sans-Serif" font-size="14.00">expert_3_0 ≤ 1.346</text>
<text text-anchor="start" x="391.5" y="-156.8" font-family="Helvetica,sans-Serif" font-size="14.00">gini = 0.685</text>
<text text-anchor="start" x="387" y="-141.8" font-family="Helvetica,sans-Serif" font-size="14.00">samples = 18</text>
<text text-anchor="start" x="369" y="-126.8" font-family="Helvetica,sans-Serif" font-size="14.00">value = [7, 1, 6, 4]</text>
<text text-anchor="start" x="403" y="-111.8" font-family="Helvetica,sans-Serif" font-size="14.00">class = 0</text>
</g>
<!-- 13&#45;&gt;14 -->
<g id="edge14" class="edge">
<title>13&#45;&gt;14</title>
<path fill="none" stroke="black" d="M535.42,-222.91C522.96,-213.38 509.58,-203.15 496.79,-193.37"/>
<polygon fill="black" stroke="black" points="498.56,-190.32 488.49,-187.02 494.31,-195.88 498.56,-190.32"/>
</g>
<!-- 17 -->
<g id="node18" class="node">
<title>17</title>
<path fill="#5ee852" stroke="black" d="M668,-179.5C668,-179.5 543,-179.5 543,-179.5 537,-179.5 531,-173.5 531,-167.5 531,-167.5 531,-123.5 531,-123.5 531,-117.5 537,-111.5 543,-111.5 543,-111.5 668,-111.5 668,-111.5 674,-111.5 680,-117.5 680,-123.5 680,-123.5 680,-167.5 680,-167.5 680,-173.5 674,-179.5 668,-179.5"/>
<text text-anchor="start" x="561.5" y="-164.3" font-family="Helvetica,sans-Serif" font-size="14.00">gini = 0.198</text>
<text text-anchor="start" x="561.5" y="-149.3" font-family="Helvetica,sans-Serif" font-size="14.00">samples = 9</text>
<text text-anchor="start" x="539" y="-134.3" font-family="Helvetica,sans-Serif" font-size="14.00">value = [1, 8, 0, 0]</text>
<text text-anchor="start" x="573" y="-119.3" font-family="Helvetica,sans-Serif" font-size="14.00">class = 1</text>
</g>
<!-- 13&#45;&gt;17 -->
<g id="edge17" class="edge">
<title>13&#45;&gt;17</title>
<path fill="none" stroke="black" d="M594.4,-222.91C595.95,-212.2 597.64,-200.62 599.21,-189.78"/>
<polygon fill="black" stroke="black" points="602.71,-190.07 600.68,-179.67 595.78,-189.06 602.71,-190.07"/>
</g>
<!-- 15 -->
<g id="node16" class="node">
<title>15</title>
<path fill="#bddef6" stroke="black" d="M495,-68C495,-68 370,-68 370,-68 364,-68 358,-62 358,-56 358,-56 358,-12 358,-12 358,-6 364,0 370,0 370,0 495,0 495,0 501,0 507,-6 507,-12 507,-12 507,-56 507,-56 507,-62 501,-68 495,-68"/>
<text text-anchor="start" x="393" y="-52.8" font-family="Helvetica,sans-Serif" font-size="14.00">gini = 0.48</text>
<text text-anchor="start" x="384" y="-37.8" font-family="Helvetica,sans-Serif" font-size="14.00">samples = 10</text>
<text text-anchor="start" x="366" y="-22.8" font-family="Helvetica,sans-Serif" font-size="14.00">value = [0, 0, 6, 4]</text>
<text text-anchor="start" x="400" y="-7.8" font-family="Helvetica,sans-Serif" font-size="14.00">class = 2</text>
</g>
<!-- 14&#45;&gt;15 -->
<g id="edge15" class="edge">
<title>14&#45;&gt;15</title>
<path fill="none" stroke="black" d="M434.38,-103.73C434.16,-95.52 433.92,-86.86 433.69,-78.56"/>
<polygon fill="black" stroke="black" points="437.18,-78.2 433.41,-68.3 430.19,-78.39 437.18,-78.2"/>
</g>
<!-- 16 -->
<g id="node17" class="node">
<title>16</title>
<path fill="#e99355" stroke="black" d="M662,-68C662,-68 537,-68 537,-68 531,-68 525,-62 525,-56 525,-56 525,-12 525,-12 525,-6 531,0 537,0 537,0 662,0 662,0 668,0 674,-6 674,-12 674,-12 674,-56 674,-56 674,-62 668,-68 662,-68"/>
<text text-anchor="start" x="555.5" y="-52.8" font-family="Helvetica,sans-Serif" font-size="14.00">gini = 0.219</text>
<text text-anchor="start" x="555.5" y="-37.8" font-family="Helvetica,sans-Serif" font-size="14.00">samples = 8</text>
<text text-anchor="start" x="533" y="-22.8" font-family="Helvetica,sans-Serif" font-size="14.00">value = [7, 1, 0, 0]</text>
<text text-anchor="start" x="567" y="-7.8" font-family="Helvetica,sans-Serif" font-size="14.00">class = 0</text>
</g>
<!-- 14&#45;&gt;16 -->
<g id="edge16" class="edge">
<title>14&#45;&gt;16</title>
<path fill="none" stroke="black" d="M496.57,-103.73C511.26,-93.92 526.91,-83.46 541.46,-73.75"/>
<polygon fill="black" stroke="black" points="543.51,-76.59 549.89,-68.13 539.63,-70.77 543.51,-76.59"/>
</g>
<!-- 19 -->
<g id="node20" class="node">
<title>19</title>
<path fill="#df61ea" stroke="black" d="M835,-179.5C835,-179.5 710,-179.5 710,-179.5 704,-179.5 698,-173.5 698,-167.5 698,-167.5 698,-123.5 698,-123.5 698,-117.5 704,-111.5 710,-111.5 710,-111.5 835,-111.5 835,-111.5 841,-111.5 847,-117.5 847,-123.5 847,-123.5 847,-167.5 847,-167.5 847,-173.5 841,-179.5 835,-179.5"/>
<text text-anchor="start" x="728.5" y="-164.3" font-family="Helvetica,sans-Serif" font-size="14.00">gini = 0.278</text>
<text text-anchor="start" x="728.5" y="-149.3" font-family="Helvetica,sans-Serif" font-size="14.00">samples = 6</text>
<text text-anchor="start" x="706" y="-134.3" font-family="Helvetica,sans-Serif" font-size="14.00">value = [1, 0, 0, 5]</text>
<text text-anchor="start" x="740" y="-119.3" font-family="Helvetica,sans-Serif" font-size="14.00">class = 3</text>
</g>
<!-- 18&#45;&gt;19 -->
<g id="edge19" class="edge">
<title>18&#45;&gt;19</title>
<path fill="none" stroke="black" d="M772.5,-222.91C772.5,-212.2 772.5,-200.62 772.5,-189.78"/>
<polygon fill="black" stroke="black" points="776,-189.67 772.5,-179.67 769,-189.67 776,-189.67"/>
</g>
<!-- 20 -->
<g id="node21" class="node">
<title>20</title>
<path fill="#d739e5" stroke="black" d="M1020,-179.5C1020,-179.5 877,-179.5 877,-179.5 871,-179.5 865,-173.5 865,-167.5 865,-167.5 865,-123.5 865,-123.5 865,-117.5 871,-111.5 877,-111.5 877,-111.5 1020,-111.5 1020,-111.5 1026,-111.5 1032,-117.5 1032,-123.5 1032,-123.5 1032,-167.5 1032,-167.5 1032,-173.5 1026,-179.5 1020,-179.5"/>
<text text-anchor="start" x="913.5" y="-164.3" font-family="Helvetica,sans-Serif" font-size="14.00">gini = 0.0</text>
<text text-anchor="start" x="895.5" y="-149.3" font-family="Helvetica,sans-Serif" font-size="14.00">samples = 117</text>
<text text-anchor="start" x="873" y="-134.3" font-family="Helvetica,sans-Serif" font-size="14.00">value = [0, 0, 0, 117]</text>
<text text-anchor="start" x="916" y="-119.3" font-family="Helvetica,sans-Serif" font-size="14.00">class = 3</text>
</g>
<!-- 18&#45;&gt;20 -->
<g id="edge20" class="edge">
<title>18&#45;&gt;20</title>
<path fill="none" stroke="black" d="M833.56,-222.91C851.82,-210.77 871.79,-197.49 889.89,-185.46"/>
<polygon fill="black" stroke="black" points="892.22,-188.12 898.61,-179.67 888.34,-182.29 892.22,-188.12"/>
</g>
<!-- 22 -->
<g id="node23" class="node">
<title>22</title>
<path fill="#47e539" stroke="black" d="M1029,-298.5C1029,-298.5 886,-298.5 886,-298.5 880,-298.5 874,-292.5 874,-286.5 874,-286.5 874,-242.5 874,-242.5 874,-236.5 880,-230.5 886,-230.5 886,-230.5 1029,-230.5 1029,-230.5 1035,-230.5 1041,-236.5 1041,-242.5 1041,-242.5 1041,-286.5 1041,-286.5 1041,-292.5 1035,-298.5 1029,-298.5"/>
<text text-anchor="start" x="922.5" y="-283.3" font-family="Helvetica,sans-Serif" font-size="14.00">gini = 0.0</text>
<text text-anchor="start" x="904.5" y="-268.3" font-family="Helvetica,sans-Serif" font-size="14.00">samples = 114</text>
<text text-anchor="start" x="882" y="-253.3" font-family="Helvetica,sans-Serif" font-size="14.00">value = [0, 114, 0, 0]</text>
<text text-anchor="start" x="925" y="-238.3" font-family="Helvetica,sans-Serif" font-size="14.00">class = 1</text>
</g>
<!-- 21&#45;&gt;22 -->
<g id="edge22" class="edge">
<title>21&#45;&gt;22</title>
<path fill="none" stroke="black" d="M957.5,-341.91C957.5,-331.2 957.5,-319.62 957.5,-308.78"/>
<polygon fill="black" stroke="black" points="961,-308.67 957.5,-298.67 954,-308.67 961,-308.67"/>
</g>
<!-- 23 -->
<g id="node24" class="node">
<title>23</title>
<path fill="#84ee7b" stroke="black" d="M1196,-298.5C1196,-298.5 1071,-298.5 1071,-298.5 1065,-298.5 1059,-292.5 1059,-286.5 1059,-286.5 1059,-242.5 1059,-242.5 1059,-236.5 1065,-230.5 1071,-230.5 1071,-230.5 1196,-230.5 1196,-230.5 1202,-230.5 1208,-236.5 1208,-242.5 1208,-242.5 1208,-286.5 1208,-286.5 1208,-292.5 1202,-298.5 1196,-298.5"/>
<text text-anchor="start" x="1089.5" y="-283.3" font-family="Helvetica,sans-Serif" font-size="14.00">gini = 0.375</text>
<text text-anchor="start" x="1089.5" y="-268.3" font-family="Helvetica,sans-Serif" font-size="14.00">samples = 4</text>
<text text-anchor="start" x="1067" y="-253.3" font-family="Helvetica,sans-Serif" font-size="14.00">value = [0, 3, 0, 1]</text>
<text text-anchor="start" x="1101" y="-238.3" font-family="Helvetica,sans-Serif" font-size="14.00">class = 1</text>
</g>
<!-- 21&#45;&gt;23 -->
<g id="edge23" class="edge">
<title>21&#45;&gt;23</title>
<path fill="none" stroke="black" d="M1018.56,-341.91C1036.82,-329.77 1056.79,-316.49 1074.89,-304.46"/>
<polygon fill="black" stroke="black" points="1077.22,-307.12 1083.61,-298.67 1073.34,-301.29 1077.22,-307.12"/>
</g>
<!-- 25 -->
<g id="node26" class="node">
<title>25</title>
<path fill="#e58139" stroke="black" d="M1008,-536.5C1008,-536.5 865,-536.5 865,-536.5 859,-536.5 853,-530.5 853,-524.5 853,-524.5 853,-480.5 853,-480.5 853,-474.5 859,-468.5 865,-468.5 865,-468.5 1008,-468.5 1008,-468.5 1014,-468.5 1020,-474.5 1020,-480.5 1020,-480.5 1020,-524.5 1020,-524.5 1020,-530.5 1014,-536.5 1008,-536.5"/>
<text text-anchor="start" x="901.5" y="-521.3" font-family="Helvetica,sans-Serif" font-size="14.00">gini = 0.0</text>
<text text-anchor="start" x="883.5" y="-506.3" font-family="Helvetica,sans-Serif" font-size="14.00">samples = 121</text>
<text text-anchor="start" x="861" y="-491.3" font-family="Helvetica,sans-Serif" font-size="14.00">value = [121, 0, 0, 0]</text>
<text text-anchor="start" x="904" y="-476.3" font-family="Helvetica,sans-Serif" font-size="14.00">class = 0</text>
</g>
<!-- 24&#45;&gt;25 -->
<g id="edge25" class="edge">
<title>24&#45;&gt;25</title>
<path fill="none" stroke="black" d="M938.46,-579.91C938.18,-569.2 937.89,-557.62 937.61,-546.78"/>
<polygon fill="black" stroke="black" points="941.11,-546.57 937.35,-536.67 934.11,-546.75 941.11,-546.57"/>
</g>
<!-- 26 -->
<g id="node27" class="node">
<title>26</title>
<path fill="#dafad7" stroke="black" d="M1175,-536.5C1175,-536.5 1050,-536.5 1050,-536.5 1044,-536.5 1038,-530.5 1038,-524.5 1038,-524.5 1038,-480.5 1038,-480.5 1038,-474.5 1044,-468.5 1050,-468.5 1050,-468.5 1175,-468.5 1175,-468.5 1181,-468.5 1187,-474.5 1187,-480.5 1187,-480.5 1187,-524.5 1187,-524.5 1187,-530.5 1181,-536.5 1175,-536.5"/>
<text text-anchor="start" x="1068.5" y="-521.3" font-family="Helvetica,sans-Serif" font-size="14.00">gini = 0.594</text>
<text text-anchor="start" x="1068.5" y="-506.3" font-family="Helvetica,sans-Serif" font-size="14.00">samples = 8</text>
<text text-anchor="start" x="1046" y="-491.3" font-family="Helvetica,sans-Serif" font-size="14.00">value = [1, 4, 0, 3]</text>
<text text-anchor="start" x="1080" y="-476.3" font-family="Helvetica,sans-Serif" font-size="14.00">class = 1</text>
</g>
<!-- 24&#45;&gt;26 -->
<g id="edge26" class="edge">
<title>24&#45;&gt;26</title>
<path fill="none" stroke="black" d="M999.52,-579.91C1017.47,-567.77 1037.1,-554.49 1054.89,-542.46"/>
<polygon fill="black" stroke="black" points="1057.14,-545.17 1063.46,-536.67 1053.21,-539.37 1057.14,-545.17"/>
</g>
</g>
</svg>
