<?xml version="1.0" encoding="UTF-8" standalone="no"?>
<!DOCTYPE svg PUBLIC "-//W3C//DTD SVG 1.1//EN"
 "http://www.w3.org/Graphics/SVG/1.1/DTD/svg11.dtd">
<!-- Generated by graphviz version 2.43.0 (0)
 -->
<!-- Title: Tree Pages: 1 -->
<svg width="1774pt" height="790pt"
 viewBox="0.00 0.00 1774.00 790.00" xmlns="http://www.w3.org/2000/svg" xmlns:xlink="http://www.w3.org/1999/xlink">
<g id="graph0" class="graph" transform="scale(1 1) rotate(0) translate(4 786)">
<title>Tree</title>
<polygon fill="white" stroke="transparent" points="-4,4 -4,-786 1770,-786 1770,4 -4,4"/>
<!-- 0 -->
<g id="node1" class="node">
<title>0</title>
<path fill="#ffffff" stroke="black" d="M1144,-782C1144,-782 947,-782 947,-782 941,-782 935,-776 935,-770 935,-770 935,-711 935,-711 935,-705 941,-699 947,-699 947,-699 1144,-699 1144,-699 1150,-699 1156,-705 1156,-711 1156,-711 1156,-770 1156,-770 1156,-776 1150,-782 1144,-782"/>
<text text-anchor="start" x="976" y="-766.8" font-family="Helvetica,sans-Serif" font-size="14.00">expert_4_2 ≤ 9.037</text>
<text text-anchor="start" x="997" y="-751.8" font-family="Helvetica,sans-Serif" font-size="14.00">entropy = 2.0</text>
<text text-anchor="start" x="992.5" y="-736.8" font-family="Helvetica,sans-Serif" font-size="14.00">samples = 520</text>
<text text-anchor="start" x="943" y="-721.8" font-family="Helvetica,sans-Serif" font-size="14.00">value = [130, 130, 130, 130]</text>
<text text-anchor="start" x="1013" y="-706.8" font-family="Helvetica,sans-Serif" font-size="14.00">class = 0</text>
</g>
<!-- 1 -->
<g id="node2" class="node">
<title>1</title>
<path fill="#f7fbfe" stroke="black" d="M957.5,-663C957.5,-663 787.5,-663 787.5,-663 781.5,-663 775.5,-657 775.5,-651 775.5,-651 775.5,-592 775.5,-592 775.5,-586 781.5,-580 787.5,-580 787.5,-580 957.5,-580 957.5,-580 963.5,-580 969.5,-586 969.5,-592 969.5,-592 969.5,-651 969.5,-651 969.5,-657 963.5,-663 957.5,-663"/>
<text text-anchor="start" x="803" y="-647.8" font-family="Helvetica,sans-Serif" font-size="14.00">expert_3_1 ≤ 0.956</text>
<text text-anchor="start" x="815" y="-632.8" font-family="Helvetica,sans-Serif" font-size="14.00">entropy = 1.387</text>
<text text-anchor="start" x="819.5" y="-617.8" font-family="Helvetica,sans-Serif" font-size="14.00">samples = 275</text>
<text text-anchor="start" x="783.5" y="-602.8" font-family="Helvetica,sans-Serif" font-size="14.00">value = [123, 19, 129, 4]</text>
<text text-anchor="start" x="840" y="-587.8" font-family="Helvetica,sans-Serif" font-size="14.00">class = 2</text>
</g>
<!-- 0&#45;&gt;1 -->
<g id="edge1" class="edge">
<title>0&#45;&gt;1</title>
<path fill="none" stroke="black" d="M985.48,-698.91C971.12,-689.2 955.69,-678.76 940.98,-668.81"/>
<polygon fill="black" stroke="black" points="942.66,-665.72 932.42,-663.02 938.74,-671.52 942.66,-665.72"/>
<text text-anchor="middle" x="937.16" y="-683.87" font-family="Helvetica,sans-Serif" font-size="14.00">True</text>
</g>
<!-- 18 -->
<g id="node19" class="node">
<title>18</title>
<path fill="#fbe9fc" stroke="black" d="M1350,-663C1350,-663 1135,-663 1135,-663 1129,-663 1123,-657 1123,-651 1123,-651 1123,-592 1123,-592 1123,-586 1129,-580 1135,-580 1135,-580 1350,-580 1350,-580 1356,-580 1362,-586 1362,-592 1362,-592 1362,-651 1362,-651 1362,-657 1356,-663 1350,-663"/>
<text text-anchor="start" x="1168.5" y="-647.8" font-family="Helvetica,sans-Serif" font-size="14.00">expert_0_1 ≤ 12.179</text>
<text text-anchor="start" x="1189.5" y="-632.8" font-family="Helvetica,sans-Serif" font-size="14.00">entropy = 1.19</text>
<text text-anchor="start" x="1189.5" y="-617.8" font-family="Helvetica,sans-Serif" font-size="14.00">samples = 245</text>
<text text-anchor="start" x="1131" y="-602.8" font-family="Helvetica,sans-Serif" font-size="14.00">value = [7.0, 111.0, 1.0, 126.0]</text>
<text text-anchor="start" x="1210" y="-587.8" font-family="Helvetica,sans-Serif" font-size="14.00">class = 3</text>
</g>
<!-- 0&#45;&gt;18 -->
<g id="edge18" class="edge">
<title>0&#45;&gt;18</title>
<path fill="none" stroke="black" d="M1113.85,-698.91C1130.5,-689.02 1148.43,-678.37 1165.46,-668.25"/>
<polygon fill="black" stroke="black" points="1167.46,-671.14 1174.27,-663.02 1163.89,-665.12 1167.46,-671.14"/>
<text text-anchor="middle" x="1168.1" y="-683.55" font-family="Helvetica,sans-Serif" font-size="14.00">False</text>
</g>
<!-- 2 -->
<g id="node3" class="node">
<title>2</title>
<path fill="#61b1ea" stroke="black" d="M703.5,-544C703.5,-544 551.5,-544 551.5,-544 545.5,-544 539.5,-538 539.5,-532 539.5,-532 539.5,-473 539.5,-473 539.5,-467 545.5,-461 551.5,-461 551.5,-461 703.5,-461 703.5,-461 709.5,-461 715.5,-467 715.5,-473 715.5,-473 715.5,-532 715.5,-532 715.5,-538 709.5,-544 703.5,-544"/>
<text text-anchor="start" x="553.5" y="-528.8" font-family="Helvetica,sans-Serif" font-size="14.00">expert_12_1 ≤ 7.951</text>
<text text-anchor="start" x="570" y="-513.8" font-family="Helvetica,sans-Serif" font-size="14.00">entropy = 0.861</text>
<text text-anchor="start" x="574.5" y="-498.8" font-family="Helvetica,sans-Serif" font-size="14.00">samples = 149</text>
<text text-anchor="start" x="547.5" y="-483.8" font-family="Helvetica,sans-Serif" font-size="14.00">value = [3, 19, 123, 4]</text>
<text text-anchor="start" x="595" y="-468.8" font-family="Helvetica,sans-Serif" font-size="14.00">class = 2</text>
</g>
<!-- 1&#45;&gt;2 -->
<g id="edge2" class="edge">
<title>1&#45;&gt;2</title>
<path fill="none" stroke="black" d="M787.5,-579.91C766.21,-569.74 743.26,-558.78 721.56,-548.42"/>
<polygon fill="black" stroke="black" points="722.88,-545.17 712.35,-544.02 719.87,-551.49 722.88,-545.17"/>
</g>
<!-- 15 -->
<g id="node16" class="node">
<title>15</title>
<path fill="#e68743" stroke="black" d="M944,-544C944,-544 801,-544 801,-544 795,-544 789,-538 789,-532 789,-532 789,-473 789,-473 789,-467 795,-461 801,-461 801,-461 944,-461 944,-461 950,-461 956,-467 956,-473 956,-473 956,-532 956,-532 956,-538 950,-544 944,-544"/>
<text text-anchor="start" x="798.5" y="-528.8" font-family="Helvetica,sans-Serif" font-size="14.00">expert_13_1 ≤ 0.303</text>
<text text-anchor="start" x="815" y="-513.8" font-family="Helvetica,sans-Serif" font-size="14.00">entropy = 0.276</text>
<text text-anchor="start" x="819.5" y="-498.8" font-family="Helvetica,sans-Serif" font-size="14.00">samples = 126</text>
<text text-anchor="start" x="797" y="-483.8" font-family="Helvetica,sans-Serif" font-size="14.00">value = [120, 0, 6, 0]</text>
<text text-anchor="start" x="840" y="-468.8" font-family="Helvetica,sans-Serif" font-size="14.00">class = 0</text>
</g>
<!-- 1&#45;&gt;15 -->
<g id="edge15" class="edge">
<title>1&#45;&gt;15</title>
<path fill="none" stroke="black" d="M872.5,-579.91C872.5,-571.65 872.5,-562.86 872.5,-554.3"/>
<polygon fill="black" stroke="black" points="876,-554.02 872.5,-544.02 869,-554.02 876,-554.02"/>
</g>
<!-- 3 -->
<g id="node4" class="node">
<title>3</title>
<path fill="#4ca6e7" stroke="black" d="M515,-425C515,-425 372,-425 372,-425 366,-425 360,-419 360,-413 360,-413 360,-354 360,-354 360,-348 366,-342 372,-342 372,-342 515,-342 515,-342 521,-342 527,-348 527,-354 527,-354 527,-413 527,-413 527,-419 521,-425 515,-425"/>
<text text-anchor="start" x="374" y="-409.8" font-family="Helvetica,sans-Serif" font-size="14.00">expert_4_2 ≤ 0.667</text>
<text text-anchor="start" x="386" y="-394.8" font-family="Helvetica,sans-Serif" font-size="14.00">entropy = 0.577</text>
<text text-anchor="start" x="390.5" y="-379.8" font-family="Helvetica,sans-Serif" font-size="14.00">samples = 133</text>
<text text-anchor="start" x="368" y="-364.8" font-family="Helvetica,sans-Serif" font-size="14.00">value = [3, 5, 121, 4]</text>
<text text-anchor="start" x="411" y="-349.8" font-family="Helvetica,sans-Serif" font-size="14.00">class = 2</text>
</g>
<!-- 2&#45;&gt;3 -->
<g id="edge3" class="edge">
<title>2&#45;&gt;3</title>
<path fill="none" stroke="black" d="M563.66,-460.91C548.25,-451.11 531.67,-440.56 515.89,-430.53"/>
<polygon fill="black" stroke="black" points="517.54,-427.43 507.23,-425.02 513.79,-433.34 517.54,-427.43"/>
</g>
<!-- 12 -->
<g id="node13" class="node">
<title>12</title>
<path fill="#61e955" stroke="black" d="M697.5,-425C697.5,-425 557.5,-425 557.5,-425 551.5,-425 545.5,-419 545.5,-413 545.5,-413 545.5,-354 545.5,-354 545.5,-348 551.5,-342 557.5,-342 557.5,-342 697.5,-342 697.5,-342 703.5,-342 709.5,-348 709.5,-354 709.5,-354 709.5,-413 709.5,-413 709.5,-419 703.5,-425 697.5,-425"/>
<text text-anchor="start" x="553.5" y="-409.8" font-family="Helvetica,sans-Serif" font-size="14.00">expert_10_0 ≤ 3.027</text>
<text text-anchor="start" x="570" y="-394.8" font-family="Helvetica,sans-Serif" font-size="14.00">entropy = 0.544</text>
<text text-anchor="start" x="579" y="-379.8" font-family="Helvetica,sans-Serif" font-size="14.00">samples = 16</text>
<text text-anchor="start" x="556.5" y="-364.8" font-family="Helvetica,sans-Serif" font-size="14.00">value = [0, 14, 2, 0]</text>
<text text-anchor="start" x="595" y="-349.8" font-family="Helvetica,sans-Serif" font-size="14.00">class = 1</text>
</g>
<!-- 2&#45;&gt;12 -->
<g id="edge12" class="edge">
<title>2&#45;&gt;12</title>
<path fill="none" stroke="black" d="M627.5,-460.91C627.5,-452.65 627.5,-443.86 627.5,-435.3"/>
<polygon fill="black" stroke="black" points="631,-435.02 627.5,-425.02 624,-435.02 631,-435.02"/>
</g>
<!-- 4 -->
<g id="node5" class="node">
<title>4</title>
<path fill="#3b9ee5" stroke="black" d="M334,-306C334,-306 137,-306 137,-306 131,-306 125,-300 125,-294 125,-294 125,-235 125,-235 125,-229 131,-223 137,-223 137,-223 334,-223 334,-223 340,-223 346,-229 346,-235 346,-235 346,-294 346,-294 346,-300 340,-306 334,-306"/>
<text text-anchor="start" x="170.5" y="-290.8" font-family="Helvetica,sans-Serif" font-size="14.00">expert_2_1 ≤ 2.41</text>
<text text-anchor="start" x="178" y="-275.8" font-family="Helvetica,sans-Serif" font-size="14.00">entropy = 0.079</text>
<text text-anchor="start" x="182.5" y="-260.8" font-family="Helvetica,sans-Serif" font-size="14.00">samples = 103</text>
<text text-anchor="start" x="133" y="-245.8" font-family="Helvetica,sans-Serif" font-size="14.00">value = [0.0, 1.0, 102.0, 0.0]</text>
<text text-anchor="start" x="203" y="-230.8" font-family="Helvetica,sans-Serif" font-size="14.00">class = 2</text>
</g>
<!-- 3&#45;&gt;4 -->
<g id="edge4" class="edge">
<title>3&#45;&gt;4</title>
<path fill="none" stroke="black" d="M371.34,-341.91C353.59,-331.92 334.47,-321.17 316.35,-310.98"/>
<polygon fill="black" stroke="black" points="317.97,-307.87 307.54,-306.02 314.54,-313.97 317.97,-307.87"/>
</g>
<!-- 7 -->
<g id="node8" class="node">
<title>7</title>
<path fill="#8dc6f0" stroke="black" d="M516.5,-306C516.5,-306 376.5,-306 376.5,-306 370.5,-306 364.5,-300 364.5,-294 364.5,-294 364.5,-235 364.5,-235 364.5,-229 370.5,-223 376.5,-223 376.5,-223 516.5,-223 516.5,-223 522.5,-223 528.5,-229 528.5,-235 528.5,-235 528.5,-294 528.5,-294 528.5,-300 522.5,-306 516.5,-306"/>
<text text-anchor="start" x="372.5" y="-290.8" font-family="Helvetica,sans-Serif" font-size="14.00">expert_10_2 ≤ 4.596</text>
<text text-anchor="start" x="389" y="-275.8" font-family="Helvetica,sans-Serif" font-size="14.00">entropy = 1.525</text>
<text text-anchor="start" x="398" y="-260.8" font-family="Helvetica,sans-Serif" font-size="14.00">samples = 30</text>
<text text-anchor="start" x="375.5" y="-245.8" font-family="Helvetica,sans-Serif" font-size="14.00">value = [3, 4, 19, 4]</text>
<text text-anchor="start" x="414" y="-230.8" font-family="Helvetica,sans-Serif" font-size="14.00">class = 2</text>
</g>
<!-- 3&#45;&gt;7 -->
<g id="edge7" class="edge">
<title>3&#45;&gt;7</title>
<path fill="none" stroke="black" d="M444.54,-341.91C444.75,-333.56 444.98,-324.67 445.2,-316.02"/>
<polygon fill="black" stroke="black" points="448.7,-316.11 445.46,-306.02 441.71,-315.93 448.7,-316.11"/>
</g>
<!-- 5 -->
<g id="node6" class="node">
<title>5</title>
<path fill="#55abe9" stroke="black" d="M137,-179.5C137,-179.5 12,-179.5 12,-179.5 6,-179.5 0,-173.5 0,-167.5 0,-167.5 0,-123.5 0,-123.5 0,-117.5 6,-111.5 12,-111.5 12,-111.5 137,-111.5 137,-111.5 143,-111.5 149,-117.5 149,-123.5 149,-123.5 149,-167.5 149,-167.5 149,-173.5 143,-179.5 137,-179.5"/>
<text text-anchor="start" x="17" y="-164.3" font-family="Helvetica,sans-Serif" font-size="14.00">entropy = 0.544</text>
<text text-anchor="start" x="30.5" y="-149.3" font-family="Helvetica,sans-Serif" font-size="14.00">samples = 8</text>
<text text-anchor="start" x="8" y="-134.3" font-family="Helvetica,sans-Serif" font-size="14.00">value = [0, 1, 7, 0]</text>
<text text-anchor="start" x="42" y="-119.3" font-family="Helvetica,sans-Serif" font-size="14.00">class = 2</text>
</g>
<!-- 4&#45;&gt;5 -->
<g id="edge5" class="edge">
<title>4&#45;&gt;5</title>
<path fill="none" stroke="black" d="M179.64,-222.91C163.09,-210.88 145,-197.73 128.57,-185.79"/>
<polygon fill="black" stroke="black" points="130.29,-182.71 120.14,-179.67 126.17,-188.38 130.29,-182.71"/>
</g>
<!-- 6 -->
<g id="node7" class="node">
<title>6</title>
<path fill="#399de5" stroke="black" d="M312.5,-179.5C312.5,-179.5 178.5,-179.5 178.5,-179.5 172.5,-179.5 166.5,-173.5 166.5,-167.5 166.5,-167.5 166.5,-123.5 166.5,-123.5 166.5,-117.5 172.5,-111.5 178.5,-111.5 178.5,-111.5 312.5,-111.5 312.5,-111.5 318.5,-111.5 324.5,-117.5 324.5,-123.5 324.5,-123.5 324.5,-167.5 324.5,-167.5 324.5,-173.5 318.5,-179.5 312.5,-179.5"/>
<text text-anchor="start" x="197" y="-164.3" font-family="Helvetica,sans-Serif" font-size="14.00">entropy = 0.0</text>
<text text-anchor="start" x="197" y="-149.3" font-family="Helvetica,sans-Serif" font-size="14.00">samples = 95</text>
<text text-anchor="start" x="174.5" y="-134.3" font-family="Helvetica,sans-Serif" font-size="14.00">value = [0, 0, 95, 0]</text>
<text text-anchor="start" x="213" y="-119.3" font-family="Helvetica,sans-Serif" font-size="14.00">class = 2</text>
</g>
<!-- 4&#45;&gt;6 -->
<g id="edge6" class="edge">
<title>4&#45;&gt;6</title>
<path fill="none" stroke="black" d="M238.97,-222.91C239.88,-212.2 240.87,-200.62 241.8,-189.78"/>
<polygon fill="black" stroke="black" points="245.3,-189.93 242.67,-179.67 238.33,-189.33 245.3,-189.93"/>
</g>
<!-- 8 -->
<g id="node9" class="node">
<title>8</title>
<path fill="#ffffff" stroke="black" d="M499,-179.5C499,-179.5 374,-179.5 374,-179.5 368,-179.5 362,-173.5 362,-167.5 362,-167.5 362,-123.5 362,-123.5 362,-117.5 368,-111.5 374,-111.5 374,-111.5 499,-111.5 499,-111.5 505,-111.5 511,-117.5 511,-123.5 511,-123.5 511,-167.5 511,-167.5 511,-173.5 505,-179.5 499,-179.5"/>
<text text-anchor="start" x="383.5" y="-164.3" font-family="Helvetica,sans-Serif" font-size="14.00">entropy = 1.95</text>
<text text-anchor="start" x="388" y="-149.3" font-family="Helvetica,sans-Serif" font-size="14.00">samples = 14</text>
<text text-anchor="start" x="370" y="-134.3" font-family="Helvetica,sans-Serif" font-size="14.00">value = [2, 4, 4, 4]</text>
<text text-anchor="start" x="404" y="-119.3" font-family="Helvetica,sans-Serif" font-size="14.00">class = 1</text>
</g>
<!-- 7&#45;&gt;8 -->
<g id="edge8" class="edge">
<title>7&#45;&gt;8</title>
<path fill="none" stroke="black" d="M443.03,-222.91C442.12,-212.2 441.13,-200.62 440.2,-189.78"/>
<polygon fill="black" stroke="black" points="443.67,-189.33 439.33,-179.67 436.7,-189.93 443.67,-189.33"/>
</g>
<!-- 9 -->
<g id="node10" class="node">
<title>9</title>
<path fill="#46a4e7" stroke="black" d="M681.5,-187C681.5,-187 541.5,-187 541.5,-187 535.5,-187 529.5,-181 529.5,-175 529.5,-175 529.5,-116 529.5,-116 529.5,-110 535.5,-104 541.5,-104 541.5,-104 681.5,-104 681.5,-104 687.5,-104 693.5,-110 693.5,-116 693.5,-116 693.5,-175 693.5,-175 693.5,-181 687.5,-187 681.5,-187"/>
<text text-anchor="start" x="537.5" y="-171.8" font-family="Helvetica,sans-Serif" font-size="14.00">expert_22_2 ≤ 0.913</text>
<text text-anchor="start" x="554" y="-156.8" font-family="Helvetica,sans-Serif" font-size="14.00">entropy = 0.337</text>
<text text-anchor="start" x="563" y="-141.8" font-family="Helvetica,sans-Serif" font-size="14.00">samples = 16</text>
<text text-anchor="start" x="540.5" y="-126.8" font-family="Helvetica,sans-Serif" font-size="14.00">value = [1, 0, 15, 0]</text>
<text text-anchor="start" x="579" y="-111.8" font-family="Helvetica,sans-Serif" font-size="14.00">class = 2</text>
</g>
<!-- 7&#45;&gt;9 -->
<g id="edge9" class="edge">
<title>7&#45;&gt;9</title>
<path fill="none" stroke="black" d="M503.75,-222.91C517.44,-213.2 532.16,-202.76 546.19,-192.81"/>
<polygon fill="black" stroke="black" points="548.22,-195.66 554.36,-187.02 544.17,-189.95 548.22,-195.66"/>
</g>
<!-- 10 -->
<g id="node11" class="node">
<title>10</title>
<path fill="#399de5" stroke="black" d="M590,-68C590,-68 465,-68 465,-68 459,-68 453,-62 453,-56 453,-56 453,-12 453,-12 453,-6 459,0 465,0 465,0 590,0 590,0 596,0 602,-6 602,-12 602,-12 602,-56 602,-56 602,-62 596,-68 590,-68"/>
<text text-anchor="start" x="479" y="-52.8" font-family="Helvetica,sans-Serif" font-size="14.00">entropy = 0.0</text>
<text text-anchor="start" x="483.5" y="-37.8" font-family="Helvetica,sans-Serif" font-size="14.00">samples = 8</text>
<text text-anchor="start" x="461" y="-22.8" font-family="Helvetica,sans-Serif" font-size="14.00">value = [0, 0, 8, 0]</text>
<text text-anchor="start" x="495" y="-7.8" font-family="Helvetica,sans-Serif" font-size="14.00">class = 2</text>
</g>
<!-- 9&#45;&gt;10 -->
<g id="edge10" class="edge">
<title>9&#45;&gt;10</title>
<path fill="none" stroke="black" d="M580.22,-103.73C573.36,-94.79 566.1,-85.32 559.22,-76.36"/>
<polygon fill="black" stroke="black" points="561.91,-74.1 553.04,-68.3 556.35,-78.36 561.91,-74.1"/>
</g>
<!-- 11 -->
<g id="node12" class="node">
<title>11</title>
<path fill="#55abe9" stroke="black" d="M757,-68C757,-68 632,-68 632,-68 626,-68 620,-62 620,-56 620,-56 620,-12 620,-12 620,-6 626,0 632,0 632,0 757,0 757,0 763,0 769,-6 769,-12 769,-12 769,-56 769,-56 769,-62 763,-68 757,-68"/>
<text text-anchor="start" x="637" y="-52.8" font-family="Helvetica,sans-Serif" font-size="14.00">entropy = 0.544</text>
<text text-anchor="start" x="650.5" y="-37.8" font-family="Helvetica,sans-Serif" font-size="14.00">samples = 8</text>
<text text-anchor="start" x="628" y="-22.8" font-family="Helvetica,sans-Serif" font-size="14.00">value = [1, 0, 7, 0]</text>
<text text-anchor="start" x="662" y="-7.8" font-family="Helvetica,sans-Serif" font-size="14.00">class = 2</text>
</g>
<!-- 9&#45;&gt;11 -->
<g id="edge11" class="edge">
<title>9&#45;&gt;11</title>
<path fill="none" stroke="black" d="M642.41,-103.73C649.18,-94.79 656.36,-85.32 663.15,-76.36"/>
<polygon fill="black" stroke="black" points="666.01,-78.38 669.26,-68.3 660.43,-74.15 666.01,-78.38"/>
</g>
<!-- 13 -->
<g id="node14" class="node">
<title>13</title>
<path fill="#47e539" stroke="black" d="M688,-298.5C688,-298.5 563,-298.5 563,-298.5 557,-298.5 551,-292.5 551,-286.5 551,-286.5 551,-242.5 551,-242.5 551,-236.5 557,-230.5 563,-230.5 563,-230.5 688,-230.5 688,-230.5 694,-230.5 700,-236.5 700,-242.5 700,-242.5 700,-286.5 700,-286.5 700,-292.5 694,-298.5 688,-298.5"/>
<text text-anchor="start" x="577" y="-283.3" font-family="Helvetica,sans-Serif" font-size="14.00">entropy = 0.0</text>
<text text-anchor="start" x="581.5" y="-268.3" font-family="Helvetica,sans-Serif" font-size="14.00">samples = 8</text>
<text text-anchor="start" x="559" y="-253.3" font-family="Helvetica,sans-Serif" font-size="14.00">value = [0, 8, 0, 0]</text>
<text text-anchor="start" x="593" y="-238.3" font-family="Helvetica,sans-Serif" font-size="14.00">class = 1</text>
</g>
<!-- 12&#45;&gt;13 -->
<g id="edge13" class="edge">
<title>12&#45;&gt;13</title>
<path fill="none" stroke="black" d="M626.81,-341.91C626.62,-331.2 626.43,-319.62 626.24,-308.78"/>
<polygon fill="black" stroke="black" points="629.74,-308.61 626.07,-298.67 622.74,-308.73 629.74,-308.61"/>
</g>
<!-- 14 -->
<g id="node15" class="node">
<title>14</title>
<path fill="#84ee7b" stroke="black" d="M855,-298.5C855,-298.5 730,-298.5 730,-298.5 724,-298.5 718,-292.5 718,-286.5 718,-286.5 718,-242.5 718,-242.5 718,-236.5 724,-230.5 730,-230.5 730,-230.5 855,-230.5 855,-230.5 861,-230.5 867,-236.5 867,-242.5 867,-242.5 867,-286.5 867,-286.5 867,-292.5 861,-298.5 855,-298.5"/>
<text text-anchor="start" x="735" y="-283.3" font-family="Helvetica,sans-Serif" font-size="14.00">entropy = 0.811</text>
<text text-anchor="start" x="748.5" y="-268.3" font-family="Helvetica,sans-Serif" font-size="14.00">samples = 8</text>
<text text-anchor="start" x="726" y="-253.3" font-family="Helvetica,sans-Serif" font-size="14.00">value = [0, 6, 2, 0]</text>
<text text-anchor="start" x="760" y="-238.3" font-family="Helvetica,sans-Serif" font-size="14.00">class = 1</text>
</g>
<!-- 12&#45;&gt;14 -->
<g id="edge14" class="edge">
<title>12&#45;&gt;14</title>
<path fill="none" stroke="black" d="M684.75,-341.91C701.86,-329.77 720.59,-316.49 737.55,-304.46"/>
<polygon fill="black" stroke="black" points="739.59,-307.31 745.73,-298.67 735.54,-301.6 739.59,-307.31"/>
</g>
<!-- 16 -->
<g id="node17" class="node">
<title>16</title>
<path fill="#e58139" stroke="black" d="M883,-417.5C883,-417.5 740,-417.5 740,-417.5 734,-417.5 728,-411.5 728,-405.5 728,-405.5 728,-361.5 728,-361.5 728,-355.5 734,-349.5 740,-349.5 740,-349.5 883,-349.5 883,-349.5 889,-349.5 895,-355.5 895,-361.5 895,-361.5 895,-405.5 895,-405.5 895,-411.5 889,-417.5 883,-417.5"/>
<text text-anchor="start" x="763" y="-402.3" font-family="Helvetica,sans-Serif" font-size="14.00">entropy = 0.0</text>
<text text-anchor="start" x="758.5" y="-387.3" font-family="Helvetica,sans-Serif" font-size="14.00">samples = 118</text>
<text text-anchor="start" x="736" y="-372.3" font-family="Helvetica,sans-Serif" font-size="14.00">value = [118, 0, 0, 0]</text>
<text text-anchor="start" x="779" y="-357.3" font-family="Helvetica,sans-Serif" font-size="14.00">class = 0</text>
</g>
<!-- 15&#45;&gt;16 -->
<g id="edge16" class="edge">
<title>15&#45;&gt;16</title>
<path fill="none" stroke="black" d="M851.34,-460.91C845.58,-449.87 839.34,-437.9 833.54,-426.77"/>
<polygon fill="black" stroke="black" points="836.52,-424.92 828.79,-417.67 830.31,-428.15 836.52,-424.92"/>
</g>
<!-- 17 -->
<g id="node18" class="node">
<title>17</title>
<path fill="#7bbeee" stroke="black" d="M1050,-417.5C1050,-417.5 925,-417.5 925,-417.5 919,-417.5 913,-411.5 913,-405.5 913,-405.5 913,-361.5 913,-361.5 913,-355.5 919,-349.5 925,-349.5 925,-349.5 1050,-349.5 1050,-349.5 1056,-349.5 1062,-355.5 1062,-361.5 1062,-361.5 1062,-405.5 1062,-405.5 1062,-411.5 1056,-417.5 1050,-417.5"/>
<text text-anchor="start" x="930" y="-402.3" font-family="Helvetica,sans-Serif" font-size="14.00">entropy = 0.811</text>
<text text-anchor="start" x="943.5" y="-387.3" font-family="Helvetica,sans-Serif" font-size="14.00">samples = 8</text>
<text text-anchor="start" x="921" y="-372.3" font-family="Helvetica,sans-Serif" font-size="14.00">value = [2, 0, 6, 0]</text>
<text text-anchor="start" x="955" y="-357.3" font-family="Helvetica,sans-Serif" font-size="14.00">class = 2</text>
</g>
<!-- 15&#45;&gt;17 -->
<g id="edge17" class="edge">
<title>15&#45;&gt;17</title>
<path fill="none" stroke="black" d="M912.4,-460.91C923.79,-449.32 936.19,-436.7 947.58,-425.11"/>
<polygon fill="black" stroke="black" points="950.39,-427.25 954.9,-417.67 945.39,-422.35 950.39,-427.25"/>
</g>
<!-- 19 -->
<g id="node20" class="node">
<title>19</title>
<path fill="#da46e7" stroke="black" d="M1314,-544C1314,-544 1171,-544 1171,-544 1165,-544 1159,-538 1159,-532 1159,-532 1159,-473 1159,-473 1159,-467 1165,-461 1171,-461 1171,-461 1314,-461 1314,-461 1320,-461 1326,-467 1326,-473 1326,-473 1326,-532 1326,-532 1326,-538 1320,-544 1314,-544"/>
<text text-anchor="start" x="1168.5" y="-528.8" font-family="Helvetica,sans-Serif" font-size="14.00">expert_18_1 ≤ 1.364</text>
<text text-anchor="start" x="1185" y="-513.8" font-family="Helvetica,sans-Serif" font-size="14.00">entropy = 0.365</text>
<text text-anchor="start" x="1189.5" y="-498.8" font-family="Helvetica,sans-Serif" font-size="14.00">samples = 131</text>
<text text-anchor="start" x="1167" y="-483.8" font-family="Helvetica,sans-Serif" font-size="14.00">value = [7, 0, 1, 123]</text>
<text text-anchor="start" x="1210" y="-468.8" font-family="Helvetica,sans-Serif" font-size="14.00">class = 3</text>
</g>
<!-- 18&#45;&gt;19 -->
<g id="edge19" class="edge">
<title>18&#45;&gt;19</title>
<path fill="none" stroke="black" d="M1242.5,-579.91C1242.5,-571.65 1242.5,-562.86 1242.5,-554.3"/>
<polygon fill="black" stroke="black" points="1246,-554.02 1242.5,-544.02 1239,-554.02 1246,-554.02"/>
</g>
<!-- 24 -->
<g id="node25" class="node">
<title>24</title>
<path fill="#4ce63e" stroke="black" d="M1578,-544C1578,-544 1435,-544 1435,-544 1429,-544 1423,-538 1423,-532 1423,-532 1423,-473 1423,-473 1423,-467 1429,-461 1435,-461 1435,-461 1578,-461 1578,-461 1584,-461 1590,-467 1590,-473 1590,-473 1590,-532 1590,-532 1590,-538 1584,-544 1578,-544"/>
<text text-anchor="start" x="1432.5" y="-528.8" font-family="Helvetica,sans-Serif" font-size="14.00">expert_0_1 ≤ 23.816</text>
<text text-anchor="start" x="1449" y="-513.8" font-family="Helvetica,sans-Serif" font-size="14.00">entropy = 0.176</text>
<text text-anchor="start" x="1453.5" y="-498.8" font-family="Helvetica,sans-Serif" font-size="14.00">samples = 114</text>
<text text-anchor="start" x="1431" y="-483.8" font-family="Helvetica,sans-Serif" font-size="14.00">value = [0, 111, 0, 3]</text>
<text text-anchor="start" x="1474" y="-468.8" font-family="Helvetica,sans-Serif" font-size="14.00">class = 1</text>
</g>
<!-- 18&#45;&gt;24 -->
<g id="edge24" class="edge">
<title>18&#45;&gt;24</title>
<path fill="none" stroke="black" d="M1334.09,-579.91C1359.69,-568.56 1387.53,-556.22 1413.23,-544.84"/>
<polygon fill="black" stroke="black" points="1414.87,-547.94 1422.59,-540.69 1412.03,-541.54 1414.87,-547.94"/>
</g>
<!-- 20 -->
<g id="node21" class="node">
<title>20</title>
<path fill="#d73be5" stroke="black" d="M1235,-425C1235,-425 1092,-425 1092,-425 1086,-425 1080,-419 1080,-413 1080,-413 1080,-354 1080,-354 1080,-348 1086,-342 1092,-342 1092,-342 1235,-342 1235,-342 1241,-342 1247,-348 1247,-354 1247,-354 1247,-413 1247,-413 1247,-419 1241,-425 1235,-425"/>
<text text-anchor="start" x="1094" y="-409.8" font-family="Helvetica,sans-Serif" font-size="14.00">expert_3_0 ≤ 1.813</text>
<text text-anchor="start" x="1106" y="-394.8" font-family="Helvetica,sans-Serif" font-size="14.00">entropy = 0.071</text>
<text text-anchor="start" x="1110.5" y="-379.8" font-family="Helvetica,sans-Serif" font-size="14.00">samples = 118</text>
<text text-anchor="start" x="1088" y="-364.8" font-family="Helvetica,sans-Serif" font-size="14.00">value = [0, 0, 1, 117]</text>
<text text-anchor="start" x="1131" y="-349.8" font-family="Helvetica,sans-Serif" font-size="14.00">class = 3</text>
</g>
<!-- 19&#45;&gt;20 -->
<g id="edge20" class="edge">
<title>19&#45;&gt;20</title>
<path fill="none" stroke="black" d="M1215.09,-460.91C1209.09,-452.01 1202.67,-442.51 1196.47,-433.33"/>
<polygon fill="black" stroke="black" points="1199.36,-431.35 1190.86,-425.02 1193.56,-435.27 1199.36,-431.35"/>
</g>
<!-- 23 -->
<g id="node24" class="node">
<title>23</title>
<path fill="#fbede3" stroke="black" d="M1402,-417.5C1402,-417.5 1277,-417.5 1277,-417.5 1271,-417.5 1265,-411.5 1265,-405.5 1265,-405.5 1265,-361.5 1265,-361.5 1265,-355.5 1271,-349.5 1277,-349.5 1277,-349.5 1402,-349.5 1402,-349.5 1408,-349.5 1414,-355.5 1414,-361.5 1414,-361.5 1414,-405.5 1414,-405.5 1414,-411.5 1408,-417.5 1402,-417.5"/>
<text text-anchor="start" x="1282" y="-402.3" font-family="Helvetica,sans-Serif" font-size="14.00">entropy = 0.996</text>
<text text-anchor="start" x="1291" y="-387.3" font-family="Helvetica,sans-Serif" font-size="14.00">samples = 13</text>
<text text-anchor="start" x="1273" y="-372.3" font-family="Helvetica,sans-Serif" font-size="14.00">value = [7, 0, 0, 6]</text>
<text text-anchor="start" x="1307" y="-357.3" font-family="Helvetica,sans-Serif" font-size="14.00">class = 0</text>
</g>
<!-- 19&#45;&gt;23 -->
<g id="edge23" class="edge">
<title>19&#45;&gt;23</title>
<path fill="none" stroke="black" d="M1276.15,-460.91C1285.67,-449.43 1296.03,-436.94 1305.56,-425.44"/>
<polygon fill="black" stroke="black" points="1308.31,-427.6 1312,-417.67 1302.93,-423.13 1308.31,-427.6"/>
</g>
<!-- 21 -->
<g id="node22" class="node">
<title>21</title>
<path fill="#d739e5" stroke="black" d="M1147,-298.5C1147,-298.5 1004,-298.5 1004,-298.5 998,-298.5 992,-292.5 992,-286.5 992,-286.5 992,-242.5 992,-242.5 992,-236.5 998,-230.5 1004,-230.5 1004,-230.5 1147,-230.5 1147,-230.5 1153,-230.5 1159,-236.5 1159,-242.5 1159,-242.5 1159,-286.5 1159,-286.5 1159,-292.5 1153,-298.5 1147,-298.5"/>
<text text-anchor="start" x="1027" y="-283.3" font-family="Helvetica,sans-Serif" font-size="14.00">entropy = 0.0</text>
<text text-anchor="start" x="1022.5" y="-268.3" font-family="Helvetica,sans-Serif" font-size="14.00">samples = 110</text>
<text text-anchor="start" x="1000" y="-253.3" font-family="Helvetica,sans-Serif" font-size="14.00">value = [0, 0, 0, 110]</text>
<text text-anchor="start" x="1043" y="-238.3" font-family="Helvetica,sans-Serif" font-size="14.00">class = 3</text>
</g>
<!-- 20&#45;&gt;21 -->
<g id="edge21" class="edge">
<title>20&#45;&gt;21</title>
<path fill="none" stroke="black" d="M1132.97,-341.91C1124.42,-330.54 1115.12,-318.18 1106.54,-306.77"/>
<polygon fill="black" stroke="black" points="1109.25,-304.55 1100.45,-298.67 1103.66,-308.76 1109.25,-304.55"/>
</g>
<!-- 22 -->
<g id="node23" class="node">
<title>22</title>
<path fill="#dd55e9" stroke="black" d="M1314,-298.5C1314,-298.5 1189,-298.5 1189,-298.5 1183,-298.5 1177,-292.5 1177,-286.5 1177,-286.5 1177,-242.5 1177,-242.5 1177,-236.5 1183,-230.5 1189,-230.5 1189,-230.5 1314,-230.5 1314,-230.5 1320,-230.5 1326,-236.5 1326,-242.5 1326,-242.5 1326,-286.5 1326,-286.5 1326,-292.5 1320,-298.5 1314,-298.5"/>
<text text-anchor="start" x="1194" y="-283.3" font-family="Helvetica,sans-Serif" font-size="14.00">entropy = 0.544</text>
<text text-anchor="start" x="1207.5" y="-268.3" font-family="Helvetica,sans-Serif" font-size="14.00">samples = 8</text>
<text text-anchor="start" x="1185" y="-253.3" font-family="Helvetica,sans-Serif" font-size="14.00">value = [0, 0, 1, 7]</text>
<text text-anchor="start" x="1219" y="-238.3" font-family="Helvetica,sans-Serif" font-size="14.00">class = 3</text>
</g>
<!-- 20&#45;&gt;22 -->
<g id="edge22" class="edge">
<title>20&#45;&gt;22</title>
<path fill="none" stroke="black" d="M1194.03,-341.91C1202.58,-330.54 1211.88,-318.18 1220.46,-306.77"/>
<polygon fill="black" stroke="black" points="1223.34,-308.76 1226.55,-298.67 1217.75,-304.55 1223.34,-308.76"/>
</g>
<!-- 25 -->
<g id="node26" class="node">
<title>25</title>
<path fill="#84ee7b" stroke="black" d="M1569,-417.5C1569,-417.5 1444,-417.5 1444,-417.5 1438,-417.5 1432,-411.5 1432,-405.5 1432,-405.5 1432,-361.5 1432,-361.5 1432,-355.5 1438,-349.5 1444,-349.5 1444,-349.5 1569,-349.5 1569,-349.5 1575,-349.5 1581,-355.5 1581,-361.5 1581,-361.5 1581,-405.5 1581,-405.5 1581,-411.5 1575,-417.5 1569,-417.5"/>
<text text-anchor="start" x="1449" y="-402.3" font-family="Helvetica,sans-Serif" font-size="14.00">entropy = 0.811</text>
<text text-anchor="start" x="1458" y="-387.3" font-family="Helvetica,sans-Serif" font-size="14.00">samples = 12</text>
<text text-anchor="start" x="1440" y="-372.3" font-family="Helvetica,sans-Serif" font-size="14.00">value = [0, 9, 0, 3]</text>
<text text-anchor="start" x="1474" y="-357.3" font-family="Helvetica,sans-Serif" font-size="14.00">class = 1</text>
</g>
<!-- 24&#45;&gt;25 -->
<g id="edge25" class="edge">
<title>24&#45;&gt;25</title>
<path fill="none" stroke="black" d="M1506.5,-460.91C1506.5,-450.2 1506.5,-438.62 1506.5,-427.78"/>
<polygon fill="black" stroke="black" points="1510,-427.67 1506.5,-417.67 1503,-427.67 1510,-427.67"/>
</g>
<!-- 26 -->
<g id="node27" class="node">
<title>26</title>
<path fill="#47e539" stroke="black" d="M1754,-417.5C1754,-417.5 1611,-417.5 1611,-417.5 1605,-417.5 1599,-411.5 1599,-405.5 1599,-405.5 1599,-361.5 1599,-361.5 1599,-355.5 1605,-349.5 1611,-349.5 1611,-349.5 1754,-349.5 1754,-349.5 1760,-349.5 1766,-355.5 1766,-361.5 1766,-361.5 1766,-405.5 1766,-405.5 1766,-411.5 1760,-417.5 1754,-417.5"/>
<text text-anchor="start" x="1634" y="-402.3" font-family="Helvetica,sans-Serif" font-size="14.00">entropy = 0.0</text>
<text text-anchor="start" x="1629.5" y="-387.3" font-family="Helvetica,sans-Serif" font-size="14.00">samples = 102</text>
<text text-anchor="start" x="1607" y="-372.3" font-family="Helvetica,sans-Serif" font-size="14.00">value = [0, 102, 0, 0]</text>
<text text-anchor="start" x="1650" y="-357.3" font-family="Helvetica,sans-Serif" font-size="14.00">class = 1</text>
</g>
<!-- 24&#45;&gt;26 -->
<g id="edge26" class="edge">
<title>24&#45;&gt;26</title>
<path fill="none" stroke="black" d="M1567.56,-460.91C1585.82,-448.77 1605.79,-435.49 1623.89,-423.46"/>
<polygon fill="black" stroke="black" points="1626.22,-426.12 1632.61,-417.67 1622.34,-420.29 1626.22,-426.12"/>
</g>
</g>
</svg>
