<?xml version="1.0" encoding="UTF-8" standalone="no"?>
<!DOCTYPE svg PUBLIC "-//W3C//DTD SVG 1.1//EN"
 "http://www.w3.org/Graphics/SVG/1.1/DTD/svg11.dtd">
<!-- Generated by graphviz version 2.43.0 (0)
 -->
<!-- Title: Tree Pages: 1 -->
<svg width="1782pt" height="790pt"
 viewBox="0.00 0.00 1782.00 790.00" xmlns="http://www.w3.org/2000/svg" xmlns:xlink="http://www.w3.org/1999/xlink">
<g id="graph0" class="graph" transform="scale(1 1) rotate(0) translate(4 786)">
<title>Tree</title>
<polygon fill="white" stroke="transparent" points="-4,4 -4,-786 1778,-786 1778,4 -4,4"/>
<!-- 0 -->
<g id="node1" class="node">
<title>0</title>
<path fill="#ffffff" stroke="black" d="M1152,-782C1152,-782 955,-782 955,-782 949,-782 943,-776 943,-770 943,-770 943,-711 943,-711 943,-705 949,-699 955,-699 955,-699 1152,-699 1152,-699 1158,-699 1164,-705 1164,-711 1164,-711 1164,-770 1164,-770 1164,-776 1158,-782 1152,-782"/>
<text text-anchor="start" x="984" y="-766.8" font-family="Helvetica,sans-Serif" font-size="14.00">expert_4_2 ≤ 9.037</text>
<text text-anchor="start" x="1005" y="-751.8" font-family="Helvetica,sans-Serif" font-size="14.00">entropy = 2.0</text>
<text text-anchor="start" x="1000.5" y="-736.8" font-family="Helvetica,sans-Serif" font-size="14.00">samples = 520</text>
<text text-anchor="start" x="951" y="-721.8" font-family="Helvetica,sans-Serif" font-size="14.00">value = [130, 130, 130, 130]</text>
<text text-anchor="start" x="1021" y="-706.8" font-family="Helvetica,sans-Serif" font-size="14.00">class = 0</text>
</g>
<!-- 1 -->
<g id="node2" class="node">
<title>1</title>
<path fill="#f7fbfe" stroke="black" d="M965.5,-663C965.5,-663 795.5,-663 795.5,-663 789.5,-663 783.5,-657 783.5,-651 783.5,-651 783.5,-592 783.5,-592 783.5,-586 789.5,-580 795.5,-580 795.5,-580 965.5,-580 965.5,-580 971.5,-580 977.5,-586 977.5,-592 977.5,-592 977.5,-651 977.5,-651 977.5,-657 971.5,-663 965.5,-663"/>
<text text-anchor="start" x="811" y="-647.8" font-family="Helvetica,sans-Serif" font-size="14.00">expert_3_1 ≤ 0.956</text>
<text text-anchor="start" x="823" y="-632.8" font-family="Helvetica,sans-Serif" font-size="14.00">entropy = 1.387</text>
<text text-anchor="start" x="827.5" y="-617.8" font-family="Helvetica,sans-Serif" font-size="14.00">samples = 275</text>
<text text-anchor="start" x="791.5" y="-602.8" font-family="Helvetica,sans-Serif" font-size="14.00">value = [123, 19, 129, 4]</text>
<text text-anchor="start" x="848" y="-587.8" font-family="Helvetica,sans-Serif" font-size="14.00">class = 2</text>
</g>
<!-- 0&#45;&gt;1 -->
<g id="edge1" class="edge">
<title>0&#45;&gt;1</title>
<path fill="none" stroke="black" d="M993.48,-698.91C979.12,-689.2 963.69,-678.76 948.98,-668.81"/>
<polygon fill="black" stroke="black" points="950.66,-665.72 940.42,-663.02 946.74,-671.52 950.66,-665.72"/>
<text text-anchor="middle" x="945.16" y="-683.87" font-family="Helvetica,sans-Serif" font-size="14.00">True</text>
</g>
<!-- 20 -->
<g id="node21" class="node">
<title>20</title>
<path fill="#fbe9fc" stroke="black" d="M1362,-663C1362,-663 1147,-663 1147,-663 1141,-663 1135,-657 1135,-651 1135,-651 1135,-592 1135,-592 1135,-586 1141,-580 1147,-580 1147,-580 1362,-580 1362,-580 1368,-580 1374,-586 1374,-592 1374,-592 1374,-651 1374,-651 1374,-657 1368,-663 1362,-663"/>
<text text-anchor="start" x="1180.5" y="-647.8" font-family="Helvetica,sans-Serif" font-size="14.00">expert_0_2 ≤ 13.945</text>
<text text-anchor="start" x="1201.5" y="-632.8" font-family="Helvetica,sans-Serif" font-size="14.00">entropy = 1.19</text>
<text text-anchor="start" x="1201.5" y="-617.8" font-family="Helvetica,sans-Serif" font-size="14.00">samples = 245</text>
<text text-anchor="start" x="1143" y="-602.8" font-family="Helvetica,sans-Serif" font-size="14.00">value = [7.0, 111.0, 1.0, 126.0]</text>
<text text-anchor="start" x="1222" y="-587.8" font-family="Helvetica,sans-Serif" font-size="14.00">class = 3</text>
</g>
<!-- 0&#45;&gt;20 -->
<g id="edge20" class="edge">
<title>0&#45;&gt;20</title>
<path fill="none" stroke="black" d="M1123.24,-698.91C1140.23,-689.02 1158.52,-678.37 1175.9,-668.25"/>
<polygon fill="black" stroke="black" points="1178.01,-671.08 1184.89,-663.02 1174.48,-665.03 1178.01,-671.08"/>
<text text-anchor="middle" x="1178.5" y="-683.49" font-family="Helvetica,sans-Serif" font-size="14.00">False</text>
</g>
<!-- 2 -->
<g id="node3" class="node">
<title>2</title>
<path fill="#61b1ea" stroke="black" d="M711.5,-544C711.5,-544 559.5,-544 559.5,-544 553.5,-544 547.5,-538 547.5,-532 547.5,-532 547.5,-473 547.5,-473 547.5,-467 553.5,-461 559.5,-461 559.5,-461 711.5,-461 711.5,-461 717.5,-461 723.5,-467 723.5,-473 723.5,-473 723.5,-532 723.5,-532 723.5,-538 717.5,-544 711.5,-544"/>
<text text-anchor="start" x="561.5" y="-528.8" font-family="Helvetica,sans-Serif" font-size="14.00">expert_12_1 ≤ 7.951</text>
<text text-anchor="start" x="578" y="-513.8" font-family="Helvetica,sans-Serif" font-size="14.00">entropy = 0.861</text>
<text text-anchor="start" x="582.5" y="-498.8" font-family="Helvetica,sans-Serif" font-size="14.00">samples = 149</text>
<text text-anchor="start" x="555.5" y="-483.8" font-family="Helvetica,sans-Serif" font-size="14.00">value = [3, 19, 123, 4]</text>
<text text-anchor="start" x="603" y="-468.8" font-family="Helvetica,sans-Serif" font-size="14.00">class = 2</text>
</g>
<!-- 1&#45;&gt;2 -->
<g id="edge2" class="edge">
<title>1&#45;&gt;2</title>
<path fill="none" stroke="black" d="M795.5,-579.91C774.21,-569.74 751.26,-558.78 729.56,-548.42"/>
<polygon fill="black" stroke="black" points="730.88,-545.17 720.35,-544.02 727.87,-551.49 730.88,-545.17"/>
</g>
<!-- 17 -->
<g id="node18" class="node">
<title>17</title>
<path fill="#e68743" stroke="black" d="M952,-544C952,-544 809,-544 809,-544 803,-544 797,-538 797,-532 797,-532 797,-473 797,-473 797,-467 803,-461 809,-461 809,-461 952,-461 952,-461 958,-461 964,-467 964,-473 964,-473 964,-532 964,-532 964,-538 958,-544 952,-544"/>
<text text-anchor="start" x="806.5" y="-528.8" font-family="Helvetica,sans-Serif" font-size="14.00">expert_13_1 ≤ 0.312</text>
<text text-anchor="start" x="823" y="-513.8" font-family="Helvetica,sans-Serif" font-size="14.00">entropy = 0.276</text>
<text text-anchor="start" x="827.5" y="-498.8" font-family="Helvetica,sans-Serif" font-size="14.00">samples = 126</text>
<text text-anchor="start" x="805" y="-483.8" font-family="Helvetica,sans-Serif" font-size="14.00">value = [120, 0, 6, 0]</text>
<text text-anchor="start" x="848" y="-468.8" font-family="Helvetica,sans-Serif" font-size="14.00">class = 0</text>
</g>
<!-- 1&#45;&gt;17 -->
<g id="edge17" class="edge">
<title>1&#45;&gt;17</title>
<path fill="none" stroke="black" d="M880.5,-579.91C880.5,-571.65 880.5,-562.86 880.5,-554.3"/>
<polygon fill="black" stroke="black" points="884,-554.02 880.5,-544.02 877,-554.02 884,-554.02"/>
</g>
<!-- 3 -->
<g id="node4" class="node">
<title>3</title>
<path fill="#4ca6e7" stroke="black" d="M523,-425C523,-425 380,-425 380,-425 374,-425 368,-419 368,-413 368,-413 368,-354 368,-354 368,-348 374,-342 380,-342 380,-342 523,-342 523,-342 529,-342 535,-348 535,-354 535,-354 535,-413 535,-413 535,-419 529,-425 523,-425"/>
<text text-anchor="start" x="382" y="-409.8" font-family="Helvetica,sans-Serif" font-size="14.00">expert_4_2 ≤ 0.667</text>
<text text-anchor="start" x="394" y="-394.8" font-family="Helvetica,sans-Serif" font-size="14.00">entropy = 0.577</text>
<text text-anchor="start" x="398.5" y="-379.8" font-family="Helvetica,sans-Serif" font-size="14.00">samples = 133</text>
<text text-anchor="start" x="376" y="-364.8" font-family="Helvetica,sans-Serif" font-size="14.00">value = [3, 5, 121, 4]</text>
<text text-anchor="start" x="419" y="-349.8" font-family="Helvetica,sans-Serif" font-size="14.00">class = 2</text>
</g>
<!-- 2&#45;&gt;3 -->
<g id="edge3" class="edge">
<title>2&#45;&gt;3</title>
<path fill="none" stroke="black" d="M571.66,-460.91C556.25,-451.11 539.67,-440.56 523.89,-430.53"/>
<polygon fill="black" stroke="black" points="525.54,-427.43 515.23,-425.02 521.79,-433.34 525.54,-427.43"/>
</g>
<!-- 14 -->
<g id="node15" class="node">
<title>14</title>
<path fill="#61e955" stroke="black" d="M705.5,-425C705.5,-425 565.5,-425 565.5,-425 559.5,-425 553.5,-419 553.5,-413 553.5,-413 553.5,-354 553.5,-354 553.5,-348 559.5,-342 565.5,-342 565.5,-342 705.5,-342 705.5,-342 711.5,-342 717.5,-348 717.5,-354 717.5,-354 717.5,-413 717.5,-413 717.5,-419 711.5,-425 705.5,-425"/>
<text text-anchor="start" x="561.5" y="-409.8" font-family="Helvetica,sans-Serif" font-size="14.00">expert_20_2 ≤ 1.516</text>
<text text-anchor="start" x="578" y="-394.8" font-family="Helvetica,sans-Serif" font-size="14.00">entropy = 0.544</text>
<text text-anchor="start" x="587" y="-379.8" font-family="Helvetica,sans-Serif" font-size="14.00">samples = 16</text>
<text text-anchor="start" x="564.5" y="-364.8" font-family="Helvetica,sans-Serif" font-size="14.00">value = [0, 14, 2, 0]</text>
<text text-anchor="start" x="603" y="-349.8" font-family="Helvetica,sans-Serif" font-size="14.00">class = 1</text>
</g>
<!-- 2&#45;&gt;14 -->
<g id="edge14" class="edge">
<title>2&#45;&gt;14</title>
<path fill="none" stroke="black" d="M635.5,-460.91C635.5,-452.65 635.5,-443.86 635.5,-435.3"/>
<polygon fill="black" stroke="black" points="639,-435.02 635.5,-425.02 632,-435.02 639,-435.02"/>
</g>
<!-- 4 -->
<g id="node5" class="node">
<title>4</title>
<path fill="#3b9ee5" stroke="black" d="M341,-306C341,-306 144,-306 144,-306 138,-306 132,-300 132,-294 132,-294 132,-235 132,-235 132,-229 138,-223 144,-223 144,-223 341,-223 341,-223 347,-223 353,-229 353,-235 353,-235 353,-294 353,-294 353,-300 347,-306 341,-306"/>
<text text-anchor="start" x="168.5" y="-290.8" font-family="Helvetica,sans-Serif" font-size="14.00">expert_10_2 ≤ 0.886</text>
<text text-anchor="start" x="185" y="-275.8" font-family="Helvetica,sans-Serif" font-size="14.00">entropy = 0.079</text>
<text text-anchor="start" x="189.5" y="-260.8" font-family="Helvetica,sans-Serif" font-size="14.00">samples = 103</text>
<text text-anchor="start" x="140" y="-245.8" font-family="Helvetica,sans-Serif" font-size="14.00">value = [0.0, 1.0, 102.0, 0.0]</text>
<text text-anchor="start" x="210" y="-230.8" font-family="Helvetica,sans-Serif" font-size="14.00">class = 2</text>
</g>
<!-- 3&#45;&gt;4 -->
<g id="edge4" class="edge">
<title>3&#45;&gt;4</title>
<path fill="none" stroke="black" d="M378.99,-341.91C361.16,-331.92 341.95,-321.17 323.73,-310.98"/>
<polygon fill="black" stroke="black" points="325.32,-307.85 314.88,-306.02 321.9,-313.96 325.32,-307.85"/>
</g>
<!-- 7 -->
<g id="node8" class="node">
<title>7</title>
<path fill="#8dc6f0" stroke="black" d="M523.5,-306C523.5,-306 383.5,-306 383.5,-306 377.5,-306 371.5,-300 371.5,-294 371.5,-294 371.5,-235 371.5,-235 371.5,-229 377.5,-223 383.5,-223 383.5,-223 523.5,-223 523.5,-223 529.5,-223 535.5,-229 535.5,-235 535.5,-235 535.5,-294 535.5,-294 535.5,-300 529.5,-306 523.5,-306"/>
<text text-anchor="start" x="379.5" y="-290.8" font-family="Helvetica,sans-Serif" font-size="14.00">expert_10_2 ≤ 4.596</text>
<text text-anchor="start" x="396" y="-275.8" font-family="Helvetica,sans-Serif" font-size="14.00">entropy = 1.525</text>
<text text-anchor="start" x="405" y="-260.8" font-family="Helvetica,sans-Serif" font-size="14.00">samples = 30</text>
<text text-anchor="start" x="382.5" y="-245.8" font-family="Helvetica,sans-Serif" font-size="14.00">value = [3, 4, 19, 4]</text>
<text text-anchor="start" x="421" y="-230.8" font-family="Helvetica,sans-Serif" font-size="14.00">class = 2</text>
</g>
<!-- 3&#45;&gt;7 -->
<g id="edge7" class="edge">
<title>3&#45;&gt;7</title>
<path fill="none" stroke="black" d="M452.19,-341.91C452.34,-333.56 452.49,-324.67 452.64,-316.02"/>
<polygon fill="black" stroke="black" points="456.14,-316.08 452.81,-306.02 449.14,-315.96 456.14,-316.08"/>
</g>
<!-- 5 -->
<g id="node6" class="node">
<title>5</title>
<path fill="#ffffff" stroke="black" d="M137,-179.5C137,-179.5 12,-179.5 12,-179.5 6,-179.5 0,-173.5 0,-167.5 0,-167.5 0,-123.5 0,-123.5 0,-117.5 6,-111.5 12,-111.5 12,-111.5 137,-111.5 137,-111.5 143,-111.5 149,-117.5 149,-123.5 149,-123.5 149,-167.5 149,-167.5 149,-173.5 143,-179.5 137,-179.5"/>
<text text-anchor="start" x="26" y="-164.3" font-family="Helvetica,sans-Serif" font-size="14.00">entropy = 1.0</text>
<text text-anchor="start" x="30.5" y="-149.3" font-family="Helvetica,sans-Serif" font-size="14.00">samples = 2</text>
<text text-anchor="start" x="8" y="-134.3" font-family="Helvetica,sans-Serif" font-size="14.00">value = [0, 1, 1, 0]</text>
<text text-anchor="start" x="42" y="-119.3" font-family="Helvetica,sans-Serif" font-size="14.00">class = 1</text>
</g>
<!-- 4&#45;&gt;5 -->
<g id="edge5" class="edge">
<title>4&#45;&gt;5</title>
<path fill="none" stroke="black" d="M184.21,-222.91C166.78,-210.77 147.72,-197.49 130.45,-185.46"/>
<polygon fill="black" stroke="black" points="132.33,-182.51 122.12,-179.67 128.33,-188.25 132.33,-182.51"/>
</g>
<!-- 6 -->
<g id="node7" class="node">
<title>6</title>
<path fill="#399de5" stroke="black" d="M322,-179.5C322,-179.5 179,-179.5 179,-179.5 173,-179.5 167,-173.5 167,-167.5 167,-167.5 167,-123.5 167,-123.5 167,-117.5 173,-111.5 179,-111.5 179,-111.5 322,-111.5 322,-111.5 328,-111.5 334,-117.5 334,-123.5 334,-123.5 334,-167.5 334,-167.5 334,-173.5 328,-179.5 322,-179.5"/>
<text text-anchor="start" x="202" y="-164.3" font-family="Helvetica,sans-Serif" font-size="14.00">entropy = 0.0</text>
<text text-anchor="start" x="197.5" y="-149.3" font-family="Helvetica,sans-Serif" font-size="14.00">samples = 101</text>
<text text-anchor="start" x="175" y="-134.3" font-family="Helvetica,sans-Serif" font-size="14.00">value = [0, 0, 101, 0]</text>
<text text-anchor="start" x="218" y="-119.3" font-family="Helvetica,sans-Serif" font-size="14.00">class = 2</text>
</g>
<!-- 4&#45;&gt;6 -->
<g id="edge6" class="edge">
<title>4&#45;&gt;6</title>
<path fill="none" stroke="black" d="M245.28,-222.91C246.01,-212.2 246.8,-200.62 247.54,-189.78"/>
<polygon fill="black" stroke="black" points="251.04,-189.88 248.23,-179.67 244.06,-189.4 251.04,-189.88"/>
</g>
<!-- 8 -->
<g id="node9" class="node">
<title>8</title>
<path fill="#ffffff" stroke="black" d="M511,-187C511,-187 380,-187 380,-187 374,-187 368,-181 368,-175 368,-175 368,-116 368,-116 368,-110 374,-104 380,-104 380,-104 511,-104 511,-104 517,-104 523,-110 523,-116 523,-116 523,-175 523,-175 523,-181 517,-187 511,-187"/>
<text text-anchor="start" x="376" y="-171.8" font-family="Helvetica,sans-Serif" font-size="14.00">expert_16_0 ≤ 0.19</text>
<text text-anchor="start" x="392.5" y="-156.8" font-family="Helvetica,sans-Serif" font-size="14.00">entropy = 1.95</text>
<text text-anchor="start" x="397" y="-141.8" font-family="Helvetica,sans-Serif" font-size="14.00">samples = 14</text>
<text text-anchor="start" x="379" y="-126.8" font-family="Helvetica,sans-Serif" font-size="14.00">value = [2, 4, 4, 4]</text>
<text text-anchor="start" x="413" y="-111.8" font-family="Helvetica,sans-Serif" font-size="14.00">class = 1</text>
</g>
<!-- 7&#45;&gt;8 -->
<g id="edge8" class="edge">
<title>7&#45;&gt;8</title>
<path fill="none" stroke="black" d="M450.72,-222.91C450.15,-214.56 449.55,-205.67 448.95,-197.02"/>
<polygon fill="black" stroke="black" points="452.44,-196.76 448.27,-187.02 445.46,-197.24 452.44,-196.76"/>
</g>
<!-- 11 -->
<g id="node12" class="node">
<title>11</title>
<path fill="#46a4e7" stroke="black" d="M687.5,-187C687.5,-187 553.5,-187 553.5,-187 547.5,-187 541.5,-181 541.5,-175 541.5,-175 541.5,-116 541.5,-116 541.5,-110 547.5,-104 553.5,-104 553.5,-104 687.5,-104 687.5,-104 693.5,-104 699.5,-110 699.5,-116 699.5,-116 699.5,-175 699.5,-175 699.5,-181 693.5,-187 687.5,-187"/>
<text text-anchor="start" x="551" y="-171.8" font-family="Helvetica,sans-Serif" font-size="14.00">expert_12_0 ≤ 4.06</text>
<text text-anchor="start" x="563" y="-156.8" font-family="Helvetica,sans-Serif" font-size="14.00">entropy = 0.337</text>
<text text-anchor="start" x="572" y="-141.8" font-family="Helvetica,sans-Serif" font-size="14.00">samples = 16</text>
<text text-anchor="start" x="549.5" y="-126.8" font-family="Helvetica,sans-Serif" font-size="14.00">value = [1, 0, 15, 0]</text>
<text text-anchor="start" x="588" y="-111.8" font-family="Helvetica,sans-Serif" font-size="14.00">class = 2</text>
</g>
<!-- 7&#45;&gt;11 -->
<g id="edge11" class="edge">
<title>7&#45;&gt;11</title>
<path fill="none" stroke="black" d="M511.44,-222.91C525.3,-213.2 540.2,-202.76 554.4,-192.81"/>
<polygon fill="black" stroke="black" points="556.48,-195.63 562.66,-187.02 552.46,-189.89 556.48,-195.63"/>
</g>
<!-- 9 -->
<g id="node10" class="node">
<title>9</title>
<path fill="#f7d7fa" stroke="black" d="M342,-68C342,-68 217,-68 217,-68 211,-68 205,-62 205,-56 205,-56 205,-12 205,-12 205,-6 211,0 217,0 217,0 342,0 342,0 348,0 354,-6 354,-12 354,-12 354,-56 354,-56 354,-62 348,-68 342,-68"/>
<text text-anchor="start" x="222" y="-52.8" font-family="Helvetica,sans-Serif" font-size="14.00">entropy = 1.406</text>
<text text-anchor="start" x="235.5" y="-37.8" font-family="Helvetica,sans-Serif" font-size="14.00">samples = 8</text>
<text text-anchor="start" x="213" y="-22.8" font-family="Helvetica,sans-Serif" font-size="14.00">value = [1, 0, 3, 4]</text>
<text text-anchor="start" x="247" y="-7.8" font-family="Helvetica,sans-Serif" font-size="14.00">class = 3</text>
</g>
<!-- 8&#45;&gt;9 -->
<g id="edge9" class="edge">
<title>8&#45;&gt;9</title>
<path fill="none" stroke="black" d="M383.69,-103.73C368.82,-93.92 352.97,-83.46 338.24,-73.75"/>
<polygon fill="black" stroke="black" points="339.99,-70.71 329.72,-68.13 336.14,-76.55 339.99,-70.71"/>
</g>
<!-- 10 -->
<g id="node11" class="node">
<title>10</title>
<path fill="#91ef88" stroke="black" d="M509,-68C509,-68 384,-68 384,-68 378,-68 372,-62 372,-56 372,-56 372,-12 372,-12 372,-6 378,0 384,0 384,0 509,0 509,0 515,0 521,-6 521,-12 521,-12 521,-56 521,-56 521,-62 515,-68 509,-68"/>
<text text-anchor="start" x="389" y="-52.8" font-family="Helvetica,sans-Serif" font-size="14.00">entropy = 1.252</text>
<text text-anchor="start" x="402.5" y="-37.8" font-family="Helvetica,sans-Serif" font-size="14.00">samples = 6</text>
<text text-anchor="start" x="380" y="-22.8" font-family="Helvetica,sans-Serif" font-size="14.00">value = [1, 4, 1, 0]</text>
<text text-anchor="start" x="414" y="-7.8" font-family="Helvetica,sans-Serif" font-size="14.00">class = 1</text>
</g>
<!-- 8&#45;&gt;10 -->
<g id="edge10" class="edge">
<title>8&#45;&gt;10</title>
<path fill="none" stroke="black" d="M445.87,-103.73C445.95,-95.52 446.03,-86.86 446.1,-78.56"/>
<polygon fill="black" stroke="black" points="449.6,-78.33 446.2,-68.3 442.6,-78.27 449.6,-78.33"/>
</g>
<!-- 12 -->
<g id="node13" class="node">
<title>12</title>
<path fill="#399de5" stroke="black" d="M686.5,-68C686.5,-68 552.5,-68 552.5,-68 546.5,-68 540.5,-62 540.5,-56 540.5,-56 540.5,-12 540.5,-12 540.5,-6 546.5,0 552.5,0 552.5,0 686.5,0 686.5,0 692.5,0 698.5,-6 698.5,-12 698.5,-12 698.5,-56 698.5,-56 698.5,-62 692.5,-68 686.5,-68"/>
<text text-anchor="start" x="571" y="-52.8" font-family="Helvetica,sans-Serif" font-size="14.00">entropy = 0.0</text>
<text text-anchor="start" x="571" y="-37.8" font-family="Helvetica,sans-Serif" font-size="14.00">samples = 14</text>
<text text-anchor="start" x="548.5" y="-22.8" font-family="Helvetica,sans-Serif" font-size="14.00">value = [0, 0, 14, 0]</text>
<text text-anchor="start" x="587" y="-7.8" font-family="Helvetica,sans-Serif" font-size="14.00">class = 2</text>
</g>
<!-- 11&#45;&gt;12 -->
<g id="edge12" class="edge">
<title>11&#45;&gt;12</title>
<path fill="none" stroke="black" d="M620.13,-103.73C620.05,-95.52 619.97,-86.86 619.9,-78.56"/>
<polygon fill="black" stroke="black" points="623.4,-78.27 619.8,-68.3 616.4,-78.33 623.4,-78.27"/>
</g>
<!-- 13 -->
<g id="node14" class="node">
<title>13</title>
<path fill="#ffffff" stroke="black" d="M853,-68C853,-68 728,-68 728,-68 722,-68 716,-62 716,-56 716,-56 716,-12 716,-12 716,-6 722,0 728,0 728,0 853,0 853,0 859,0 865,-6 865,-12 865,-12 865,-56 865,-56 865,-62 859,-68 853,-68"/>
<text text-anchor="start" x="742" y="-52.8" font-family="Helvetica,sans-Serif" font-size="14.00">entropy = 1.0</text>
<text text-anchor="start" x="746.5" y="-37.8" font-family="Helvetica,sans-Serif" font-size="14.00">samples = 2</text>
<text text-anchor="start" x="724" y="-22.8" font-family="Helvetica,sans-Serif" font-size="14.00">value = [1, 0, 1, 0]</text>
<text text-anchor="start" x="758" y="-7.8" font-family="Helvetica,sans-Serif" font-size="14.00">class = 0</text>
</g>
<!-- 11&#45;&gt;13 -->
<g id="edge13" class="edge">
<title>11&#45;&gt;13</title>
<path fill="none" stroke="black" d="M683.8,-103.73C699.03,-93.92 715.26,-83.46 730.34,-73.75"/>
<polygon fill="black" stroke="black" points="732.56,-76.48 739.07,-68.13 728.77,-70.6 732.56,-76.48"/>
</g>
<!-- 15 -->
<g id="node16" class="node">
<title>15</title>
<path fill="#47e539" stroke="black" d="M701.5,-298.5C701.5,-298.5 567.5,-298.5 567.5,-298.5 561.5,-298.5 555.5,-292.5 555.5,-286.5 555.5,-286.5 555.5,-242.5 555.5,-242.5 555.5,-236.5 561.5,-230.5 567.5,-230.5 567.5,-230.5 701.5,-230.5 701.5,-230.5 707.5,-230.5 713.5,-236.5 713.5,-242.5 713.5,-242.5 713.5,-286.5 713.5,-286.5 713.5,-292.5 707.5,-298.5 701.5,-298.5"/>
<text text-anchor="start" x="586" y="-283.3" font-family="Helvetica,sans-Serif" font-size="14.00">entropy = 0.0</text>
<text text-anchor="start" x="586" y="-268.3" font-family="Helvetica,sans-Serif" font-size="14.00">samples = 14</text>
<text text-anchor="start" x="563.5" y="-253.3" font-family="Helvetica,sans-Serif" font-size="14.00">value = [0, 14, 0, 0]</text>
<text text-anchor="start" x="602" y="-238.3" font-family="Helvetica,sans-Serif" font-size="14.00">class = 1</text>
</g>
<!-- 14&#45;&gt;15 -->
<g id="edge15" class="edge">
<title>14&#45;&gt;15</title>
<path fill="none" stroke="black" d="M635.15,-341.91C635.06,-331.2 634.96,-319.62 634.87,-308.78"/>
<polygon fill="black" stroke="black" points="638.37,-308.64 634.78,-298.67 631.37,-308.7 638.37,-308.64"/>
</g>
<!-- 16 -->
<g id="node17" class="node">
<title>16</title>
<path fill="#399de5" stroke="black" d="M868,-298.5C868,-298.5 743,-298.5 743,-298.5 737,-298.5 731,-292.5 731,-286.5 731,-286.5 731,-242.5 731,-242.5 731,-236.5 737,-230.5 743,-230.5 743,-230.5 868,-230.5 868,-230.5 874,-230.5 880,-236.5 880,-242.5 880,-242.5 880,-286.5 880,-286.5 880,-292.5 874,-298.5 868,-298.5"/>
<text text-anchor="start" x="757" y="-283.3" font-family="Helvetica,sans-Serif" font-size="14.00">entropy = 0.0</text>
<text text-anchor="start" x="761.5" y="-268.3" font-family="Helvetica,sans-Serif" font-size="14.00">samples = 2</text>
<text text-anchor="start" x="739" y="-253.3" font-family="Helvetica,sans-Serif" font-size="14.00">value = [0, 0, 2, 0]</text>
<text text-anchor="start" x="773" y="-238.3" font-family="Helvetica,sans-Serif" font-size="14.00">class = 2</text>
</g>
<!-- 14&#45;&gt;16 -->
<g id="edge16" class="edge">
<title>14&#45;&gt;16</title>
<path fill="none" stroke="black" d="M694.48,-341.91C712.12,-329.77 731.41,-316.49 748.89,-304.46"/>
<polygon fill="black" stroke="black" points="751.06,-307.22 757.31,-298.67 747.09,-301.45 751.06,-307.22"/>
</g>
<!-- 18 -->
<g id="node19" class="node">
<title>18</title>
<path fill="#e58139" stroke="black" d="M891,-417.5C891,-417.5 748,-417.5 748,-417.5 742,-417.5 736,-411.5 736,-405.5 736,-405.5 736,-361.5 736,-361.5 736,-355.5 742,-349.5 748,-349.5 748,-349.5 891,-349.5 891,-349.5 897,-349.5 903,-355.5 903,-361.5 903,-361.5 903,-405.5 903,-405.5 903,-411.5 897,-417.5 891,-417.5"/>
<text text-anchor="start" x="771" y="-402.3" font-family="Helvetica,sans-Serif" font-size="14.00">entropy = 0.0</text>
<text text-anchor="start" x="766.5" y="-387.3" font-family="Helvetica,sans-Serif" font-size="14.00">samples = 119</text>
<text text-anchor="start" x="744" y="-372.3" font-family="Helvetica,sans-Serif" font-size="14.00">value = [119, 0, 0, 0]</text>
<text text-anchor="start" x="787" y="-357.3" font-family="Helvetica,sans-Serif" font-size="14.00">class = 0</text>
</g>
<!-- 17&#45;&gt;18 -->
<g id="edge18" class="edge">
<title>17&#45;&gt;18</title>
<path fill="none" stroke="black" d="M859.34,-460.91C853.58,-449.87 847.34,-437.9 841.54,-426.77"/>
<polygon fill="black" stroke="black" points="844.52,-424.92 836.79,-417.67 838.31,-428.15 844.52,-424.92"/>
</g>
<!-- 19 -->
<g id="node20" class="node">
<title>19</title>
<path fill="#5aade9" stroke="black" d="M1058,-417.5C1058,-417.5 933,-417.5 933,-417.5 927,-417.5 921,-411.5 921,-405.5 921,-405.5 921,-361.5 921,-361.5 921,-355.5 927,-349.5 933,-349.5 933,-349.5 1058,-349.5 1058,-349.5 1064,-349.5 1070,-355.5 1070,-361.5 1070,-361.5 1070,-405.5 1070,-405.5 1070,-411.5 1064,-417.5 1058,-417.5"/>
<text text-anchor="start" x="938" y="-402.3" font-family="Helvetica,sans-Serif" font-size="14.00">entropy = 0.592</text>
<text text-anchor="start" x="951.5" y="-387.3" font-family="Helvetica,sans-Serif" font-size="14.00">samples = 7</text>
<text text-anchor="start" x="929" y="-372.3" font-family="Helvetica,sans-Serif" font-size="14.00">value = [1, 0, 6, 0]</text>
<text text-anchor="start" x="963" y="-357.3" font-family="Helvetica,sans-Serif" font-size="14.00">class = 2</text>
</g>
<!-- 17&#45;&gt;19 -->
<g id="edge19" class="edge">
<title>17&#45;&gt;19</title>
<path fill="none" stroke="black" d="M920.4,-460.91C931.79,-449.32 944.19,-436.7 955.58,-425.11"/>
<polygon fill="black" stroke="black" points="958.39,-427.25 962.9,-417.67 953.39,-422.35 958.39,-427.25"/>
</g>
<!-- 21 -->
<g id="node22" class="node">
<title>21</title>
<path fill="#da46e7" stroke="black" d="M1326,-544C1326,-544 1183,-544 1183,-544 1177,-544 1171,-538 1171,-532 1171,-532 1171,-473 1171,-473 1171,-467 1177,-461 1183,-461 1183,-461 1326,-461 1326,-461 1332,-461 1338,-467 1338,-473 1338,-473 1338,-532 1338,-532 1338,-538 1332,-544 1326,-544"/>
<text text-anchor="start" x="1185" y="-528.8" font-family="Helvetica,sans-Serif" font-size="14.00">expert_1_0 ≤ 2.948</text>
<text text-anchor="start" x="1197" y="-513.8" font-family="Helvetica,sans-Serif" font-size="14.00">entropy = 0.365</text>
<text text-anchor="start" x="1201.5" y="-498.8" font-family="Helvetica,sans-Serif" font-size="14.00">samples = 131</text>
<text text-anchor="start" x="1179" y="-483.8" font-family="Helvetica,sans-Serif" font-size="14.00">value = [7, 0, 1, 123]</text>
<text text-anchor="start" x="1222" y="-468.8" font-family="Helvetica,sans-Serif" font-size="14.00">class = 3</text>
</g>
<!-- 20&#45;&gt;21 -->
<g id="edge21" class="edge">
<title>20&#45;&gt;21</title>
<path fill="none" stroke="black" d="M1254.5,-579.91C1254.5,-571.65 1254.5,-562.86 1254.5,-554.3"/>
<polygon fill="black" stroke="black" points="1258,-554.02 1254.5,-544.02 1251,-554.02 1258,-554.02"/>
</g>
<!-- 28 -->
<g id="node29" class="node">
<title>28</title>
<path fill="#4ce63e" stroke="black" d="M1595,-544C1595,-544 1452,-544 1452,-544 1446,-544 1440,-538 1440,-532 1440,-532 1440,-473 1440,-473 1440,-467 1446,-461 1452,-461 1452,-461 1595,-461 1595,-461 1601,-461 1607,-467 1607,-473 1607,-473 1607,-532 1607,-532 1607,-538 1601,-544 1595,-544"/>
<text text-anchor="start" x="1449.5" y="-528.8" font-family="Helvetica,sans-Serif" font-size="14.00">expert_4_2 ≤ 19.892</text>
<text text-anchor="start" x="1466" y="-513.8" font-family="Helvetica,sans-Serif" font-size="14.00">entropy = 0.176</text>
<text text-anchor="start" x="1470.5" y="-498.8" font-family="Helvetica,sans-Serif" font-size="14.00">samples = 114</text>
<text text-anchor="start" x="1448" y="-483.8" font-family="Helvetica,sans-Serif" font-size="14.00">value = [0, 111, 0, 3]</text>
<text text-anchor="start" x="1491" y="-468.8" font-family="Helvetica,sans-Serif" font-size="14.00">class = 1</text>
</g>
<!-- 20&#45;&gt;28 -->
<g id="edge28" class="edge">
<title>20&#45;&gt;28</title>
<path fill="none" stroke="black" d="M1347.83,-579.91C1374.57,-568.28 1403.71,-555.6 1430.44,-543.98"/>
<polygon fill="black" stroke="black" points="1432.01,-547.11 1439.78,-539.91 1429.22,-540.69 1432.01,-547.11"/>
</g>
<!-- 22 -->
<g id="node23" class="node">
<title>22</title>
<path fill="#d83ce5" stroke="black" d="M1243,-425C1243,-425 1100,-425 1100,-425 1094,-425 1088,-419 1088,-413 1088,-413 1088,-354 1088,-354 1088,-348 1094,-342 1100,-342 1100,-342 1243,-342 1243,-342 1249,-342 1255,-348 1255,-354 1255,-354 1255,-413 1255,-413 1255,-419 1249,-425 1243,-425"/>
<text text-anchor="start" x="1102" y="-409.8" font-family="Helvetica,sans-Serif" font-size="14.00">expert_19_0 ≤ 2.06</text>
<text text-anchor="start" x="1114" y="-394.8" font-family="Helvetica,sans-Serif" font-size="14.00">entropy = 0.134</text>
<text text-anchor="start" x="1118.5" y="-379.8" font-family="Helvetica,sans-Serif" font-size="14.00">samples = 125</text>
<text text-anchor="start" x="1096" y="-364.8" font-family="Helvetica,sans-Serif" font-size="14.00">value = [1, 0, 1, 123]</text>
<text text-anchor="start" x="1139" y="-349.8" font-family="Helvetica,sans-Serif" font-size="14.00">class = 3</text>
</g>
<!-- 21&#45;&gt;22 -->
<g id="edge22" class="edge">
<title>21&#45;&gt;22</title>
<path fill="none" stroke="black" d="M1225.7,-460.91C1219.39,-452.01 1212.65,-442.51 1206.14,-433.33"/>
<polygon fill="black" stroke="black" points="1208.89,-431.15 1200.25,-425.02 1203.18,-435.2 1208.89,-431.15"/>
</g>
<!-- 27 -->
<g id="node28" class="node">
<title>27</title>
<path fill="#e58139" stroke="black" d="M1410,-417.5C1410,-417.5 1285,-417.5 1285,-417.5 1279,-417.5 1273,-411.5 1273,-405.5 1273,-405.5 1273,-361.5 1273,-361.5 1273,-355.5 1279,-349.5 1285,-349.5 1285,-349.5 1410,-349.5 1410,-349.5 1416,-349.5 1422,-355.5 1422,-361.5 1422,-361.5 1422,-405.5 1422,-405.5 1422,-411.5 1416,-417.5 1410,-417.5"/>
<text text-anchor="start" x="1299" y="-402.3" font-family="Helvetica,sans-Serif" font-size="14.00">entropy = 0.0</text>
<text text-anchor="start" x="1303.5" y="-387.3" font-family="Helvetica,sans-Serif" font-size="14.00">samples = 6</text>
<text text-anchor="start" x="1281" y="-372.3" font-family="Helvetica,sans-Serif" font-size="14.00">value = [6, 0, 0, 0]</text>
<text text-anchor="start" x="1315" y="-357.3" font-family="Helvetica,sans-Serif" font-size="14.00">class = 0</text>
</g>
<!-- 21&#45;&gt;27 -->
<g id="edge27" class="edge">
<title>21&#45;&gt;27</title>
<path fill="none" stroke="black" d="M1286.77,-460.91C1295.8,-449.54 1305.63,-437.18 1314.69,-425.77"/>
<polygon fill="black" stroke="black" points="1317.65,-427.67 1321.14,-417.67 1312.17,-423.32 1317.65,-427.67"/>
</g>
<!-- 23 -->
<g id="node24" class="node">
<title>23</title>
<path fill="#d739e5" stroke="black" d="M1106,-298.5C1106,-298.5 963,-298.5 963,-298.5 957,-298.5 951,-292.5 951,-286.5 951,-286.5 951,-242.5 951,-242.5 951,-236.5 957,-230.5 963,-230.5 963,-230.5 1106,-230.5 1106,-230.5 1112,-230.5 1118,-236.5 1118,-242.5 1118,-242.5 1118,-286.5 1118,-286.5 1118,-292.5 1112,-298.5 1106,-298.5"/>
<text text-anchor="start" x="986" y="-283.3" font-family="Helvetica,sans-Serif" font-size="14.00">entropy = 0.0</text>
<text text-anchor="start" x="981.5" y="-268.3" font-family="Helvetica,sans-Serif" font-size="14.00">samples = 113</text>
<text text-anchor="start" x="959" y="-253.3" font-family="Helvetica,sans-Serif" font-size="14.00">value = [0, 0, 0, 113]</text>
<text text-anchor="start" x="1002" y="-238.3" font-family="Helvetica,sans-Serif" font-size="14.00">class = 3</text>
</g>
<!-- 22&#45;&gt;23 -->
<g id="edge23" class="edge">
<title>22&#45;&gt;23</title>
<path fill="none" stroke="black" d="M1123.97,-341.91C1110.14,-330.1 1095.06,-317.22 1081.28,-305.45"/>
<polygon fill="black" stroke="black" points="1083.21,-302.5 1073.34,-298.67 1078.67,-307.82 1083.21,-302.5"/>
</g>
<!-- 24 -->
<g id="node25" class="node">
<title>24</title>
<path fill="#de5dea" stroke="black" d="M1281.5,-306C1281.5,-306 1147.5,-306 1147.5,-306 1141.5,-306 1135.5,-300 1135.5,-294 1135.5,-294 1135.5,-235 1135.5,-235 1135.5,-229 1141.5,-223 1147.5,-223 1147.5,-223 1281.5,-223 1281.5,-223 1287.5,-223 1293.5,-229 1293.5,-235 1293.5,-235 1293.5,-294 1293.5,-294 1293.5,-300 1287.5,-306 1281.5,-306"/>
<text text-anchor="start" x="1145" y="-290.8" font-family="Helvetica,sans-Serif" font-size="14.00">expert_5_2 ≤ 1.918</text>
<text text-anchor="start" x="1157" y="-275.8" font-family="Helvetica,sans-Serif" font-size="14.00">entropy = 0.817</text>
<text text-anchor="start" x="1166" y="-260.8" font-family="Helvetica,sans-Serif" font-size="14.00">samples = 12</text>
<text text-anchor="start" x="1143.5" y="-245.8" font-family="Helvetica,sans-Serif" font-size="14.00">value = [1, 0, 1, 10]</text>
<text text-anchor="start" x="1182" y="-230.8" font-family="Helvetica,sans-Serif" font-size="14.00">class = 3</text>
</g>
<!-- 22&#45;&gt;24 -->
<g id="edge24" class="edge">
<title>22&#45;&gt;24</title>
<path fill="none" stroke="black" d="M1186.42,-341.91C1189.55,-333.38 1192.9,-324.28 1196.14,-315.46"/>
<polygon fill="black" stroke="black" points="1199.44,-316.61 1199.61,-306.02 1192.87,-314.2 1199.44,-316.61"/>
</g>
<!-- 25 -->
<g id="node26" class="node">
<title>25</title>
<path fill="#ffffff" stroke="black" d="M1191,-179.5C1191,-179.5 1066,-179.5 1066,-179.5 1060,-179.5 1054,-173.5 1054,-167.5 1054,-167.5 1054,-123.5 1054,-123.5 1054,-117.5 1060,-111.5 1066,-111.5 1066,-111.5 1191,-111.5 1191,-111.5 1197,-111.5 1203,-117.5 1203,-123.5 1203,-123.5 1203,-167.5 1203,-167.5 1203,-173.5 1197,-179.5 1191,-179.5"/>
<text text-anchor="start" x="1080" y="-164.3" font-family="Helvetica,sans-Serif" font-size="14.00">entropy = 1.0</text>
<text text-anchor="start" x="1084.5" y="-149.3" font-family="Helvetica,sans-Serif" font-size="14.00">samples = 2</text>
<text text-anchor="start" x="1062" y="-134.3" font-family="Helvetica,sans-Serif" font-size="14.00">value = [1, 0, 1, 0]</text>
<text text-anchor="start" x="1096" y="-119.3" font-family="Helvetica,sans-Serif" font-size="14.00">class = 0</text>
</g>
<!-- 24&#45;&gt;25 -->
<g id="edge25" class="edge">
<title>24&#45;&gt;25</title>
<path fill="none" stroke="black" d="M1184.66,-222.91C1176.31,-211.54 1167.22,-199.18 1158.84,-187.77"/>
<polygon fill="black" stroke="black" points="1161.62,-185.65 1152.88,-179.67 1155.98,-189.8 1161.62,-185.65"/>
</g>
<!-- 26 -->
<g id="node27" class="node">
<title>26</title>
<path fill="#d739e5" stroke="black" d="M1366.5,-179.5C1366.5,-179.5 1232.5,-179.5 1232.5,-179.5 1226.5,-179.5 1220.5,-173.5 1220.5,-167.5 1220.5,-167.5 1220.5,-123.5 1220.5,-123.5 1220.5,-117.5 1226.5,-111.5 1232.5,-111.5 1232.5,-111.5 1366.5,-111.5 1366.5,-111.5 1372.5,-111.5 1378.5,-117.5 1378.5,-123.5 1378.5,-123.5 1378.5,-167.5 1378.5,-167.5 1378.5,-173.5 1372.5,-179.5 1366.5,-179.5"/>
<text text-anchor="start" x="1251" y="-164.3" font-family="Helvetica,sans-Serif" font-size="14.00">entropy = 0.0</text>
<text text-anchor="start" x="1251" y="-149.3" font-family="Helvetica,sans-Serif" font-size="14.00">samples = 10</text>
<text text-anchor="start" x="1228.5" y="-134.3" font-family="Helvetica,sans-Serif" font-size="14.00">value = [0, 0, 0, 10]</text>
<text text-anchor="start" x="1267" y="-119.3" font-family="Helvetica,sans-Serif" font-size="14.00">class = 3</text>
</g>
<!-- 24&#45;&gt;26 -->
<g id="edge26" class="edge">
<title>24&#45;&gt;26</title>
<path fill="none" stroke="black" d="M1243.99,-222.91C1252.25,-211.54 1261.23,-199.18 1269.51,-187.77"/>
<polygon fill="black" stroke="black" points="1272.36,-189.81 1275.4,-179.67 1266.7,-185.7 1272.36,-189.81"/>
</g>
<!-- 29 -->
<g id="node30" class="node">
<title>29</title>
<path fill="#49e53b" stroke="black" d="M1595,-425C1595,-425 1452,-425 1452,-425 1446,-425 1440,-419 1440,-413 1440,-413 1440,-354 1440,-354 1440,-348 1446,-342 1452,-342 1452,-342 1595,-342 1595,-342 1601,-342 1607,-348 1607,-354 1607,-354 1607,-413 1607,-413 1607,-419 1601,-425 1595,-425"/>
<text text-anchor="start" x="1449.5" y="-409.8" font-family="Helvetica,sans-Serif" font-size="14.00">expert_14_2 ≤ 4.731</text>
<text text-anchor="start" x="1466" y="-394.8" font-family="Helvetica,sans-Serif" font-size="14.00">entropy = 0.074</text>
<text text-anchor="start" x="1470.5" y="-379.8" font-family="Helvetica,sans-Serif" font-size="14.00">samples = 112</text>
<text text-anchor="start" x="1448" y="-364.8" font-family="Helvetica,sans-Serif" font-size="14.00">value = [0, 111, 0, 1]</text>
<text text-anchor="start" x="1491" y="-349.8" font-family="Helvetica,sans-Serif" font-size="14.00">class = 1</text>
</g>
<!-- 28&#45;&gt;29 -->
<g id="edge29" class="edge">
<title>28&#45;&gt;29</title>
<path fill="none" stroke="black" d="M1523.5,-460.91C1523.5,-452.65 1523.5,-443.86 1523.5,-435.3"/>
<polygon fill="black" stroke="black" points="1527,-435.02 1523.5,-425.02 1520,-435.02 1527,-435.02"/>
</g>
<!-- 32 -->
<g id="node33" class="node">
<title>32</title>
<path fill="#d739e5" stroke="black" d="M1762,-417.5C1762,-417.5 1637,-417.5 1637,-417.5 1631,-417.5 1625,-411.5 1625,-405.5 1625,-405.5 1625,-361.5 1625,-361.5 1625,-355.5 1631,-349.5 1637,-349.5 1637,-349.5 1762,-349.5 1762,-349.5 1768,-349.5 1774,-355.5 1774,-361.5 1774,-361.5 1774,-405.5 1774,-405.5 1774,-411.5 1768,-417.5 1762,-417.5"/>
<text text-anchor="start" x="1651" y="-402.3" font-family="Helvetica,sans-Serif" font-size="14.00">entropy = 0.0</text>
<text text-anchor="start" x="1655.5" y="-387.3" font-family="Helvetica,sans-Serif" font-size="14.00">samples = 2</text>
<text text-anchor="start" x="1633" y="-372.3" font-family="Helvetica,sans-Serif" font-size="14.00">value = [0, 0, 0, 2]</text>
<text text-anchor="start" x="1667" y="-357.3" font-family="Helvetica,sans-Serif" font-size="14.00">class = 3</text>
</g>
<!-- 28&#45;&gt;32 -->
<g id="edge32" class="edge">
<title>28&#45;&gt;32</title>
<path fill="none" stroke="black" d="M1584.56,-460.91C1602.82,-448.77 1622.79,-435.49 1640.89,-423.46"/>
<polygon fill="black" stroke="black" points="1643.22,-426.12 1649.61,-417.67 1639.34,-420.29 1643.22,-426.12"/>
</g>
<!-- 30 -->
<g id="node31" class="node">
<title>30</title>
<path fill="#47e539" stroke="black" d="M1552,-298.5C1552,-298.5 1409,-298.5 1409,-298.5 1403,-298.5 1397,-292.5 1397,-286.5 1397,-286.5 1397,-242.5 1397,-242.5 1397,-236.5 1403,-230.5 1409,-230.5 1409,-230.5 1552,-230.5 1552,-230.5 1558,-230.5 1564,-236.5 1564,-242.5 1564,-242.5 1564,-286.5 1564,-286.5 1564,-292.5 1558,-298.5 1552,-298.5"/>
<text text-anchor="start" x="1432" y="-283.3" font-family="Helvetica,sans-Serif" font-size="14.00">entropy = 0.0</text>
<text text-anchor="start" x="1427.5" y="-268.3" font-family="Helvetica,sans-Serif" font-size="14.00">samples = 110</text>
<text text-anchor="start" x="1405" y="-253.3" font-family="Helvetica,sans-Serif" font-size="14.00">value = [0, 110, 0, 0]</text>
<text text-anchor="start" x="1448" y="-238.3" font-family="Helvetica,sans-Serif" font-size="14.00">class = 1</text>
</g>
<!-- 29&#45;&gt;30 -->
<g id="edge30" class="edge">
<title>29&#45;&gt;30</title>
<path fill="none" stroke="black" d="M1508.58,-341.91C1504.57,-330.98 1500.21,-319.14 1496.16,-308.11"/>
<polygon fill="black" stroke="black" points="1499.42,-306.85 1492.69,-298.67 1492.85,-309.26 1499.42,-306.85"/>
</g>
<!-- 31 -->
<g id="node32" class="node">
<title>31</title>
<path fill="#ffffff" stroke="black" d="M1719,-298.5C1719,-298.5 1594,-298.5 1594,-298.5 1588,-298.5 1582,-292.5 1582,-286.5 1582,-286.5 1582,-242.5 1582,-242.5 1582,-236.5 1588,-230.5 1594,-230.5 1594,-230.5 1719,-230.5 1719,-230.5 1725,-230.5 1731,-236.5 1731,-242.5 1731,-242.5 1731,-286.5 1731,-286.5 1731,-292.5 1725,-298.5 1719,-298.5"/>
<text text-anchor="start" x="1608" y="-283.3" font-family="Helvetica,sans-Serif" font-size="14.00">entropy = 1.0</text>
<text text-anchor="start" x="1612.5" y="-268.3" font-family="Helvetica,sans-Serif" font-size="14.00">samples = 2</text>
<text text-anchor="start" x="1590" y="-253.3" font-family="Helvetica,sans-Serif" font-size="14.00">value = [0, 1, 0, 1]</text>
<text text-anchor="start" x="1624" y="-238.3" font-family="Helvetica,sans-Serif" font-size="14.00">class = 1</text>
</g>
<!-- 29&#45;&gt;31 -->
<g id="edge31" class="edge">
<title>29&#45;&gt;31</title>
<path fill="none" stroke="black" d="M1569.64,-341.91C1583.07,-330.1 1597.71,-317.22 1611.09,-305.45"/>
<polygon fill="black" stroke="black" points="1613.6,-307.9 1618.8,-298.67 1608.98,-302.64 1613.6,-307.9"/>
</g>
</g>
</svg>
